<svg xmlns="http://www.w3.org/2000/svg" width="203.131" height="86.284" viewBox="0 0 203.131 86.284">
    <g data-name="Group 3">
        <path d="M234.653 61.879c-.1.04-.126 3.721-.126 17.928v17.878l1.844-.028 1.844-.028.051-5.594.051-5.594 1.49 1.567c.82.862 1.49 1.6 1.49 1.641s.753.874 1.673 1.854 2 2.141 2.4 2.58 1.113 1.217 1.585 1.729 1.047 1.141 1.278 1.4l.42.471 2.357-.027c2.226-.026 2.36-.038 2.395-.219a.283.283 0 0 0-.125-.283.3.3 0 0 1-.162-.2c0-.06-1.3-1.439-2.88-3.065s-2.88-2.988-2.88-3.028-.607-.694-1.349-1.452c-4.544-4.645-4.671-4.788-4.543-5.135.037-.1 1.356-1.508 2.93-3.126s2.862-2.98 2.862-3.026a17.882 17.882 0 0 1 1.35-1.453c.743-.753 2.064-2.119 2.937-3.036 2.541-2.668 2.6-2.425-.578-2.425h-2.454l-.477.483a2.81 2.81 0 0 0-.476.565c0 .077-1.924 2.2-3.234 3.576a5.135 5.135 0 0 0-.6.7 6.547 6.547 0 0 1-.682.787c-.375.4-.94 1.014-1.256 1.372s-1.168 1.293-1.895 2.079a16.246 16.246 0 0 0-1.321 1.529.406.406 0 0 1-.151.225c-.134.112-.151-1.032-.151-10.189 0-10.094 0-10.317-.2-10.419a19.076 19.076 0 0 0-3.417-.037m24.042 2.782a16.029 16.029 0 0 0-.122 3.339v3.213h-3.638v3.233h3.638v9.036c0 5 .039 9.061.088 9.091a1.726 1.726 0 0 1 .156.659 1.752 1.752 0 0 0 .154.658.7.7 0 0 1 .15.332 2.56 2.56 0 0 0 .538 1.067.282.282 0 0 1 .127.206 4.046 4.046 0 0 0 1.126 1.134c1.654.949 1.863.989 5.419 1.033l3.16.039-.028-1.55-.028-1.55-2.223-.058c-3.308-.088-4.286-.533-4.6-2.092a4.161 4.161 0 0 0-.209-.753c-.053-.1-.092-3.754-.092-8.714v-8.542h7.173v-3.233h-7.173v-3.273c0-2.891-.019-3.28-.16-3.334a15.9 15.9 0 0 0-3.457.06m-44.139 6.251a7.655 7.655 0 0 0-1.415.176 2.825 2.825 0 0 1-.639.171 1.966 1.966 0 0 0-.556.152 1.6 1.6 0 0 1-.454.152 2.964 2.964 0 0 0-.607.2c-.139.071-.5.235-.808.366a4.148 4.148 0 0 0-.607.3 6.261 6.261 0 0 1-.629.386 15.663 15.663 0 0 0-3.075 2.892l-.471.707a7.757 7.757 0 0 0-.776 1.4 1.442 1.442 0 0 1-.159.423 7.432 7.432 0 0 0-.6 1.787 1.727 1.727 0 0 1-.162.548 2.534 2.534 0 0 0-.148.758 3.692 3.692 0 0 1-.156.849 25.246 25.246 0 0 0 .311 6.264 3.137 3.137 0 0 1 .157.606 4.875 4.875 0 0 0 .51 1.4 1.46 1.46 0 0 1 .153.454 11.53 11.53 0 0 0 1.451 2.481 21.436 21.436 0 0 0 2.172 2.184.652.652 0 0 1 .261.2.6.6 0 0 0 .314.2.285.285 0 0 1 .212.134 1.829 1.829 0 0 0 .535.359c.25.123.523.266.606.315a10.08 10.08 0 0 0 2.509.911.449.449 0 0 1 .279.1 2.153 2.153 0 0 0 .753.159 3.71 3.71 0 0 1 .857.157 21.358 21.358 0 0 0 5.441-.3 1.622 1.622 0 0 1 .517-.156 10.832 10.832 0 0 0 3.477-1.551 14.868 14.868 0 0 0 3.1-3.169 12.411 12.411 0 0 0 1.46-3.4c0-.392-.178-.431-1.979-.431-1.833 0-2.063.068-2.063.608a6.324 6.324 0 0 1-.484 1.175 5.415 5.415 0 0 1-.847 1.147c-.046 0-.084.063-.084.141 0 .163-.329.458-1.516 1.358a10 10 0 0 1-2.16 1 1.345 1.345 0 0 0-.418.139 13.619 13.619 0 0 1-5.05-.006 1.561 1.561 0 0 0-.454-.153 10.477 10.477 0 0 1-3.861-2.321 26.69 26.69 0 0 0-.382-.508 8.816 8.816 0 0 1-1.416-2.472 1.215 1.215 0 0 0-.138-.418 3.029 3.029 0 0 1-.212-.758 3.121 3.121 0 0 0-.152-.646 3.766 3.766 0 0 1-.147-.782l-.069-.631 10.892-.025 10.892-.026-.009-2.324c-.009-2.318-.18-3.968-.44-4.228a.577.577 0 0 1-.107-.349 1.367 1.367 0 0 0-.137-.51c-.075-.148-.327-.654-.56-1.127a8.84 8.84 0 0 0-2.3-3.141 11.578 11.578 0 0 0-4.209-2.673 1.433 1.433 0 0 1-.424-.149 2.091 2.091 0 0 0-.606-.153 2.051 2.051 0 0 1-.614-.159 29.937 29.937 0 0 0-3.427-.277c-.056.008-.654.05-1.331.093m69.661 0a7.288 7.288 0 0 0-1.364.177 2.71 2.71 0 0 1-.611.166 1.14 1.14 0 0 0-.479.152.945.945 0 0 1-.418.15 10.579 10.579 0 0 0-3.238 1.711 2.14 2.14 0 0 1-.508.365 6.967 6.967 0 0 0-1.344 1.374.862.862 0 0 1-.259.349 3.428 3.428 0 0 0-.474.6 2.921 2.921 0 0 1-.279.405 3.315 3.315 0 0 0-.292.505c-.126.25-.3.591-.388.758a6.79 6.79 0 0 0-.624 1.566c-.124.416-.269.865-.322 1a4.395 4.395 0 0 0-.156.859 2.262 2.262 0 0 1-.174.762 29.679 29.679 0 0 0 0 5.274 2.262 2.262 0 0 1 .174.762 4.386 4.386 0 0 0 .156.859c.052.131.2.579.322 1a10.107 10.107 0 0 0 .348 1.011 19.634 19.634 0 0 0 .905 1.768c.135.223.278.469.318.548a20.713 20.713 0 0 0 2.9 2.937 3.962 3.962 0 0 1 .771.505 10.8 10.8 0 0 0 3.019 1.195.461.461 0 0 1 .284.106 2.442 2.442 0 0 0 .832.166 2.275 2.275 0 0 1 .78.147 18.224 18.224 0 0 0 3.519 0 2.257 2.257 0 0 1 .777-.159 4.106 4.106 0 0 0 .886-.157 9.477 9.477 0 0 1 .922-.312 5.813 5.813 0 0 0 1.616-.705 6.908 6.908 0 0 1 .657-.4 15.8 15.8 0 0 0 3.216-3.149c.34-.73.371-.564.371 1.987v2.484l1.844-.028 1.844-.028V71.259h-3.637l-.051 2.467-.051 2.468-.278-.365a1.517 1.517 0 0 1-.278-.48 18.159 18.159 0 0 0-2.428-2.424 1.509 1.509 0 0 1-.488-.288 9.292 9.292 0 0 0-2.187-1.085 1.419 1.419 0 0 1-.4-.148 2.5 2.5 0 0 0-.606-.183l-.96-.2a22.7 22.7 0 0 0-4.163-.111m-67.068 3.227a11.225 11.225 0 0 1 2.153.486 1.619 1.619 0 0 0 .377.12 7.627 7.627 0 0 1 1.668.856 1.565 1.565 0 0 0 .415.255 8.883 8.883 0 0 1 1.55 1.581.178.178 0 0 0 .075.154 3.7 3.7 0 0 1 .727 1.145c.128.278.289.619.359.758a3.154 3.154 0 0 1 .2.757 2.121 2.121 0 0 0 .152.607 4.682 4.682 0 0 1 .15 1.036l.071.934h-18.1l.066-.581a2.631 2.631 0 0 1 .138-.682 2 2 0 0 0 .142-.551 1.859 1.859 0 0 1 .151-.556 1.371 1.371 0 0 0 .151-.409 3.61 3.61 0 0 1 .208-.607c.078-.166.2-.451.262-.631s.16-.328.209-.328a.1.1 0 0 0 .089-.105 2.273 2.273 0 0 1 .53-.787.171.171 0 0 0 .075-.149 5.428 5.428 0 0 1 1.26-1.285.828.828 0 0 0 .336-.246 1.974 1.974 0 0 1 .531-.377c.164-.073.3-.163.3-.2a4.442 4.442 0 0 1 1.25-.589 1.385 1.385 0 0 0 .405-.153 2.6 2.6 0 0 1 .707-.209 2.936 2.936 0 0 0 .618-.148 7.63 7.63 0 0 1 2.779-.1m71.331.2a3.389 3.389 0 0 1 .757.2 1.576 1.576 0 0 0 .451.154 8.6 8.6 0 0 1 2.618 1.5.445.445 0 0 0 .249.167 4.135 4.135 0 0 1 1.077 1.04 2.189 2.189 0 0 0 .354.519 1.891 1.891 0 0 1 .354.548c0 .064.035.116.078.116.247 0 1.181 2.381 1.3 3.323a1.7 1.7 0 0 0 .172.606 18.56 18.56 0 0 1-.009 4.072 2.033 2.033 0 0 0-.18.673 3.109 3.109 0 0 1-.213.808 1.241 1.241 0 0 0-.141.4 3.861 3.861 0 0 1-.391 1.026 7.451 7.451 0 0 1-.37.657 6.355 6.355 0 0 0-.32.556.594.594 0 0 1-.2.232.277.277 0 0 0-.134.2 12.766 12.766 0 0 1-1.843 1.892 2.263 2.263 0 0 0-.5.3 8.409 8.409 0 0 1-2.8 1.213.5.5 0 0 0-.3.126 14 14 0 0 1-4.309-.06c-1.739-.534-2.677-.92-2.677-1.1 0-.042-.052-.076-.115-.076a8.694 8.694 0 0 1-2.007-1.636 2.06 2.06 0 0 0-.354-.529 1.891 1.891 0 0 1-.354-.548c0-.063-.037-.116-.083-.116a8.286 8.286 0 0 1-.928-1.842 1.408 1.408 0 0 0-.156-.427 2.779 2.779 0 0 1-.215-.758 1.7 1.7 0 0 0-.164-.591 23.117 23.117 0 0 1-.087-4.465 8.906 8.906 0 0 1 .479-1.985 1.624 1.624 0 0 0 .144-.457.775.775 0 0 1 .138-.339 1.952 1.952 0 0 0 .215-.452 3.543 3.543 0 0 1 .367-.687 2.236 2.236 0 0 0 .29-.528 9.409 9.409 0 0 1 .985-1.12 7.279 7.279 0 0 1 3.259-2.167 3.609 3.609 0 0 0 .664-.258 3.166 3.166 0 0 1 .794-.182 3.3 3.3 0 0 0 .746-.159 17.73 17.73 0 0 1 3.352.147" transform="translate(-96.614 -36.856)" style="fill-rule:evenodd;fill:#fff"/>
        <path d="M53.216 16.607a1.184 1.184 0 0 1-.6.1 8.887 8.887 0 0 0-2.224.3 1.524 1.524 0 0 1-.48.154c-.209.039-.379.106-.379.149s-.2.109-.455.147-.454.1-.454.147a1.259 1.259 0 0 1-.556.2c-.305.069-.555.166-.555.217s-.114.12-.253.155-.252.1-.252.134a1.662 1.662 0 0 1-.546.583.687.687 0 0 0-.218.376l-.074.294 1.9-.063a6.6 6.6 0 0 0 1.982-.193 27.081 27.081 0 0 1 5.144-.012 3.347 3.347 0 0 0 .874.237 1.879 1.879 0 0 1 .733.21c0 .046.136.114.3.15s.3.109.3.16.065.093.144.093a.484.484 0 0 1 .283.138 1.069 1.069 0 0 0 .366.21 1.645 1.645 0 0 1 .5.342 2.408 2.408 0 0 0 .559.4 2.5 2.5 0 0 1 .552.378 4.136 4.136 0 0 0 .993.757.989.989 0 0 1 .338.3 1.013 1.013 0 0 0 .334.3.426.426 0 0 1 .212.126 4.627 4.627 0 0 0 .4.328c.153.111.389.3.527.43l.25.227h-.309c-.17 0-.308.042-.308.093s-.181.123-.4.16a1.042 1.042 0 0 0-.456.151 1.036 1.036 0 0 1-.455.151c-.222.037-.4.1-.4.144a1.309 1.309 0 0 1-.556.209 1.306 1.306 0 0 0-.556.21c0 .042-.136.107-.3.144s-.3.1-.3.148-.159.112-.354.148-.354.1-.354.15-.2.139-.448.209a.952.952 0 0 0-.5.266.24.24 0 0 1-.208.14c-.085 0-.155.037-.155.082s-.159.144-.354.221-.354.176-.354.221-.058.082-.129.082a.558.558 0 0 0-.3.2.558.558 0 0 1-.3.2.409.409 0 0 0-.255.2c-.069.111-.176.2-.238.2a1.652 1.652 0 0 0-.5.4 1.879 1.879 0 0 1-.482.4 3.828 3.828 0 0 0-.921.93 1.773 1.773 0 0 1-.328.426c-.693.745-.87.965-.933 1.165-.036.113-.1.206-.147.206s-.142.148-.215.328a1.053 1.053 0 0 1-.265.409.3.3 0 0 0-.132.228c0 .08-.045.147-.1.147s-.1.133-.1.3c0 .361.364.538.559.272.066-.09.155-.164.2-.164a3.63 3.63 0 0 0 .629-.555 3.25 3.25 0 0 1 .643-.556 1.18 1.18 0 0 0 .381-.3 1.159 1.159 0 0 1 .382-.3.56.56 0 0 0 .26-.176 1.836 1.836 0 0 1 .734-.529c.14-.053.256-.14.256-.193s.136-.126.3-.162.3-.109.3-.16.069-.093.155-.093a.243.243 0 0 0 .21-.144 1.046 1.046 0 0 1 .553-.272 1.115 1.115 0 0 0 .5-.2c0-.041.136-.1.3-.14s.3-.1.3-.146a1.44 1.44 0 0 1 .607-.208 1.529 1.529 0 0 0 .606-.2c0-.041.237-.106.528-.144a2 2 0 0 0 .637-.161 3.538 3.538 0 0 1 .938-.159 2.147 2.147 0 0 0 .828-.156c0-.047.213-.086.474-.086a14.781 14.781 0 0 0 2.759-.308 1.373 1.373 0 0 1 .607-.147 1.338 1.338 0 0 0 .605-.143c0-.043.228-.108.505-.145s.505-.1.505-.151a1.488 1.488 0 0 1 .632-.217 2.318 2.318 0 0 0 .765-.267.618.618 0 0 1 .379-.133c.135 0 .245-.038.245-.085s.182-.145.4-.218.4-.168.4-.21.136-.106.3-.143.3-.109.3-.16.069-.093.155-.093a.244.244 0 0 0 .21-.145.547.547 0 0 1 .358-.212.551.551 0 0 0 .356-.208.232.232 0 0 1 .2-.142.238.238 0 0 0 .2-.148.437.437 0 0 1 .255-.21 6.953 6.953 0 0 0 1.71-1.742c.079-.178.173-.324.209-.324s.1-.124.135-.277a.7.7 0 0 1 .171-.34A3.563 3.563 0 0 0 74.543 20c-.064-.343-.665-.59-.665-.274 0 .05-.112.118-.25.153-.235.059-.408.192-1.2.919-.181.166-.509.438-.728.6s-.459.358-.532.429a.479.479 0 0 1-.278.13c-.079 0-.144.044-.144.1s-.273.154-.606.223a1.57 1.57 0 0 0-.607.2c0 .04-.182.1-.4.14s-.4.1-.4.148-.228.109-.505.146-.505.1-.505.148a2.561 2.561 0 0 1-.859.215 2.5 2.5 0 0 0-.859.218c0 .135-1.111.1-1.267-.041-.078-.069-.279-.238-.447-.374s-.307-.3-.307-.354a3.877 3.877 0 0 0-.657-.751 4.769 4.769 0 0 1-.656-.723 12.559 12.559 0 0 0-1.7-1.713 1.856 1.856 0 0 1-.483-.35l-.57-.505a.61.61 0 0 0-.281-.155.214.214 0 0 1-.16-.145.535.535 0 0 0-.35-.21c-.163-.036-.295-.1-.295-.151s-.159-.144-.354-.215-.354-.162-.354-.2-.159-.106-.354-.143-.354-.1-.354-.143-.192-.107-.426-.145a1.061 1.061 0 0 1-.482-.159 5.638 5.638 0 0 0-1.94-.3 1.291 1.291 0 0 1-.637-.1.668.668 0 0 0-.707 0m-16.2 3.671a1.855 1.855 0 0 0 .188.906c.293.321.4.468.4.535a5.071 5.071 0 0 0 .943.951 2.02 2.02 0 0 1 .414.354 1.309 1.309 0 0 0 .491.354c.076 0 .2.113.273.252s.166.253.2.253a5.923 5.923 0 0 1 .984.941.888.888 0 0 1 .227.361.1.1 0 0 0 .094.112 3.549 3.549 0 0 1 .614 1.206.1.1 0 0 0 .092.107c.051 0 .123.182.161.4s.1.4.145.4a9.542 9.542 0 0 1 .31 2.925 15.649 15.649 0 0 1-.31 3.44 1.514 1.514 0 0 0-.137.606c-.037.334-.107.607-.155.607s-.117.273-.156.606a1.393 1.393 0 0 1-.145.607 3.7 3.7 0 0 0-.208 1.01 3.757 3.757 0 0 1-.208 1.01 1.963 1.963 0 0 0-.148.732 2.059 2.059 0 0 1-.178.8 25.43 25.43 0 0 0 0 4.715 2.284 2.284 0 0 1 .179.852 2.142 2.142 0 0 0 .151.783 2.088 2.088 0 0 1 .2.758 2.017 2.017 0 0 0 .2.757c.045 0 .113.2.15.454s.106.455.151.455.113.159.15.354.1.353.143.353.136.228.207.505.167.505.213.505.113.137.15.3.1.3.148.3.111.113.145.252.1.253.155.253.122.139.159.31a.564.564 0 0 0 .2.362.536.536 0 0 1 .2.347c.036.162.1.295.145.295s.137.137.206.3.166.3.214.3.089.069.089.154a.248.248 0 0 0 .151.213.236.236 0 0 1 .151.194.292.292 0 0 0 .128.217.97.97 0 0 1 .251.359c.067.153.168.278.225.278a.119.119 0 0 1 .1.129.56.56 0 0 0 .2.3.557.557 0 0 1 .2.3c0 .071.159.261.354.423a1.228 1.228 0 0 1 .354.388c0 .1 2.575 2.659 3.338 3.323.615.535.49.634-.7.55a3.807 3.807 0 0 1-1.021-.152 1.328 1.328 0 0 0-.534-.154c-.264-.039-.48-.113-.48-.165s-.071-.1-.158-.1a3.5 3.5 0 0 1-1.257-.6c0-.046-.113-.111-.253-.147s-.252-.1-.252-.15-.148-.148-.328-.223a1.761 1.761 0 0 1-.531-.358c-.111-.122-.277-.305-.367-.407s-.395-.4-.675-.665a2.838 2.838 0 0 1-.574-.681c-.035-.111-.107-.2-.16-.2s-.14-.114-.193-.253-.138-.252-.189-.252-.122-.119-.159-.265a1.149 1.149 0 0 0-.188-.4 1.6 1.6 0 0 1-.484-.892c-.064-.255-.154-.463-.2-.463s-.114-.159-.15-.354-.1-.354-.138-.354a1.806 1.806 0 0 1-.2-.657 1.667 1.667 0 0 0-.209-.657c-.043 0-.11-.25-.148-.554a1.579 1.579 0 0 0-.153-.606 2.254 2.254 0 0 1-.155-.759 1.816 1.816 0 0 0-.147-.708 14.864 14.864 0 0 1-.308-2.708c0-.233-.04-.424-.09-.424a5.031 5.031 0 0 1-.163-1.313 5.71 5.71 0 0 0-.151-1.314 4.825 4.825 0 0 1-.151-1.212 5.353 5.353 0 0 0-.144-1.213 8.322 8.322 0 0 1-.2-1.516 7.746 7.746 0 0 0-.209-1.516 2.034 2.034 0 0 1-.148-.758 2.1 2.1 0 0 0-.145-.757 3.381 3.381 0 0 1-.207-.96 3.129 3.129 0 0 0-.213-.96c-.045 0-.112-.25-.15-.556s-.107-.555-.153-.555-.114-.2-.151-.455-.1-.454-.144-.454a1.488 1.488 0 0 1-.2-.606 1.339 1.339 0 0 0-.216-.607c-.048 0-.087-.11-.087-.245a.619.619 0 0 0-.136-.382 1.2 1.2 0 0 1-.206-.509 1.214 1.214 0 0 0-.213-.516 1.036 1.036 0 0 1-.201-.39c-.036-.146-.1-.265-.148-.265s-.112-.137-.149-.3-.1-.3-.139-.3-.13-.159-.2-.353-.17-.354-.223-.354-.094-.07-.094-.155a.249.249 0 0 0-.151-.213.235.235 0 0 1-.151-.194.292.292 0 0 0-.128-.217.963.963 0 0 1-.251-.359c-.067-.153-.169-.278-.225-.278a.109.109 0 0 1-.1-.114 11.936 11.936 0 0 0-1.872-1.9.563.563 0 0 1-.271-.178 1.616 1.616 0 0 0-.843-.531 1.22 1.22 0 0 1-.47-.241 4.419 4.419 0 0 0-2.075.014.189.189 0 0 1-.163.127 2.206 2.206 0 0 0-.784.663 2.778 2.778 0 0 1-.6.853.1.1 0 0 0-.091.112c0 .111-.2.353-.726.879a3.816 3.816 0 0 1-.832.727 1.308 1.308 0 0 0-.342.284 1.806 1.806 0 0 1-.451.35c-.1.036-.174.113-.174.171a.124.124 0 0 1-.136.1.825.825 0 0 0-.372.2 1.383 1.383 0 0 1-.47.263c-.129.033-.234.1-.234.149s-.069.09-.154.09a.244.244 0 0 0-.211.145.518.518 0 0 1-.342.208.519.519 0 0 0-.339.2.549.549 0 0 1-.354.2.546.546 0 0 0-.357.212.244.244 0 0 1-.21.145c-.085 0-.155.035-.155.077s-.148.142-.328.221a2.1 2.1 0 0 0-.442.252 3.3 3.3 0 0 1-.343.259 7.583 7.583 0 0 0-.507.378 1.205 1.205 0 0 1-.355.228 2.31 2.31 0 0 0-.492.441 2.353 2.353 0 0 1-.637.51.5.5 0 0 0-.289.292 1.428 1.428 0 0 1-.359.484.938.938 0 0 0-.29.374.272.272 0 0 1-.127.193 1.22 1.22 0 0 0-.278.384 1.382 1.382 0 0 1-.252.375 5.477 5.477 0 0 0 .021 2.2c.4.486.618.705.7.705a3.446 3.446 0 0 1 .856.653.57.57 0 0 0 .229.155 13.574 13.574 0 0 1 1.582 1.562.906.906 0 0 0 .2.28.742.742 0 0 1 .2.338.229.229 0 0 0 .151.18.249.249 0 0 1 .152.213c0 .085.045.155.1.155s.1.069.1.155a.243.243 0 0 0 .144.21 1.044 1.044 0 0 1 .272.553 1.123 1.123 0 0 0 .2.5c.041 0 .1.136.14.3s.106.3.153.3.118.2.155.454.1.455.144.455a1.488 1.488 0 0 1 .2.606 1.468 1.468 0 0 0 .206.606 1.357 1.357 0 0 1 .148.607 1.369 1.369 0 0 0 .147.606 4 4 0 0 1 .207 1.061 3.929 3.929 0 0 0 .208 1.061 2.034 2.034 0 0 1 .149.759 2.625 2.625 0 0 0 .15.808 2.357 2.357 0 0 1 .15.756 1.839 1.839 0 0 0 .146.708 2.542 2.542 0 0 1 .192.827 3.067 3.067 0 0 0 .2.884 1.3 1.3 0 0 1 .157.536c.039.264.11.48.157.48s.117.182.154.4.11.4.16.4.092.076.092.17c0 .235.227.841.316.841.04 0 .1.136.139.3s.1.3.143.3.13.177.194.392a1.34 1.34 0 0 0 .269.518.418.418 0 0 1 .151.264c0 .077.047.139.1.139s.134.078.171.174a1.792 1.792 0 0 0 .35.451 1.089 1.089 0 0 1 .284.371 6.578 6.578 0 0 0 1.258 1.278 6.159 6.159 0 0 1 .564.48 1.054 1.054 0 0 0 .392.278c.059 0 .165.091.234.2s.176.2.238.2c.1 0 .2.073.7.489a2.14 2.14 0 0 0 .48.212c.205.068.374.161.374.208s.136.115.3.152.3.1.3.147.2.137.454.207.455.163.455.206.182.11.4.148.4.106.4.152.148.116.328.154a1.5 1.5 0 0 1 .43.149 4.006 4.006 0 0 0 .834.213 2.287 2.287 0 0 1 .732.2 1.892 1.892 0 0 0 .682.14 2.132 2.132 0 0 1 .735.158 5.28 5.28 0 0 0 1.241.156 5.222 5.222 0 0 1 1.241.157 64 64 0 0 0 6.726-.007 14.513 14.513 0 0 1 2.509-.139c0 .068-2.037 2.051-2.106 2.051a.634.634 0 0 0-.268.2.629.629 0 0 1-.273.2.811.811 0 0 0-.313.229 2.29 2.29 0 0 1-.526.379 1.2 1.2 0 0 0-.384.277.3.3 0 0 1-.227.126c-.081 0-.147.042-.147.093s-.14.124-.31.161a.564.564 0 0 0-.362.2.538.538 0 0 1-.347.2c-.162.035-.295.1-.295.153s-.159.118-.353.155-.354.1-.354.147-.228.139-.505.21a1.154 1.154 0 0 0-.505.2c0 .04-.182.1-.4.141s-.4.1-.4.149-.216.113-.48.153a1.293 1.293 0 0 0-.533.157 4.781 4.781 0 0 1-1.136.214 4 4 0 0 0-1.084.208 14.354 14.354 0 0 1-2.122.079 14.354 14.354 0 0 1-2.121-.079 4 4 0 0 0-1.084-.208 4.564 4.564 0 0 1-1.139-.219 1.153 1.153 0 0 0-.506-.163 1.39 1.39 0 0 1-.586-.207.617.617 0 0 0-.38-.134c-.135 0-.245-.037-.245-.082s-.228-.14-.505-.212-.505-.17-.505-.219-.113-.118-.253-.153-.252-.1-.252-.145-.137-.112-.3-.149-.3-.1-.3-.151-.139-.116-.31-.153a.563.563 0 0 1-.365-.21c-.03-.078-.093-.142-.14-.142a5.348 5.348 0 0 1-1.05-.657.784.784 0 0 0-.3-.156.943.943 0 0 1-.354-.3.98.98 0 0 0-.334-.3 25.986 25.986 0 0 1-2.6-2.629c0-.058-.067-.131-.148-.162a.444.444 0 0 1-.212-.259 1.224 1.224 0 0 0-.231-.383 2.365 2.365 0 0 1-.521-.737.48.48 0 0 0-.126-.229 1.716 1.716 0 0 1-.473-.785c-.068-.205-.161-.374-.209-.374s-.115-.136-.151-.3-.1-.3-.144-.3-.129-.176-.194-.392a1.33 1.33 0 0 0-.268-.517.4.4 0 0 1-.151-.219c0-.08-.216-.3-.678-.688a1.247 1.247 0 0 0-1.123.068 3.749 3.749 0 0 0-.005 2.18 27.14 27.14 0 0 1 .023 5.13 2.426 2.426 0 0 0-.175.873 3.6 3.6 0 0 1-.156.91 3.9 3.9 0 0 0-.21.887 2.3 2.3 0 0 1-.2.783c-.041 0-.106.2-.144.454s-.111.454-.163.454-.095.071-.095.158a2.221 2.221 0 0 1-.2.585 5.29 5.29 0 0 0-.263.7c-.038.151-.1.274-.148.274s-.109.159-.145.354-.106.354-.155.354-.119.139-.156.31a.564.564 0 0 1-.2.362.536.536 0 0 0-.2.347c-.035.163-.106.295-.158.295s-.093.066-.093.147a.3.3 0 0 1-.127.228 1.213 1.213 0 0 0-.278.384 3.286 3.286 0 0 1-.588.859c-.361.438-.56.806-.478.887a3.321 3.321 0 0 0 1.451-.277.175.175 0 0 1 .158-.106 6.728 6.728 0 0 0 1.78-1.6.557.557 0 0 1 .177-.239 15.73 15.73 0 0 0 1.143-1.278c.138-.175.309-.319.38-.319a.557.557 0 0 0 .3-.2.559.559 0 0 1 .291-.2.216.216 0 0 0 .173-.142.561.561 0 0 1 .365-.21c.17-.037.31-.106.31-.153s.137-.115.3-.152.3-.1.3-.15.182-.115.4-.153.4-.1.4-.147c0-.371 6.128-.374 6.365 0a2.256 2.256 0 0 0 .733.152 1.659 1.659 0 0 1 .682.15c0 .042.25.109.555.147s.556.106.556.15a3.136 3.136 0 0 0 .96.208 3.243 3.243 0 0 1 .96.2 1.892 1.892 0 0 0 .732.151 2 2 0 0 1 .8.185 26.563 26.563 0 0 0 5.01 0 1.807 1.807 0 0 1 .754-.185 1.831 1.831 0 0 0 .682-.142 1.939 1.939 0 0 1 .679-.2 2.409 2.409 0 0 0 .733-.213 1.144 1.144 0 0 1 .483-.155c.236-.04.43-.111.43-.159s.159-.118.354-.154.354-.1.354-.143.2-.134.454-.2.454-.166.454-.213.114-.115.253-.149.252-.1.252-.145.139-.113.31-.15a.561.561 0 0 0 .362-.2.536.536 0 0 1 .347-.2c.162-.035.294-.106.294-.158s.066-.093.147-.093a.3.3 0 0 0 .228-.126 1.2 1.2 0 0 1 .384-.278 2.3 2.3 0 0 0 .437-.278.471.471 0 0 1 .267-.126.235.235 0 0 0 .192-.151c.032-.084.105-.151.163-.151a.691.691 0 0 0 .306-.2.671.671 0 0 1 .337-.2c.074 0 .193-.11.266-.245a.677.677 0 0 1 .367-.3.61.61 0 0 0 .344-.26c.059-.111.154-.2.21-.2a1.537 1.537 0 0 0 .467-.354 1.736 1.736 0 0 1 .447-.354 3.964 3.964 0 0 0 .678-.606 4.378 4.378 0 0 1 .669-.607 14.846 14.846 0 0 0 1.243-1.182l1.181-1.199-.067.8a2.967 2.967 0 0 1-.145.853 2.206 2.206 0 0 0-.2.656 1.844 1.844 0 0 1-.217.658.7.7 0 0 0-.164.335c-.039.152-.107.277-.152.277s-.138.168-.205.374a1.985 1.985 0 0 1-.625.949 1.274 1.274 0 0 0-.278.385 15.365 15.365 0 0 1-2.2 2.174.455.455 0 0 0-.264.214.239.239 0 0 1-.2.148.242.242 0 0 0-.2.151.238.238 0 0 1-.2.151c-.122 0-.251.086-.742.5a1.177 1.177 0 0 1-.379.165c-.144.036-.261.1-.261.151s-.182.14-.4.207-.4.156-.4.2-.136.107-.3.143-.3.1-.3.15-.228.137-.506.2a1.6 1.6 0 0 0-.558.207 1.17 1.17 0 0 1-.5.153c-.249.037-.452.107-.452.154s-.228.116-.505.153-.505.1-.505.14a4.166 4.166 0 0 1-1.061.2 4.05 4.05 0 0 0-1.06.206 3.573 3.573 0 0 1-1.01.148 3.329 3.329 0 0 0-1.01.153 6.433 6.433 0 0 1-1.434.156 7.4 7.4 0 0 0-1.415.142 20.337 20.337 0 0 1-2.348.2 19.947 19.947 0 0 0-2.4.208 4.092 4.092 0 0 1-1.036.152 3.53 3.53 0 0 0-.985.145 4.158 4.158 0 0 1-1.06.207 3.692 3.692 0 0 0-1.061.218c0 .046-.228.113-.505.15s-.505.1-.505.149-.2.113-.454.15-.455.1-.455.142a1.327 1.327 0 0 1-.555.2c-.306.068-.556.165-.556.214s-.159.119-.354.155-.354.1-.354.148-.137.112-.3.148-.3.1-.3.143-.182.137-.4.21-.4.169-.4.212-.1.109-.219.148a1.72 1.72 0 0 0-.7.474.83.83 0 0 1-.25.177 4.22 4.22 0 0 0-.972.733 1.364 1.364 0 0 1-.342.278 4.31 4.31 0 0 0-.953.951 1.04 1.04 0 0 1-.291.354 1.437 1.437 0 0 0-.361.489c-.039.125-.113.228-.165.228s-.094.07-.094.155a.244.244 0 0 1-.145.21.533.533 0 0 0-.21.35c-.036.162-.1.295-.138.295s-.133.171-.208.379a1.229 1.229 0 0 1-.241.447 3.622 3.622 0 0 0 .033 1.936 4.786 4.786 0 0 0 1.1 1.077.228.228 0 0 1 .18.152.231.231 0 0 0 .183.151 1.59 1.59 0 0 1 .52.356c.217.2.608.549.87.783a2.51 2.51 0 0 1 .48.508 1.564 1.564 0 0 0 .307.4 1.967 1.967 0 0 1 .361.5c.031.1.1.176.151.176s.094.066.094.147a.3.3 0 0 0 .127.228 1.213 1.213 0 0 1 .278.384 3 3 0 0 0 .252.426l.215.261a1.291 1.291 0 0 1 .183.357c.039.121.107.22.153.22s.111.11.145.245a1 1 0 0 0 .189.379 2.024 2.024 0 0 1 .257.386c.32.621.44.808.519.808.046 0 .114.117.15.261a1.224 1.224 0 0 0 .314.491.79.79 0 0 1 .248.344c0 .062.091.171.2.24s.2.18.2.246a6.911 6.911 0 0 0 1.579 1.549c.076 0 .138.047.138.1s.079.134.177.171a1.208 1.208 0 0 1 .3.174c.067.059.189.162.27.23a3.189 3.189 0 0 0 1.766.315 1.994 1.994 0 0 0 1.674-1.205c.033-.1.1-.188.154-.188s.095-.067.095-.148a.366.366 0 0 1 .2-.256.366.366 0 0 0 .2-.256c0-.082.038-.148.084-.148s.142-.109.213-.241a1.04 1.04 0 0 1 .359-.365 1.039 1.039 0 0 0 .359-.363.691.691 0 0 1 .324-.3 1.2 1.2 0 0 0 .376-.229 1.9 1.9 0 0 1 .781-.521c.072 0 .131-.036.131-.08s.159-.138.354-.209.353-.168.353-.218.159-.12.354-.156.354-.1.354-.148.137-.111.3-.148.3-.1.3-.146a1.448 1.448 0 0 1 .606-.208 1.488 1.488 0 0 0 .606-.2c0-.042.2-.106.455-.144s.454-.106.454-.152.25-.115.556-.153.556-.106.556-.15a4.144 4.144 0 0 1 1.111-.213 4.46 4.46 0 0 0 1.111-.207 2.085 2.085 0 0 1 .758-.146 2.11 2.11 0 0 0 .757-.145 4.1 4.1 0 0 1 1.061-.205 3.979 3.979 0 0 0 1.061-.207 1.378 1.378 0 0 1 .606-.147c.333-.039.607-.11.607-.158s.227-.118.505-.155.505-.1.505-.139a1.366 1.366 0 0 1 .555-.205 1.247 1.247 0 0 0 .556-.214c0-.044.159-.11.354-.147s.354-.1.354-.148.133-.111.295-.146a.534.534 0 0 0 .347-.2.549.549 0 0 1 .354-.2.547.547 0 0 0 .358-.212.242.242 0 0 1 .21-.145c.085 0 .155-.045.155-.1s.115-.128.255-.163a.624.624 0 0 0 .357-.255c.056-.105.149-.191.206-.191a13.025 13.025 0 0 0 1.81-1.791.975.975 0 0 1 .253-.316.791.791 0 0 0 .251-.379c0-.077.047-.141.1-.141s.134-.079.171-.177a1.194 1.194 0 0 1 .174-.3 1.855 1.855 0 0 0 .477-.738c.057-.166.141-.3.185-.3s.109-.113.143-.252.106-.253.158-.253.125-.159.161-.354.1-.353.14-.353.128-.182.2-.4.16-.4.207-.4.116-.2.154-.454.106-.454.152-.454a1.57 1.57 0 0 0 .214-.657 1.691 1.691 0 0 1 .208-.657 1.348 1.348 0 0 0 .146-.606 1.372 1.372 0 0 1 .145-.606 2.19 2.19 0 0 0 .149-.783 2.667 2.667 0 0 1 .159-.854 52.76 52.76 0 0 0 .207-7.973c-.059-1.635-.091-2.989-.072-3.008a9.285 9.285 0 0 1 1.478 1.491 1.32 1.32 0 0 0 .354.426 1.408 1.408 0 0 1 .354.415.772.772 0 0 0 .228.3 2.2 2.2 0 0 1 .378.517 1.2 1.2 0 0 0 .278.383.3.3 0 0 1 .126.228c0 .08.036.147.081.147s.138.159.208.354.167.354.214.354.117.136.153.3.105.3.151.3.115.137.152.3.1.3.15.3.137.227.2.505.157.505.2.505.11.159.146.354.107.354.156.354.122.216.161.48a1.305 1.305 0 0 0 .155.535 3.014 3.014 0 0 1 .2.859 2.97 2.97 0 0 0 .2.86 6.808 6.808 0 0 1 .153 1.44 5.816 5.816 0 0 0 .152 1.383c.047 0 .085.2.085.454s-.039.454-.086.454a4.564 4.564 0 0 0-.147 1.222 6.131 6.131 0 0 1-.155 1.339 4.427 4.427 0 0 0-.223 1 2.854 2.854 0 0 1-.205.884c-.042 0-.106.182-.144.4s-.108.4-.156.4-.118.159-.154.354-.1.354-.143.354-.134.2-.2.454-.163.455-.207.455-.11.136-.147.3-.107.3-.158.3-.12.113-.154.253-.1.252-.143.252-.105.105-.138.234a1.413 1.413 0 0 1-.263.47.819.819 0 0 0-.2.372.124.124 0 0 1-.1.136c-.057 0-.147.113-.2.252s-.143.253-.2.253-.1.067-.1.149a1.126 1.126 0 0 1-.354.47 1.391 1.391 0 0 0-.353.413 20.685 20.685 0 0 1-2.312 2.3.975.975 0 0 0-.35.3 1.023 1.023 0 0 1-.342.3 2.381 2.381 0 0 0-.744.528 1.183 1.183 0 0 1-.436.236.47.47 0 0 0-.3.2.565.565 0 0 1-.361.2c-.171.037-.31.11-.31.161s-.069.093-.155.093a.247.247 0 0 0-.212.149.6.6 0 0 1-.4.214c-.19.035-.344.1-.344.145s-.228.138-.505.21-.505.164-.505.207-.159.107-.354.144-.354.107-.354.156-.114.09-.253.09c-.265 0-.322.128-.15.333.744.885.691.875 4.624.851a18.081 18.081 0 0 1 3.335.09 2.33 2.33 0 0 0 .878.183 2.958 2.958 0 0 1 .859.151 1.413 1.413 0 0 0 .548.145 1.987 1.987 0 0 1 .606.152 3.283 3.283 0 0 0 .743.215 1.6 1.6 0 0 1 .631.206c0 .042.2.106.454.144s.454.106.454.153.228.139.505.206.505.158.505.2.137.113.3.15.3.107.3.158.113.12.252.154.253.1.253.14.2.133.448.2a.956.956 0 0 1 .5.266.239.239 0 0 0 .208.14c.085 0 .155.046.155.1s.069.1.155.1a.249.249 0 0 1 .213.151.228.228 0 0 0 .18.151.739.739 0 0 1 .338.2.768.768 0 0 0 .317.2.269.269 0 0 1 .181.143c.22.391.636.3.636-.132 0-.229-.045-.415-.1-.415s-.1-.089-.1-.2c0-.25-.207-.712-.319-.712-.047 0-.085-.051-.085-.113a14.4 14.4 0 0 0-1.865-1.907 11.507 11.507 0 0 1-1.671-1.705.108.108 0 0 0-.1-.114c-.055 0-.127-.11-.161-.245a.465.465 0 0 0-.194-.3.564.564 0 0 1-.2-.361c-.037-.17-.106-.31-.152-.31s-.115-.182-.153-.4-.107-.4-.154-.4-.117-.216-.156-.48a1.159 1.159 0 0 0-.183-.552 22.574 22.574 0 0 1 0-4.605 2 2 0 0 0 .186-.8 1.807 1.807 0 0 1 .155-.732 1.469 1.469 0 0 0 .153-.657 1.638 1.638 0 0 1 .143-.657 2.821 2.821 0 0 0 .207-.859 2.834 2.834 0 0 1 .207-.859 1.764 1.764 0 0 0 .146-.682 2.279 2.279 0 0 1 .151-.733c.372-.237.374-6.829 0-7.072a1.574 1.574 0 0 1-.15-.581c-.04-.291-.105-.53-.146-.53a1.587 1.587 0 0 1-.19-.624 2 2 0 0 0-.207-.682.831.831 0 0 1-.163-.386c-.039-.181-.108-.328-.153-.328s-.112-.159-.148-.354-.1-.354-.149-.354-.141-.2-.211-.455-.167-.454-.215-.454-.088-.065-.088-.144a.484.484 0 0 0-.138-.283 1.124 1.124 0 0 1-.216-.386 1.891 1.891 0 0 0-.266-.489.94.94 0 0 1-.188-.333.431.431 0 0 0-.1-.214c-.412-.488-.5-.624-.5-.746a.237.237 0 0 0-.151-.2.227.227 0 0 1-.151-.176.561.561 0 0 0-.2-.291.56.56 0 0 1-.2-.315.24.24 0 0 0-.152-.2.235.235 0 0 1-.151-.192.837.837 0 0 0-.3-.382.926.926 0 0 1-.3-.359 1.588 1.588 0 0 0-.358-.475 2.014 2.014 0 0 1-.354-.429c0-.035-.841-.9-1.869-1.928s-1.869-1.885-1.869-1.911a3.1 3.1 0 0 1 .758-.047 1.733 1.733 0 0 1 .757.087c0 .048.253.113.563.145a2.015 2.015 0 0 1 .682.157 1.5 1.5 0 0 0 .5.169c.208.039.379.107.379.153s.133.111.295.147a1.4 1.4 0 0 1 .521.261.785.785 0 0 0 .351.2.23.23 0 0 1 .183.152.249.249 0 0 0 .213.151c.085 0 .155.046.155.1s.117.157.261.222a9.245 9.245 0 0 1 1.744 1.7 1.335 1.335 0 0 0 .291.333.287.287 0 0 1 .128.212.594.594 0 0 0 .2.314.593.593 0 0 1 .2.318c0 .075.045.136.1.136s.1.066.1.147a.3.3 0 0 0 .137.228 1.1 1.1 0 0 1 .268.482 1.737 1.737 0 0 0 .267.538.476.476 0 0 1 .137.28c0 .079.044.144.1.144s.126.159.163.354.1.354.143.354a2.164 2.164 0 0 1 .211.758 2.326 2.326 0 0 0 .206.757 1.143 1.143 0 0 1 .144.531 1.539 1.539 0 0 0 .153.582 7.684 7.684 0 0 1 .211 1.439 7.192 7.192 0 0 0 .2 1.389 10.741 10.741 0 0 1 .143 1.718 10.319 10.319 0 0 0 .147 1.717 11.08 11.08 0 0 1 .147 1.793 12.792 12.792 0 0 0 .147 1.844 8.142 8.142 0 0 1 .2 1.416 7.592 7.592 0 0 0 .209 1.414 2.014 2.014 0 0 1 .151.682 1.451 1.451 0 0 0 .15.631c.043 0 .107.219.143.486a6.547 6.547 0 0 0 .266 1.058 3.945 3.945 0 0 1 .2.726c0 .085.04.154.089.154s.12.2.158.454.106.455.153.455.139.227.206.505.157.505.2.505.11.159.146.354.107.353.158.353.122.159.158.354.1.354.14.354.128.182.194.4.161.4.21.4.118.136.155.3.105.3.153.3.144.159.214.354.164.354.208.354.081.061.081.136a.809.809 0 0 0 .2.369.806.806 0 0 1 .2.369c0 .075.04.136.089.136s.145.136.214.3.165.3.214.3.089.066.089.147a.3.3 0 0 0 .127.228 1.206 1.206 0 0 1 .278.379 11.206 11.206 0 0 0 1.945 2c.1.037.177.111.177.164s.137.126.3.163.3.1.3.148c0 .407 2.47.377 2.883-.035a.545.545 0 0 1 .262-.163 2.114 2.114 0 0 0 .695-.726 1.4 1.4 0 0 1 .278-.382c.153-.169.437-.491.631-.716a10.16 10.16 0 0 1 1.182-1.188c.644-.562.865-.726.982-.726.062 0 .169-.091.238-.2a.415.415 0 0 1 .277-.2c.083 0 .151-.046.151-.1s.061-.1.136-.1c.12 0 .248-.087.739-.5a1.189 1.189 0 0 1 .387-.166.511.511 0 0 0 .32-.2.52.52 0 0 1 .337-.2.519.519 0 0 0 .342-.208.244.244 0 0 1 .21-.145c.085 0 .155-.037.155-.082s.158-.144.349-.219a.838.838 0 0 0 .4-.272.235.235 0 0 1 .207-.134c.085 0 .155-.04.155-.089s.136-.145.3-.214.3-.165.3-.214.059-.089.131-.089a.841.841 0 0 0 .379-.3.929.929 0 0 1 .359-.3 2.382 2.382 0 0 0 .849-.834.936.936 0 0 1 .286-.374 2.071 2.071 0 0 0 .429-.59c.078-.181.172-.328.21-.328s.1-.148.139-.328a.794.794 0 0 1 .185-.4 2.89 2.89 0 0 0-.013-1.67.191.191 0 0 1-.128-.16.834.834 0 0 0-.253-.356.932.932 0 0 1-.251-.318c0-.044-.136-.128-.3-.186s-.3-.154-.3-.212-.07-.106-.155-.106a.249.249 0 0 1-.213-.151.241.241 0 0 0-.2-.152 1.243 1.243 0 0 1-.486-.354 1.478 1.478 0 0 0-.439-.354c-.052 0-.181-.121-.286-.27a6.409 6.409 0 0 0-.494-.586 3.21 3.21 0 0 1-.426-.561 3.046 3.046 0 0 0-.253-.42 25.727 25.727 0 0 0-.223-.269 1.235 1.235 0 0 1-.188-.408c-.036-.144-.1-.261-.142-.261s-.134-.2-.2-.454-.162-.455-.2-.455-.107-.159-.143-.353-.1-.354-.149-.354a1.4 1.4 0 0 1-.212-.609 2.139 2.139 0 0 0-.209-.658 1.608 1.608 0 0 1-.149-.6c-.038-.3-.106-.554-.15-.554a1.482 1.482 0 0 1-.152-.657 1.542 1.542 0 0 0-.149-.657 4.952 4.952 0 0 1-.209-1.213 5.314 5.314 0 0 0-.2-1.213 2.11 2.11 0 0 1-.16-.765 1.945 1.945 0 0 0-.152-.758 1.5 1.5 0 0 1-.151-.657 1.676 1.676 0 0 0-.142-.657 2.394 2.394 0 0 1-.192-.778 2.725 2.725 0 0 0-.211-.834.939.939 0 0 1-.161-.434c-.039-.208-.106-.379-.15-.379s-.106-.136-.14-.3l-.124-.606c-.034-.167-.1-.3-.141-.3s-.107-.113-.142-.252-.1-.253-.155-.253-.121-.136-.158-.3-.1-.3-.147-.3-.137-.137-.207-.3-.165-.3-.214-.3-.089-.07-.089-.155a.249.249 0 0 0-.151-.213.227.227 0 0 1-.151-.176.538.538 0 0 0-.177-.283 3.413 3.413 0 0 1-.631-.727 3.232 3.232 0 0 0-.924-.857 1.078 1.078 0 0 1-.392-.371.663.663 0 0 0-.365-.294c-.132-.033-.24-.106-.24-.161s-.113-.145-.253-.2-.252-.138-.252-.189-.113-.121-.253-.156-.252-.1-.252-.154-.159-.144-.354-.208-.354-.154-.354-.2-.113-.111-.252-.145-.253-.1-.253-.155-.137-.121-.3-.158-.3-.1-.3-.149-.228-.138-.505-.2-.505-.159-.505-.206-.2-.115-.455-.153-.454-.1-.454-.144a1.507 1.507 0 0 0-.606-.2 1.459 1.459 0 0 1-.607-.206 1.467 1.467 0 0 0-.631-.15 1.916 1.916 0 0 1-.685-.157 2.891 2.891 0 0 0-.884-.154 2.56 2.56 0 0 1-.83-.141c0-.2-5.99-.289-9.28-.14l-1.55.069.894-.9a13.571 13.571 0 0 1 1.242-1.159 1.891 1.891 0 0 0 .434-.38.3.3 0 0 1 .228-.139c.08 0 .147-.047.147-.1s.113-.147.252-.2.253-.143.253-.2.065-.1.144-.1a.484.484 0 0 0 .283-.138 1.055 1.055 0 0 1 .361-.209c.122-.039.223-.11.223-.157s.169-.142.376-.21a1.652 1.652 0 0 0 .513-.261.478.478 0 0 1 .28-.136c.079 0 .144-.041.144-.092s.228-.15.505-.221.505-.164.505-.207.159-.107.354-.143.354-.1.354-.15.2-.114.454-.152.454-.1.454-.145a2.538 2.538 0 0 1 .834-.205 3.239 3.239 0 0 0 .889-.213 4.213 4.213 0 0 1 1.086-.152 3.263 3.263 0 0 0 1.031-.153 8.593 8.593 0 0 1 2.424 0 2.971 2.971 0 0 0 .978.15 3.9 3.9 0 0 1 1.036.148 3.112 3.112 0 0 0 .861.205 2.762 2.762 0 0 1 .862.216 1.049 1.049 0 0 0 .485.163c.235.037.426.1.426.145s.159.106.354.143.354.1.354.153.227.141.505.208.505.162.505.212.065.091.144.091a.475.475 0 0 1 .278.129 4.528 4.528 0 0 0 .715.42 1.81 1.81 0 0 1 .581.376c0 .047.066.085.147.085a.3.3 0 0 1 .227.126 1.189 1.189 0 0 0 .384.276 2.358 2.358 0 0 1 .565.429 1.112 1.112 0 0 0 .337.28 3.783 3.783 0 0 1 .636.556 3.417 3.417 0 0 0 .648.556 1.041 1.041 0 0 1 .492.489 1.323 1.323 0 0 0 .328.391c.42.392.682.713.682.835 0 .053.09.145.2.2a.62.62 0 0 1 .262.35.464.464 0 0 0 .2.3.233.233 0 0 1 .142.2.242.242 0 0 0 .152.2.249.249 0 0 1 .152.213c0 .085.042.155.094.155s.152.159.223.354.164.354.209.354.08.069.08.155a.241.241 0 0 0 .143.209.506.506 0 0 1 .209.322 5.309 5.309 0 0 0 .262.694 2.513 2.513 0 0 1 .194.534.1.1 0 0 0 .1.107.118.118 0 0 1 .1.129.52.52 0 0 0 .177.289 3.979 3.979 0 0 1 .353.376c.327.4 1.289.22 1.289-.246 0-.079.046-.144.1-.144.151 0 .127-1.086-.025-1.136a39.021 39.021 0 0 1-.02-6.217 4.012 4.012 0 0 0 .236-1.132 4.694 4.694 0 0 1 .212-1.111 1.3 1.3 0 0 0 .155-.532c.04-.264.109-.48.153-.48s.112-.182.149-.4.1-.4.149-.4.106-.125.137-.278c.131-.652.209-.889.337-1.016a.476.476 0 0 0 .135-.28c0-.079.046-.144.1-.144s.1-.11.1-.245a.619.619 0 0 1 .136-.382 1.643 1.643 0 0 0 .261-.512c.068-.207.165-.376.215-.376s.12-.113.155-.252.093-.253.129-.253.131-.148.21-.328a1.922 1.922 0 0 1 .278-.462.465.465 0 0 0 .132-.267.235.235 0 0 1 .152-.192c.083-.032.151-.105.151-.163a.691.691 0 0 1 .2-.306c.353-.352.268-.606-.2-.606-.222 0-.4.04-.4.09s-.15.118-.334.153a1.576 1.576 0 0 0-.565.239 10.194 10.194 0 0 0-1.425 1.412.98.98 0 0 1-.3.334.934.934 0 0 0-.3.359 7.13 7.13 0 0 1-2.01 1.859c-.052 0-.119.064-.149.142a.563.563 0 0 1-.365.21c-.17.037-.31.1-.31.15s-.159.111-.354.148-.354.1-.354.143a5.871 5.871 0 0 1-1.815.319.749.749 0 0 0-.459.1 6.134 6.134 0 0 1-2.148.009 8.536 8.536 0 0 0-1.388-.212 6.142 6.142 0 0 1-1.263-.2 1.785 1.785 0 0 0-.63-.149 1.749 1.749 0 0 1-.628-.15 3.832 3.832 0 0 0-.961-.209 3.107 3.107 0 0 1-.913-.205 1.725 1.725 0 0 0-.682-.148 2.1 2.1 0 0 1-.737-.16 4.738 4.738 0 0 0-1.187-.156 3.921 3.921 0 0 1-1.133-.155 8.593 8.593 0 0 0-2.424 0 3.263 3.263 0 0 1-1.031.153 4.074 4.074 0 0 0-1.086.155 1.884 1.884 0 0 1-.687.16 1.386 1.386 0 0 0-.631.154 1.784 1.784 0 0 1-.707.2 1.808 1.808 0 0 0-.707.2c0 .044-.159.11-.353.147s-.354.11-.354.163-.08.1-.177.1a4.42 4.42 0 0 0-1.541.619c0 .039-.137.1-.3.138s-.3.1-.3.151-.139.116-.31.153a.56.56 0 0 0-.362.2.538.538 0 0 1-.347.2c-.162.035-.295.106-.295.158s-.066.093-.147.093a.3.3 0 0 0-.227.126 1.211 1.211 0 0 1-.384.278 2.85 2.85 0 0 0-.748.507.86.86 0 0 1-.375.2c-.073 0-.181.091-.241.2s-.156.2-.214.2a1.176 1.176 0 0 0-.408.3 1.272 1.272 0 0 1-.391.3 2.8 2.8 0 0 0-.585.505 3.247 3.247 0 0 1-.569.505 12.382 12.382 0 0 0-1.572 1.571 3.19 3.19 0 0 1-.505.57 2.955 2.955 0 0 0-.505.578 1.861 1.861 0 0 1-.551.615 5.661 5.661 0 0 1-.056-1.112 3.453 3.453 0 0 1 .088-1.11c.05 0 .123-.228.161-.505a1.063 1.063 0 0 1 .14-.505c.039 0 .127-.209.2-.464a2.007 2.007 0 0 1 .248-.6 1.549 1.549 0 0 0 .43-.658.84.84 0 0 1 .265-.377c.1-.073.187-.175.187-.228a15.8 15.8 0 0 1 1.877-1.914.874.874 0 0 0 .287-.235 1.971 1.971 0 0 1 .542-.378c.178-.079.324-.178.324-.22s.061-.077.136-.077a.783.783 0 0 0 .362-.2 1.4 1.4 0 0 1 .521-.261c.163-.036.3-.1.3-.147s.159-.112.353-.148.354-.107.354-.156.2-.121.455-.159.454-.106.454-.151a2.006 2.006 0 0 1 .757-.21 2.245 2.245 0 0 0 .758-.2 1.623 1.623 0 0 1 .657-.144 1.542 1.542 0 0 0 .657-.149 3.449 3.449 0 0 1 1.01-.15 3.579 3.579 0 0 0 1.01-.148 16.585 16.585 0 0 1 2.223-.205 17.592 17.592 0 0 0 2.223-.2 5.092 5.092 0 0 1 1.187-.143A4.358 4.358 0 0 0 71.84 46c.019-.052.2-.1.4-.1a7.933 7.933 0 0 0 .977-.1c.333-.053.754-.109.934-.122s.328-.058.328-.1a1.4 1.4 0 0 1 .606-.143 1.337 1.337 0 0 0 .615-.135 1.342 1.342 0 0 1 .606-.148 1.292 1.292 0 0 0 .603-.152 1.785 1.785 0 0 1 .707-.2 1.775 1.775 0 0 0 .707-.2c0-.046.182-.114.4-.151s.4-.1.4-.142a1.757 1.757 0 0 1 .657-.2 1.672 1.672 0 0 0 .657-.209c0-.044.159-.109.354-.145s.354-.11.354-.163.11-.1.245-.1a.622.622 0 0 0 .379-.131 2.247 2.247 0 0 1 .715-.269 1.392 1.392 0 0 0 .581-.215c0-.042.137-.106.3-.143s.3-.107.3-.158.113-.12.252-.155.253-.1.253-.14.2-.134.454-.2.454-.167.454-.215.061-.088.136-.088a.806.806 0 0 0 .369-.2.809.809 0 0 1 .372-.2.238.238 0 0 0 .2-.151.242.242 0 0 1 .2-.151.242.242 0 0 0 .2-.152.232.232 0 0 1 .187-.151 9 9 0 0 0 1.82-1.819c.036-.111.1-.2.152-.2s.145-.159.216-.354.159-.354.2-.354.1-.156.134-.347.112-.362.17-.381a3.189 3.189 0 0 0 0-1.675.2.2 0 0 1-.116-.177.293.293 0 0 0-.126-.219 1.144 1.144 0 0 1-.27-.359c-.079-.153-.2-.278-.265-.278a2.253 2.253 0 0 1-.614-.5 3.043 3.043 0 0 0-.573-.505A7.123 7.123 0 0 1 86.2 32.3a.587.587 0 0 0-.2-.263.558.558 0 0 1-.2-.3.408.408 0 0 0-.2-.255.415.415 0 0 1-.2-.277c0-.083-.042-.151-.094-.151s-.126-.1-.165-.223a1.162 1.162 0 0 0-.183-.35 2.185 2.185 0 0 1-.472-.715c-.08-.181-.18-.328-.222-.328s-.076-.062-.076-.138a.9.9 0 0 0-.2-.387 1.657 1.657 0 0 1-.262-.511.5.5 0 0 0-.208-.317.242.242 0 0 1-.143-.209c0-.085-.045-.155-.1-.155s-.1-.07-.1-.155a.241.241 0 0 0-.143-.209.429.429 0 0 1-.2-.275 2.859 2.859 0 0 0-.746-1.059 1.492 1.492 0 0 1-.328-.454 8.209 8.209 0 0 0-1.675-1.587 1.218 1.218 0 0 1-.376-.278.3.3 0 0 0-.228-.127c-.08 0-.147-.038-.147-.085s-.193-.143-.429-.213a1.3 1.3 0 0 1-.493-.229 2.765 2.765 0 0 0-1.724.062.322.322 0 0 1-.241.163.264.264 0 0 0-.214.177 1.527 1.527 0 0 1-.337.43 1.4 1.4 0 0 0-.34.47.469.469 0 0 1-.215.274c-.081.031-.148.1-.148.155a11.309 11.309 0 0 1-1.563 1.626 1.659 1.659 0 0 0-.388.3 1.958 1.958 0 0 1-.5.361c-.1.031-.177.1-.177.151s-.066.094-.147.094a.3.3 0 0 0-.227.137 1.117 1.117 0 0 1-.482.268 1.738 1.738 0 0 0-.538.267.479.479 0 0 1-.281.136c-.079 0-.144.042-.144.093s-.136.123-.3.16-.3.1-.3.149a1.608 1.608 0 0 1-.657.213 1.762 1.762 0 0 0-.657.2c0 .04-.228.1-.505.143s-.505.1-.505.146a3.992 3.992 0 0 1-1.061.208 3.856 3.856 0 0 0-1.061.209 2.823 2.823 0 0 1-.91.149 2.884 2.884 0 0 0-.909.148 2.609 2.609 0 0 1-.859.148 2.76 2.76 0 0 0-.859.143 3.634 3.634 0 0 1-.981.2 4.14 4.14 0 0 0-1.036.208 1.305 1.305 0 0 1-.535.155c-.264.039-.48.109-.48.154s-.2.114-.454.151-.455.107-.455.155-.146.118-.324.158a2.512 2.512 0 0 0-1.09.545c0 .041-.177.128-.392.192a1.34 1.34 0 0 0-.518.269.4.4 0 0 1-.21.151 22.408 22.408 0 0 0-2.72 2.574.8.8 0 0 1-.227.3 2.195 2.195 0 0 0-.371.491c-.079.152-.181.277-.228.277s-.084.069-.084.154a.244.244 0 0 1-.145.211.518.518 0 0 0-.208.342.519.519 0 0 1-.2.339.564.564 0 0 0-.2.362c-.037.17-.105.31-.15.31s-.112.12-.148.265a1.043 1.043 0 0 1-.213.412.622.622 0 0 0-.147.385.645.645 0 0 1-.158.4 1.108 1.108 0 0 0-.215.512c-.031.2-.092.355-.134.355s-.106.157-.142.349a2.709 2.709 0 0 1-.2.618 3.253 3.253 0 0 0-.208.863 1.283 1.283 0 0 1-.148.594 1.625 1.625 0 0 0-.152.682 2.164 2.164 0 0 1-.156.734 5.1 5.1 0 0 0-.154 1.213 5.746 5.746 0 0 1-.166 1.28 80.226 80.226 0 0 0 .018 8.051 2.016 2.016 0 0 1 .054 1.074 17.481 17.481 0 0 1-1.963-2.056c-.079-.147-.181-.268-.228-.268s-.084-.067-.084-.148a.367.367 0 0 0-.2-.256.367.367 0 0 1-.2-.256c0-.081-.041-.148-.091-.148s-.139-.137-.2-.3-.15-.3-.2-.3-.128-.136-.165-.3-.105-.3-.153-.3-.144-.159-.215-.354-.159-.354-.2-.354-.1-.113-.133-.252-.106-.253-.158-.253-.126-.169-.165-.376a1.213 1.213 0 0 0-.207-.512.609.609 0 0 1-.136-.374.615.615 0 0 0-.143-.381 1.427 1.427 0 0 1-.214-.614c-.039-.258-.1-.47-.145-.47a2.313 2.313 0 0 1-.208-.783 3.064 3.064 0 0 0-.213-.837 4.008 4.008 0 0 1-.15-1.036 2.978 2.978 0 0 0-.155-.981 8.173 8.173 0 0 1-.086-1.667 8.176 8.176 0 0 1 .086-1.668 2.423 2.423 0 0 0 .154-.879 3.263 3.263 0 0 1 .15-.934 3.045 3.045 0 0 0 .214-.838 2.272 2.272 0 0 1 .21-.783c.043 0 .109-.182.147-.4s.1-.4.141-.4a1.165 1.165 0 0 0 .2-.505c.071-.278.169-.505.217-.505s.117-.159.153-.354.107-.354.156-.354.09-.061.09-.136a.783.783 0 0 1 .2-.362 1.383 1.383 0 0 0 .259-.512.519.519 0 0 1 .208-.342.244.244 0 0 0 .145-.21c0-.085.046-.155.1-.155s.1-.068.1-.152a.617.617 0 0 1 .185-.336 1.282 1.282 0 0 0 .25-.354c.035-.093.111-.169.169-.169a.122.122 0 0 0 .1-.134.792.792 0 0 1 .252-.371.905.905 0 0 0 .242-.352 27.254 27.254 0 0 1 2.5-2.506 1.01 1.01 0 0 0 .331-.279 1.9 1.9 0 0 1 .528-.4c.153-.068.278-.17.278-.226s.07-.1.155-.1a.249.249 0 0 0 .213-.151.243.243 0 0 1 .2-.152.236.236 0 0 0 .2-.145.516.516 0 0 1 .342-.209 1.382 1.382 0 0 0 .512-.258.78.78 0 0 1 .362-.2c.074 0 .136-.04.136-.088s.2-.145.454-.215.454-.162.454-.2.159-.107.354-.143.354-.106.354-.154.182-.118.4-.156.4-.11.4-.16.068-.093.151-.093.151-.039.151-.086a1.747 1.747 0 0 0-.556-.621 4.016 4.016 0 0 1-.534-.216c-.452-.206-.627-.217-3.989-.228a21.44 21.44 0 0 1-3.587-.123 1.92 1.92 0 0 0-.777-.182 2.265 2.265 0 0 1-.757-.154 2.668 2.668 0 0 0-.786-.206 1.826 1.826 0 0 1-.732-.208c0-.047-.2-.116-.454-.154s-.455-.1-.455-.147-.159-.109-.354-.145-.354-.1-.354-.144-.225-.135-.5-.2a1.634 1.634 0 0 1-.531-.2 12.626 12.626 0 0 0-1.571-.867c-.125-.061-.227-.145-.227-.187s-.062-.075-.137-.075a.819.819 0 0 1-.372-.2 1.387 1.387 0 0 0-.463-.262.438.438 0 0 1-.281-.2.233.233 0 0 0-.185-.147.882.882 0 0 1-.377-.3c-.421-.508-.537-.4-.494.442m41.331 4.853a1.031 1.031 0 0 0 .351.206.463.463 0 0 1 .27.215.218.218 0 0 0 .163.148 5.044 5.044 0 0 1 1.213 1.213c0 .059.068.133.151.165a.235.235 0 0 1 .152.192.492.492 0 0 0 .144.278 3.135 3.135 0 0 1 .064 2.621c-.058.071-.288.331-.511.578a2.9 2.9 0 0 0-.405.513c0 .035-.125.127-.278.2a2.314 2.314 0 0 0-.5.371.848.848 0 0 1-.3.229 3.714 3.714 0 0 0-.847.653.534.534 0 0 1-.278.155c-.064 0-.117.04-.117.089s-.137.145-.3.215-.3.165-.3.214-.069.089-.155.089a.243.243 0 0 0-.21.145.519.519 0 0 1-.342.208.519.519 0 0 0-.338.2.564.564 0 0 1-.362.2c-.171.037-.31.106-.31.153s-.136.115-.3.151-.3.107-.3.156-.182.143-.4.21-.4.156-.4.2-.137.107-.3.143-.3.1-.3.149-.113.111-.252.145-.253.108-.253.163-.076.1-.17.1c-.231 0-.841.226-.841.312 0 .038-.2.1-.454.138s-.454.106-.454.151-.17.116-.377.154c-.462.087-.734.225-.734.375a17.41 17.41 0 0 0 3.827-.093 3.574 3.574 0 0 1 1-.227 3.127 3.127 0 0 0 .934-.209c0-.042.182-.109.4-.146s.4-.105.4-.151.228-.141.505-.212a1.149 1.149 0 0 0 .505-.2c0-.04.137-.1.3-.14s.3-.108.3-.159.069-.093.155-.093a.244.244 0 0 0 .21-.145.544.544 0 0 1 .357-.212.545.545 0 0 0 .354-.219.233.233 0 0 1 .2-.142.242.242 0 0 0 .2-.151.241.241 0 0 1 .2-.152.558.558 0 0 0 .315-.2.565.565 0 0 1 .279-.2.894.894 0 0 0 .356-.278 5.231 5.231 0 0 1 .629-.561 2.153 2.153 0 0 0 .533-.581c.165-.32.351-.4.351-.143a.249.249 0 0 0 .152.213.227.227 0 0 1 .151.178 2.005 2.005 0 0 0 .531.78.727.727 0 0 1 .177.256 1.691 1.691 0 0 0 .328.392c.181.18.4.412.5.515a3.061 3.061 0 0 0 .737.644.924.924 0 0 1 .289.229 2.3 2.3 0 0 0 .526.379 1.2 1.2 0 0 1 .384.276.267.267 0 0 0 .181.127.447.447 0 0 1 .231.122c.128.12-.387.586-.649.586a.1.1 0 0 0-.1.1c0 .056-.069.1-.155.1a.24.24 0 0 0-.209.14.929.929 0 0 1-.5.264.938.938 0 0 0-.5.264.239.239 0 0 1-.208.14c-.085 0-.155.042-.155.093s-.137.123-.3.159-.3.1-.3.144-.182.137-.4.21-.4.172-.4.218-.11.085-.245.085a.641.641 0 0 0-.395.15 1.774 1.774 0 0 1-.613.273c-.255.068-.464.158-.464.2s-.159.105-.354.142-.354.1-.354.151-.159.115-.354.151-.354.1-.354.138a1.8 1.8 0 0 1-.657.2 1.667 1.667 0 0 0-.657.209c0 .043-.2.109-.455.147s-.454.107-.454.154-.182.117-.4.154-.4.1-.4.143a2.334 2.334 0 0 1-.778.2 2.787 2.787 0 0 0-.833.208 1.469 1.469 0 0 1-.586.159c-.292.04-.531.107-.531.151a3.232 3.232 0 0 1-.96.205 3.243 3.243 0 0 0-.96.2 1.783 1.783 0 0 1-.707.149 1.728 1.728 0 0 0-.707.152 1.731 1.731 0 0 1-.707.151 1.736 1.736 0 0 0-.707.151 4.871 4.871 0 0 1-1.213.207 5.344 5.344 0 0 0-1.213.2 2.55 2.55 0 0 1-.833.146 3.118 3.118 0 0 0-.884.151 2.879 2.879 0 0 1-.848.153l-.8.074.049-.336a.816.816 0 0 1 .158-.39.694.694 0 0 0 .161-.333c.039-.152.105-.277.149-.277s.109-.159.145-.354.1-.354.143-.354c.091 0 .319-.6.319-.841 0-.094.04-.17.09-.17s.118-.114.154-.253.108-.252.163-.252.1-.068.1-.151c0-.211.3-.191.372.025a2.656 2.656 0 0 0 1 .935c.079 0 .143.038.143.085 0 .1.685.32 1 .32.118 0 .216-.046.216-.1a.1.1 0 0 0-.088-.1c-.048 0-.118-.228-.155-.505s-.105-.505-.153-.505-.139-.216-.2-.48a2.962 2.962 0 0 0-.523-1.238c-.04 0-.1-.137-.14-.3s-.1-.3-.147-.3-.137-.2-.207-.454-.162-.454-.2-.454-.105-.114-.14-.253-.108-.252-.163-.252-.1-.061-.1-.136a.825.825 0 0 0-.2-.372 1.387 1.387 0 0 1-.262-.463.441.441 0 0 0-.2-.282.241.241 0 0 1-.143-.209c0-.085-.046-.155-.1-.155s-.158-.121-.225-.268a2.593 2.593 0 0 0-.377-.546c-.14-.153-.4-.444-.586-.648-.528-.589-.679-.471-.679.534a1.934 1.934 0 0 0 .113.907.788.788 0 0 1 .185.4c.039.181.108.328.153.328a4.016 4.016 0 0 1 .28 1.783 1.574 1.574 0 0 1-1.441 1.3 1.527 1.527 0 0 0-.611.159c-.077.124-.751.113-.751-.012a4.862 4.862 0 0 0-1.516-.1 6.707 6.707 0 0 0-1.516.087c0 .047-.235.115-.523.149a1.3 1.3 0 0 0-.584.161 1.051 1.051 0 0 1-.494.168 1.342 1.342 0 0 0-.558.193 1.071 1.071 0 0 1-.364.2 1.3 1.3 0 0 0-.349.167c-.495.412-.607.491-.7.491a.544.544 0 0 0-.263.148c-1.006.932-1.322 1.253-1.322 1.349 0 .062-.1.165-.217.229-.226.121-.223-.464 0-.609a.849.849 0 0 0 .153-.391c.039-.181.106-.328.148-.328s.137-.182.21-.4.168-.4.21-.4.106-.132.142-.294a.535.535 0 0 1 .2-.346.508.508 0 0 0 .2-.32 1.239 1.239 0 0 1 .316-.5.872.872 0 0 0 .25-.32.914.914 0 0 1 .253-.327.9.9 0 0 0 .251-.326 11.311 11.311 0 0 1 1.754-1.722.93.93 0 0 0 .359-.3.841.841 0 0 1 .379-.3.12.12 0 0 0 .131-.1c0-.057.125-.158.278-.225a.973.973 0 0 0 .359-.25.292.292 0 0 1 .216-.128.236.236 0 0 0 .194-.152.248.248 0 0 1 .213-.151c.085 0 .155-.037.155-.083s.159-.144.354-.221.354-.172.354-.213.137-.1.3-.141.3-.1.3-.149.227-.137.505-.2.505-.16.505-.208.159-.116.353-.153.354-.1.354-.148.193-.113.43-.153a1.115 1.115 0 0 0 .486-.16 3.022 3.022 0 0 1 .884-.205 2.465 2.465 0 0 0 .828-.194 2.831 2.831 0 0 1 .909-.149 3 3 0 0 0 .91-.144 10.176 10.176 0 0 1 1.692-.2 11.3 11.3 0 0 0 1.743-.2 2.848 2.848 0 0 1 .833-.15 2.132 2.132 0 0 0 .783-.15c0-.044.239-.107.53-.142a1.07 1.07 0 0 0 .564-.165c.019-.057.121-.1.226-.1a2.727 2.727 0 0 0 1.1-.316c0-.04.136-.1.3-.138s.3-.107.3-.158.114-.12.253-.155.252-.093.252-.129.148-.129.328-.208a1.989 1.989 0 0 0 .551-.378.81.81 0 0 1 .314-.236 7.071 7.071 0 0 0 1.484-1.512c.036-.113.1-.205.143-.205s.138-.182.211-.4.169-.4.212-.4.11-.2.147-.454.109-.454.158-.454.09-.091.09-.2c0-.232.224-.266.427-.064m-33.757.94c.16.033.291.1.291.142s.159.114.354.15.354.1.354.148.137.112.3.148c.414.091.4.12-.328.862a1.7 1.7 0 0 0-.379.486 2.825 2.825 0 0 1-.742.8.925.925 0 0 0-.24.329c-.1.216-.117.133-.123-.572a2.386 2.386 0 0 0-.093-.859 2.849 2.849 0 0 1-.141-.926l-.054-.892.253.063c.139.035.385.09.545.122m-14.636.5a1.354 1.354 0 0 1 .3.367.863.863 0 0 0 .235.289 1.958 1.958 0 0 1 .378.542c.079.178.178.324.22.324s.077.065.077.144a.472.472 0 0 0 .133.278 5.712 5.712 0 0 1 .675 1.39.1.1 0 0 0 .1.107c.056 0 .1.065.1.144a.473.473 0 0 0 .131.278 2.239 2.239 0 0 1 .269.715 1.361 1.361 0 0 0 .218.581c.044 0 .11.159.147.354s.1.354.147.354.112.182.149.4.1.4.144.4a1.959 1.959 0 0 1 .21.712 2.622 2.622 0 0 0 .215.762 1.377 1.377 0 0 1 .147.551c.037.275.1.5.148.5a2.046 2.046 0 0 1 .209.758 2.39 2.39 0 0 0 .2.757 1.091 1.091 0 0 1 .136.505c.037.278.105.505.153.505s.117.25.155.556.112.555.163.555.094.1.094.227a7.918 7.918 0 0 0 .313 1.794 1.769 1.769 0 0 1 .137.657 1.423 1.423 0 0 0 .156.657 2.068 2.068 0 0 1 .156.808 2.583 2.583 0 0 0 .138.808 10.978 10.978 0 0 1 .2 1.692 11.3 11.3 0 0 0 .209 1.743 2.448 2.448 0 0 1 .152.757 1.892 1.892 0 0 0 .187.778c.249.155-.048.2-.358.052a4.037 4.037 0 0 0-.61-.226c-.153-.038-.278-.1-.278-.148s-.159-.109-.354-.145-.354-.106-.354-.154-.227-.145-.505-.217a1.148 1.148 0 0 1-.505-.2c0-.041-.136-.1-.3-.14s-.3-.109-.3-.16-.089-.093-.2-.093c-.136 0-.18-.048-.141-.151a.239.239 0 0 1 .2-.151c.313 0 1.254-1.136 1.254-1.514 0-.112.046-.2.1-.2s.1-.12.1-.266c0-.263-.932-.305-1.11-.05a2.22 2.22 0 0 1-.633.212 1.343 1.343 0 0 0-.581.217c0 .044-.159.11-.354.147s-.354.1-.354.14-.182.128-.4.2-.4.161-.4.21-.137.119-.3.156-.3.108-.3.159-.07.093-.155.093a.243.243 0 0 0-.21.145.547.547 0 0 1-.358.212.55.55 0 0 0-.353.2.465.465 0 0 1-.3.194c-.135.034-.245.106-.245.161s-.067.1-.148.1a.367.367 0 0 0-.256.2.366.366 0 0 1-.257.2.561.561 0 0 0-.322.2.6.6 0 0 1-.254.2 2.688 2.688 0 0 0-.964 1.09c.042.213 1.7.255 1.772.045.022-.065.2-.148.386-.183s.346-.1.346-.15.159-.115.354-.151.354-.106.354-.156.228-.09.505-.09.505.04.505.09.115.119.255.154c.912.229 1.1.851 1.109 3.626a11.313 11.313 0 0 0 .115 2.475 1.174 1.174 0 0 1 .18.55c.039.264.1.48.147.48s.134.228.2.505.166.505.21.505.11.118.147.261a1.406 1.406 0 0 0 .436.7.48.48 0 0 1 .126.231.8.8 0 0 0 .252.31.761.761 0 0 1 .253.326 1.509 1.509 0 0 0 .607.6 2.127 2.127 0 0 1 .464.369l.392.37-.4-.075a.835.835 0 0 1-.435-.164.681.681 0 0 0-.379-.154c-.191-.036-.347-.1-.347-.142s-.2-.134-.454-.2-.454-.167-.454-.215-.07-.088-.155-.088a.244.244 0 0 1-.21-.145.52.52 0 0 0-.342-.208.519.519 0 0 1-.342-.208.23.23 0 0 0-.19-.145.832.832 0 0 1-.382-.3.929.929 0 0 0-.361-.3 18.6 18.6 0 0 1-2.513-2.53c-.035-.111-.108-.2-.161-.2s-.14-.114-.193-.253-.142-.252-.2-.252a.124.124 0 0 1-.1-.136.858.858 0 0 0-.2-.379l-.282-.344a2.465 2.465 0 0 1-.217-.43c-.074-.181-.17-.328-.213-.328s-.107-.119-.144-.264a1.042 1.042 0 0 0-.213-.412.6.6 0 0 1-.148-.367 1.214 1.214 0 0 0-.2-.523 1.193 1.193 0 0 1-.2-.487.558.558 0 0 0-.152-.335.643.643 0 0 1-.151-.4c0-.135-.039-.246-.087-.246a1.946 1.946 0 0 1-.216-.757 2.084 2.084 0 0 0-.21-.758 2.228 2.228 0 0 1-.15-.808 2.269 2.269 0 0 0-.149-.808 3.749 3.749 0 0 1-.151-1.061 4.324 4.324 0 0 0-.14-1.061 8.582 8.582 0 0 1-.2-1.488 8.442 8.442 0 0 0-.211-1.541 1.931 1.931 0 0 1-.155-.684 1.634 1.634 0 0 0-.141-.631 2 2 0 0 1-.2-.682 1.9 1.9 0 0 0-.222-.715c-.051-.018-.122-.188-.158-.379s-.1-.347-.147-.347-.111-.132-.147-.294a.534.534 0 0 0-.2-.347.564.564 0 0 1-.2-.362c-.037-.171-.111-.31-.164-.31s-.125-.079-.16-.177a10.855 10.855 0 0 0-1.863-1.849.217.217 0 0 1-.17-.145.535.535 0 0 0-.35-.21c-.163-.036-.295-.1-.295-.138 0-.088-.605-.315-.841-.315-.094 0-.17-.046-.17-.1s-.111-.1-.247-.1c-.307 0-.184-.5.214-.865a.859.859 0 0 0 .236-.293 5.7 5.7 0 0 1 1.458-1.324.467.467 0 0 0 .3-.2.235.235 0 0 1 .2-.142.194.194 0 0 0 .18-.1 1.5 1.5 0 0 1 .64-.224 2.065 2.065 0 0 0 .669-.213c.035-.05.094-.039.132.022a.343.343 0 0 0 .267.112c.325 0 1.306.734 1.306.978a3.431 3.431 0 0 0 .505.557 2.564 2.564 0 0 1 .505.591.772.772 0 0 0 .253.318.786.786 0 0 1 .252.316.848.848 0 0 0 .253.331.816.816 0 0 1 .252.343.216.216 0 0 0 .144.165.643.643 0 0 1 .247.35c.057.162.151.295.209.295s.106.07.106.155a.244.244 0 0 0 .145.21.547.547 0 0 1 .212.358.55.55 0 0 0 .2.353.479.479 0 0 1 .2.3 1.393 1.393 0 0 0 .426.679 1.977 1.977 0 0 1 .243.552c.069.231.159.42.2.42s.1.12.141.265a1.05 1.05 0 0 0 .213.412.631.631 0 0 1 .147.392c0 .135.036.245.081.245.095 0 .323.595.323.841 0 .093.04.17.09.17s.12.159.156.353.106.354.154.354.118.182.156.4c.164.973.354.46.354-.96a3.993 3.993 0 0 0-.1-1.364c-.056 0-.1-.158-.1-.35a6.731 6.731 0 0 0-.3-1.873c-.042 0-.108-.2-.145-.454s-.1-.455-.147-.455a1.259 1.259 0 0 1-.2-.556c-.069-.305-.163-.555-.21-.555s-.116-.137-.152-.3-.105-.3-.151-.3-.115-.136-.152-.3-.1-.3-.139-.3-.131-.159-.2-.354-.17-.354-.222-.354-.095-.069-.095-.155a.249.249 0 0 0-.151-.213.242.242 0 0 1-.151-.2.242.242 0 0 0-.151-.2.241.241 0 0 1-.151-.2 1.243 1.243 0 0 0-.354-.486 1.678 1.678 0 0 1-.354-.42 3.754 3.754 0 0 0-.57-.632c-.53-.518-.555-.562-.354-.636.119-.044.216-.127.216-.184a.121.121 0 0 1 .131-.1c.16 0 .473-.232.982-.732a2.436 2.436 0 0 1 .444-.379 1.086 1.086 0 0 0 .463-.425 1.687 1.687 0 0 1 .328-.425c.473-.5.682-.789.682-.939a.121.121 0 0 1 .1-.131c.057 0 .137-.079.177-.177.275-.671.437-.736.838-.336M13.358 37.816c0 .051-.134.123-.3.159-.416.091-.5.961-.089.961.046 0 .085.053.085.117a.919.919 0 0 0 .28.379 2.371 2.371 0 0 1 .415.528 1.051 1.051 0 0 0 .369.392.664.664 0 0 1 .294.365c.033.132.106.24.162.24s.145.113.2.252.139.253.192.253.126.136.162.3.1.3.15.3.137.228.2.505a1.662 1.662 0 0 0 .2.555 1.234 1.234 0 0 1 .148.5c.037.251.106.456.151.456s.115.25.153.556.107.555.152.555a5.845 5.845 0 0 1 .219 2.422 4.8 4.8 0 0 1-1.445 1.619 32.383 32.383 0 0 0-3.004 3.07c-.079.149-.181.271-.227.271s-.084.069-.084.155a.248.248 0 0 1-.151.213.232.232 0 0 0-.151.187.41.41 0 0 1-.151.253 1.336 1.336 0 0 0-.269.518c-.064.215-.155.392-.2.392s-.085.064-.085.144a.471.471 0 0 1-.133.278 2.32 2.32 0 0 0-.266.765 1.531 1.531 0 0 1-.214.631 2.208 2.208 0 0 0-.15.808 2.035 2.035 0 0 1-.159.808 5.384 5.384 0 0 0-.088 1.364 5.384 5.384 0 0 0 .088 1.364 1.589 1.589 0 0 1 .158.707 1.909 1.909 0 0 0 .142.707 1.6 1.6 0 0 1 .19.621 1.938 1.938 0 0 0 .213.682.829.829 0 0 1 .165.389c.039.181.106.328.148.328s.132.182.2.4.16.4.207.4.115.113.149.253.108.252.163.252.1.067.1.148a.349.349 0 0 0 .191.25.627.627 0 0 1 .255.358c.072.288.208.323.421.111a6.162 6.162 0 0 0 .055-2.425 6.914 6.914 0 0 1-.163-1.471 5.836 5.836 0 0 0-.163-1.416 5.278 5.278 0 0 1-.09-1.364 5.451 5.451 0 0 1 .087-1.364c.048 0 .112-.279.143-.62a1.571 1.571 0 0 1 .161-.685 1.034 1.034 0 0 0 .174-.5 1.355 1.355 0 0 1 .194-.558 1.08 1.08 0 0 0 .2-.364 1.289 1.289 0 0 1 .166-.349c.418-.5.491-.611.491-.734a.238.238 0 0 1 .151-.2.241.241 0 0 0 .152-.2.241.241 0 0 1 .151-.2.228.228 0 0 0 .151-.178 1.981 1.981 0 0 1 .521-.77 1.263 1.263 0 0 0 .234-.392c.037-.117.106-.212.155-.212s.144-.156.213-.346a.973.973 0 0 1 .353-.468.655.655 0 0 0 .288-.361c.033-.132.1-.24.159-.24s.1-.066.1-.146a.43.43 0 0 1 .186-.278.79.79 0 0 0 .245-.284c.047-.121.06-.116.066.025 0 .1.053.177.107.177s.127.113.163.253.1.252.14.252.134.2.2.454.162.455.2.455.106.159.143.354.1.354.147.354.135.182.2.4.159.4.205.4.113.182.149.4.109.4.163.4.126.113.161.252.1.253.14.253.134.2.2.448a.952.952 0 0 0 .266.5.24.24 0 0 1 .14.208c0 .085.042.155.093.155s.123.139.161.31a.563.563 0 0 0 .21.364.233.233 0 0 1 .142.2.242.242 0 0 0 .151.2.234.234 0 0 1 .151.192.472.472 0 0 0 .139.272 2.188 2.188 0 0 1 .293.437 2.434 2.434 0 0 0 .418.543.988.988 0 0 1 .262.323 10.747 10.747 0 0 0 1.592 1.6c.083 0 .2.08.689.491a1.3 1.3 0 0 0 .349.167 1.073 1.073 0 0 1 .366.2 1.41 1.41 0 0 0 .586.2c.253.037.46.111.46.164s.091.095.2.095c.349 0 .23-.355-.3-.9a3.219 3.219 0 0 1-.505-.594 1.04 1.04 0 0 0-.287-.33 2.186 2.186 0 0 1-.419-.5.988.988 0 0 0-.269-.331.3.3 0 0 1-.137-.228c0-.08-.043-.147-.1-.147-.091 0-.279-.292-.5-.783-.057-.125-.147-.228-.2-.228s-.126-.137-.162-.3-.106-.3-.153-.3-.144-.159-.214-.354-.159-.354-.2-.354-.1-.159-.136-.354-.098-.327-.148-.327-.145-.25-.214-.556a1.245 1.245 0 0 0-.2-.555c-.043 0-.111-.216-.149-.48a1.331 1.331 0 0 0-.154-.534 2.956 2.956 0 0 1-.152-.884 2.586 2.586 0 0 0-.14-.83 8.439 8.439 0 0 1-.2-1.516 8.5 8.5 0 0 0-.2-1.516 1.751 1.751 0 0 1-.134-.675 1.972 1.972 0 0 0-.154-.733 1.819 1.819 0 0 1-.164-.689 1.422 1.422 0 0 0-.153-.631 1.638 1.638 0 0 1-.2-.657 1.541 1.541 0 0 0-.209-.657c-.047 0-.115-.159-.151-.354s-.1-.354-.145-.354-.11-.123-.148-.274a5.244 5.244 0 0 0-.263-.7 2.513 2.513 0 0 1-.194-.534.1.1 0 0 0-.1-.107c-.055 0-.128-.113-.163-.252s-.1-.253-.142-.253-.134-.136-.2-.3-.165-.3-.214-.3-.089-.069-.089-.155a.249.249 0 0 0-.151-.213.232.232 0 0 1-.167-.191 6.638 6.638 0 0 0-1.575-1.567c-.079 0-.143-.046-.143-.1s-.113-.147-.253-.2-.252-.14-.252-.2-.159-.129-.354-.165-.354-.1-.354-.144-.2-.109-.454-.147-.455-.111-.455-.163-.091-.095-.2-.095-.2.042-.2.093M61.551 41.5a.24.24 0 0 1-.152.2c-.083.032-.152.107-.152.166a2.253 2.253 0 0 1-.53.791.2.2 0 0 0-.076.172.294.294 0 0 1-.127.219 1.213 1.213 0 0 0-.278.384 2.807 2.807 0 0 1-.488.726c-.1.121-.269.342-.377.49a16.669 16.669 0 0 1-2.247 2.212.448.448 0 0 0-.261.212.237.237 0 0 1-.2.148.241.241 0 0 0-.2.152.238.238 0 0 1-.2.151.593.593 0 0 0-.322.2.659.659 0 0 1-.26.2 12.45 12.45 0 0 0-1.711 1.718 1.22 1.22 0 0 1-.278.394 1.985 1.985 0 0 0-.625.949c-.068.205-.165.374-.215.374s-.12.113-.154.252-.1.253-.134.253a1.184 1.184 0 0 0-.2.505c-.072.278-.166.505-.21.505s-.111.159-.147.354-.1.354-.151.354-.115.159-.152.354-.1.354-.147.354a1.251 1.251 0 0 0-.214.555c-.13.542-.4.782-.4.354 0-.111-.041-.2-.091-.2s-.148-.239-.217-.53a1.79 1.79 0 0 0-.209-.586 2.375 2.375 0 0 1-.152-.783 1.709 1.709 0 0 0-.154-.728 5.464 5.464 0 0 1-.086-1.364 5.447 5.447 0 0 1 .087-1.364c.048 0 .117-.258.155-.574a2.41 2.41 0 0 1 .149-.682 3.1 3.1 0 0 0 .205-.687 1.8 1.8 0 0 1 .219-.637.324.324 0 0 0 .094-.247.547.547 0 0 1 .143-.332 1.712 1.712 0 0 0 .269-.563c.069-.231.164-.42.211-.42s.085-.07.085-.155a.249.249 0 0 1 .151-.213.241.241 0 0 0 .151-.2.242.242 0 0 1 .151-.2.234.234 0 0 0 .152-.191 6.459 6.459 0 0 1 1.387-1.462c.085 0 .223-.1.7-.5a1.177 1.177 0 0 1 .379-.165c.144-.036.261-.1.261-.139a1.338 1.338 0 0 1 .556-.207 1.3 1.3 0 0 0 .556-.21 1.575 1.575 0 0 1 .657-.147 1.462 1.462 0 0 0 .657-.154c0-.116.591-.158 2.5-.178 1.345-.014 1.642.008 1.642.123m24.992 9.432a.809.809 0 0 1-.139.329 3.793 3.793 0 0 0-.2.884 2.384 2.384 0 0 1-.216.834c-.046 0-.083.07-.083.156 0 .122-.05.109-.228-.061a4.113 4.113 0 0 0-.48-.382 3.564 3.564 0 0 1-.549-.495 1.262 1.262 0 0 0-.383-.329c-.12 0-.923-.806-.863-.866a8.861 8.861 0 0 1 1.225-.112 4.2 4.2 0 0 0 1.176-.149c0-.047.183-.085.406-.085.392 0 .4.009.338.278m-51.868.118c0 .052.159.146.354.21s.353.158.353.208.111.119.246.153a.466.466 0 0 1 .3.194.565.565 0 0 0 .361.2c.17.037.31.111.31.164s.079.127.175.164a1.386 1.386 0 0 1 .391.3.8.8 0 0 0 .305.234 10.437 10.437 0 0 1 2.254 2.152c.079.149.181.272.228.272s.084.069.084.154a.249.249 0 0 0 .151.213.242.242 0 0 1 .152.2.239.239 0 0 0 .148.2.449.449 0 0 1 .213.261 12.883 12.883 0 0 0 2.212 2.2.235.235 0 0 1 .192.152.242.242 0 0 0 .2.151.241.241 0 0 1 .2.152.238.238 0 0 0 .2.151.809.809 0 0 1 .372.2.812.812 0 0 0 .369.2c.075 0 .136.045.136.1s.113.128.253.163.252.1.252.146.171.134.379.2a4.43 4.43 0 0 1 1.136.518 1.088 1.088 0 0 0 .379.134c.181.039.328.113.328.164s.089.093.2.093a1.769 1.769 0 0 1 .813.311.586.586 0 0 0 .2.121c.121.046.116.06-.025.066-.1 0-.177.049-.177.1a1.539 1.539 0 0 1-.68.209 2.213 2.213 0 0 0-.737.21 2.984 2.984 0 0 1-.937.16 2.41 2.41 0 0 0-.879.154 2.767 2.767 0 0 1-.96.086 2.768 2.768 0 0 1-.96-.086 2.152 2.152 0 0 0-.826-.15 2.785 2.785 0 0 1-.884-.153.89.89 0 0 0-.411-.157c-.788-.152-.91-.188-.91-.274 0-.049-.065-.089-.144-.089a.479.479 0 0 1-.28-.137 1.738 1.738 0 0 0-.538-.267 1.1 1.1 0 0 1-.482-.268.3.3 0 0 0-.228-.137c-.08 0-.147-.042-.147-.094s-.079-.12-.177-.151a1.967 1.967 0 0 1-.5-.361 1.553 1.553 0 0 0-.4-.307 2.8 2.8 0 0 1-.535-.51l-.733-.812a1.3 1.3 0 0 1-.278-.392.448.448 0 0 0-.128-.22 1.759 1.759 0 0 1-.377-.9c0-.109-.042-.2-.093-.2s-.124-.193-.163-.43a1.681 1.681 0 0 0-.169-.55 5.5 5.5 0 0 1-.155-1.288 4.144 4.144 0 0 0-.143-1.167 4.357 4.357 0 0 1-.086-1.213c0-1.01.025-1.213.152-1.213.083 0 .151.042.151.093m58.352 2.3a18.454 18.454 0 0 0 .183 3.69 30.859 30.859 0 0 1 0 5.415.876.876 0 0 0-.188.451c-.039.208-.106.378-.148.378s-.133.2-.2.448a.956.956 0 0 1-.266.5.231.231 0 0 0-.14.2.242.242 0 0 1-.151.2.248.248 0 0 0-.152.213c0 .085-.041.155-.091.155s-.139.137-.2.3-.154.3-.212.3-.106.069-.106.154a.243.243 0 0 1-.144.21.651.651 0 0 0-.247.35c-.057.163-.151.3-.209.3a.113.113 0 0 0-.106.118.54.54 0 0 1-.151.278 4.144 4.144 0 0 0-.657.87.836.836 0 0 1-.233.29 1.386 1.386 0 0 0-.3.391c-.037.1-.111.175-.165.175s-.129.1-.169.228c-.073.232-.538.727-.613.651a3.9 3.9 0 0 1-.151-.662 1.5 1.5 0 0 0-.187-.621c-.042 0-.1-.188-.133-.419a.958.958 0 0 0-.156-.48.916.916 0 0 1-.17-.44c-.039-.208-.107-.378-.151-.378s-.134-.228-.2-.505-.159-.505-.2-.505-.113-.137-.149-.3-.1-.3-.149-.3-.111-.113-.145-.252-.1-.253-.154-.253-.122-.139-.159-.31a.566.566 0 0 0-.2-.362.534.534 0 0 1-.2-.347c-.035-.162-.1-.295-.145-.295s-.137-.137-.206-.3-.167-.3-.218-.3-.122-.079-.159-.175a1.364 1.364 0 0 0-.3-.391.75.75 0 0 1-.233-.32 1.235 1.235 0 0 0-.354-.415 1.235 1.235 0 0 1-.354-.415 8.809 8.809 0 0 0-1.616-1.616 2.1 2.1 0 0 1-.435-.377.3.3 0 0 0-.227-.132c-.08 0-.147-.037-.147-.082s-.159-.144-.354-.221-.354-.172-.354-.213-.133-.1-.295-.139a.535.535 0 0 1-.35-.21.244.244 0 0 0-.21-.145c-.085 0-.155-.045-.155-.1 0-.163-.276-.116-.343.059a.474.474 0 0 0 .14.621.6.6 0 0 1 .2.254 4.016 4.016 0 0 0 .606.674 3.619 3.619 0 0 1 .607.686.791.791 0 0 0 .252.313.712.712 0 0 1 .253.372c0 .084.046.152.1.152s.147.114.2.253.143.252.2.252a.123.123 0 0 1 .1.136.86.86 0 0 0 .2.379l.289.35a2.116 2.116 0 0 1 .212.48c.068.2.161.373.208.373s.115.137.152.3.1.3.148.3.112.159.148.353.1.354.147.354a1.347 1.347 0 0 1 .215.581 3.231 3.231 0 0 0 .214.687 1.944 1.944 0 0 1 .15.556 1.289 1.289 0 0 0 .146.5 15.461 15.461 0 0 1 .3 2.8c0 .3.039.538.086.538a2.155 2.155 0 0 1 .156.83 2.954 2.954 0 0 0 .153.884 1.717 1.717 0 0 1 .154.635 1.271 1.271 0 0 0 .148.581 1.761 1.761 0 0 1 .2.673 3.169 3.169 0 0 0 .27.881.908.908 0 0 1 .147.439c0 .126.04.23.09.23s.12.125.155.278a3.851 3.851 0 0 0 .578 1.237c.038 0 .1.137.136.3s.1.3.143.3.13.176.2.392a1.33 1.33 0 0 0 .268.517.412.412 0 0 1 .151.254.232.232 0 0 0 .151.186.249.249 0 0 1 .152.213c0 .085.035.155.079.155s.156.13.25.289a4.745 4.745 0 0 0 1.106 1.125 1.374 1.374 0 0 1 .373.294 1.549 1.549 0 0 0 .61.361c.17.037.309.106.309.153s.148.117.328.156a.82.82 0 0 1 .388.165c.135.212 1.14.215 1.38.006.344-.3.3-.511-.253-1.089a.463.463 0 0 1-.126-.2 3.443 3.443 0 0 0-.505-.556 2.384 2.384 0 0 1-.505-.6.218.218 0 0 0-.147-.167.745.745 0 0 1-.261-.4c-.062-.19-.152-.345-.2-.345s-.115-.136-.152-.3-.106-.3-.154-.3-.117-.2-.155-.454-.1-.455-.144-.455a1.6 1.6 0 0 1-.206-.631 3.316 3.316 0 0 0-.215-.743 1.869 1.869 0 0 1-.15-.581c-.035-.258-.1-.469-.142-.469s-.11-.239-.15-.531a1.5 1.5 0 0 0-.156-.584 2.04 2.04 0 0 1-.151-.71l-.067-.657.631-.629a4.45 4.45 0 0 1 .712-.629 5.461 5.461 0 0 0 .794-.707 6.447 6.447 0 0 1 .78-.707 4.293 4.293 0 0 0 .843-.875 2.632 2.632 0 0 1 .4-.462 2.023 2.023 0 0 0 .4-.49 1.265 1.265 0 0 1 .278-.387c.458-.5.52-.586.59-.868a.51.51 0 0 1 .2-.32.537.537 0 0 0 .2-.345c.035-.162.1-.295.146-.295s.112-.159.148-.354.1-.354.149-.354a1.5 1.5 0 0 0 .214-.631 1.935 1.935 0 0 1 .241-.7 27.138 27.138 0 0 0 0-4.907 2.722 2.722 0 0 1-.238-.88 3.361 3.361 0 0 0-.208-.859 1.144 1.144 0 0 1-.15-.454 1.294 1.294 0 0 0-.141-.455 3.458 3.458 0 0 1-.319-.555c-.661-1.319-1.422-2.051-1.561-1.5M63.86 57.194a2.186 2.186 0 0 0 .748.228 1.646 1.646 0 0 1 .681.212c0 .047.159.115.354.151s.354.1.354.148.133.111.295.147a.531.531 0 0 1 .345.2.485.485 0 0 0 .306.2c.25.063.464.231 1.268 1a1.711 1.711 0 0 0 .507.379.1.1 0 0 1 .109.094 2.735 2.735 0 0 0 .48.6c.636.674.668.715.824 1.1.074.181.169.328.21.328s.107.192.144.426a1.048 1.048 0 0 0 .162.484 2.324 2.324 0 0 1 .162.811 2.77 2.77 0 0 0 .143.8c.066.045.313 3.851.255 3.916a1.169 1.169 0 0 1-.663-.288c0-.05-.069-.091-.154-.091a.243.243 0 0 1-.211-.145.534.534 0 0 0-.35-.21c-.162-.036-.295-.108-.295-.16s-.113-.139-.252-.192-.253-.142-.253-.2a.12.12 0 0 0-.131-.1 1.889 1.889 0 0 1-.781-.521 1.219 1.219 0 0 0-.376-.229.717.717 0 0 1-.332-.316.67.67 0 0 0-.351-.308 1.149 1.149 0 0 1-.462-.369 12.28 12.28 0 0 0-.575-.666 1.3 1.3 0 0 1-.328-.491.238.238 0 0 0-.152-.2.242.242 0 0 1-.151-.2.243.243 0 0 0-.151-.2.239.239 0 0 1-.151-.2.717.717 0 0 0-.253-.361.8.8 0 0 1-.252-.31 8.747 8.747 0 0 0-1.48-1.49.971.971 0 0 1-.345-.278 2.819 2.819 0 0 0-1-.708 2.776 2.776 0 0 1-.749-.5 1.127 1.127 0 0 0-.4-.187.843.843 0 0 1-.378-.207.512.512 0 0 0-.35-.142.623.623 0 0 1-.386-.153 1.138 1.138 0 0 0-.487-.219 1.116 1.116 0 0 1-.468-.2.6.6 0 0 0-.372-.134.616.616 0 0 1-.381-.142.785.785 0 0 0-.385-.177c-.31-.044-.4-.388-.1-.388.115 0 .21-.038.21-.085a2.475 2.475 0 0 1 .858-.218 2.645 2.645 0 0 0 .859-.212 18.208 18.208 0 0 1 4.633-.019m6.885 1.45c0 .047.159.115.354.151s.354.1.354.143.216.136.48.208a1.29 1.29 0 0 1 .561.266.3.3 0 0 0 .228.134c.08 0 .147.042.147.093s.136.123.3.16.3.11.3.162.113.139.253.192.252.143.252.2.069.1.153.1a.561.561 0 0 1 .326.2.6.6 0 0 0 .258.2 2.8 2.8 0 0 1 .577.505 2.425 2.425 0 0 0 .6.505.1.1 0 0 1 .107.1 3.5 3.5 0 0 0 .607.7 4.7 4.7 0 0 1 .606.669 3.907 3.907 0 0 0 .608.825.454.454 0 0 1 .1.231.215.215 0 0 0 .145.164.547.547 0 0 1 .212.358.545.545 0 0 0 .2.353.538.538 0 0 1 .2.347c.035.162.1.295.142.295s.132.182.2.4.165.4.218.4.1.11.1.245a.619.619 0 0 0 .136.382 1.3 1.3 0 0 1 .212.537 1.038 1.038 0 0 0 .163.456 2.663 2.663 0 0 1 .21.808 2.729 2.729 0 0 0 .209.813 2.081 2.081 0 0 1 .149.733 1.637 1.637 0 0 0 .14.675 3.851 3.851 0 0 1 .149 1.06 4.185 4.185 0 0 0 .143 1.061 7.1 7.1 0 0 1 .2 1.389 9.322 9.322 0 0 0 .208 1.49 2.457 2.457 0 0 1 .15.682 1.332 1.332 0 0 0 .142.581 2.073 2.073 0 0 1 .2.713 4.874 4.874 0 0 0 .274.986 1.251 1.251 0 0 1 .143.449c0 .1.043.177.094.177s.123.136.16.3.1.3.139.3.134.169.208.375a1.779 1.779 0 0 0 .273.512.467.467 0 0 1 .137.264c0 .07.113.188.252.263s.253.194.253.266a6.388 6.388 0 0 0 1.55 1.57.242.242 0 0 1 .2.152.242.242 0 0 0 .2.151.233.233 0 0 1 .2.142.561.561 0 0 0 .364.21c.171.037.31.106.31.153s.182.115.4.152.4.11.4.161.067.092.148.092c.2 0 .086.278-.257.614a1.513 1.513 0 0 0-.336.467.751.751 0 0 1-.34.343 2.252 2.252 0 0 0-.526.42.846.846 0 0 1-.382.278.228.228 0 0 0-.188.145.535.535 0 0 1-.35.21c-.162.035-.295.1-.295.149s-.148.117-.328.156a.793.793 0 0 0-.4.185 1.5 1.5 0 0 1-.757.113h-.686l-.783-.794a6.677 6.677 0 0 1-.783-.876 1.319 1.319 0 0 0-.3-.385 1.168 1.168 0 0 1-.3-.408c0-.058-.09-.154-.2-.213a.624.624 0 0 1-.262-.35.467.467 0 0 0-.2-.3.232.232 0 0 1-.142-.2.241.241 0 0 0-.152-.2.249.249 0 0 1-.151-.213c0-.085-.04-.155-.089-.155s-.145-.137-.214-.3-.165-.3-.214-.3-.089-.069-.089-.154a.244.244 0 0 0-.145-.211.544.544 0 0 1-.212-.357.547.547 0 0 0-.2-.354.536.536 0 0 1-.2-.347c-.036-.162-.1-.294-.15-.294s-.115-.137-.151-.3-.106-.3-.155-.3-.143-.182-.21-.4-.156-.4-.2-.4-.107-.137-.144-.3-.1-.3-.143-.3a1.3 1.3 0 0 1-.21-.556 1.262 1.262 0 0 0-.214-.556c-.044 0-.11-.159-.147-.354s-.1-.354-.145-.354-.109-.2-.147-.454c-.054-.359-.11-.454-.264-.454-.29 0-.193 3.946.1 4.142a1.666 1.666 0 0 1 .139.6 1.429 1.429 0 0 0 .158.607.931.931 0 0 1 .165.437c.039.208.111.378.161.378s.09.077.09.17c0 .236.227.841.316.841.04 0 .1.137.139.3s.105.3.152.3.114.132.149.295a1.413 1.413 0 0 0 .261.521.78.78 0 0 1 .2.362c0 .075.045.136.1.136s.1.067.1.148a.366.366 0 0 0 .2.256.367.367 0 0 1 .2.257.559.559 0 0 0 .2.322.6.6 0 0 1 .2.255 6.762 6.762 0 0 0 .808.884c.929.922.9.873.5.961a.563.563 0 0 0-.365.21c-.03.078-.093.142-.14.142a3.591 3.591 0 0 0-1.063.757.869.869 0 0 1-.327.253c-.051 0-.177.118-.283.263a7.47 7.47 0 0 1-.519.608 1.48 1.48 0 0 0-.328.439.265.265 0 0 1-.132.175 1.052 1.052 0 0 0-.265.409c-.073.181-.169.328-.213.328s-.111.137-.147.3c-.074.338-.224.4-.327.126a1.435 1.435 0 0 0-.25-.373.666.666 0 0 1-.182-.317.23.23 0 0 0-.152-.18.242.242 0 0 1-.151-.2.242.242 0 0 0-.151-.2.248.248 0 0 1-.151-.213c0-.085-.042-.154-.094-.154s-.145-.159-.21-.354-.158-.354-.208-.354-.12-.114-.155-.253-.1-.252-.137-.252-.134-.182-.207-.4-.168-.4-.21-.4-.107-.137-.143-.3-.106-.3-.155-.3-.118-.159-.155-.354-.1-.354-.146-.354-.134-.227-.2-.505-.158-.505-.2-.505-.113-.182-.15-.4-.1-.4-.148-.4-.11-.192-.148-.426a1.059 1.059 0 0 0-.16-.483 2.261 2.261 0 0 1-.22-.735 1.815 1.815 0 0 0-.2-.679c-.041 0-.1-.228-.142-.505s-.1-.505-.138-.505a2.858 2.858 0 0 1-.205-.859 2.789 2.789 0 0 0-.208-.859 1.855 1.855 0 0 1-.145-.707 1.692 1.692 0 0 0-.154-.707 1.466 1.466 0 0 1-.153-.657 1.606 1.606 0 0 0-.145-.657 4.078 4.078 0 0 1-.2-1.061 4.063 4.063 0 0 0-.205-1.06 2.112 2.112 0 0 1-.145-.758 2.1 2.1 0 0 0-.145-.757 3.189 3.189 0 0 1-.2-.93 5.013 5.013 0 0 0-.208-1.036 2.4 2.4 0 0 1-.155-.687c-.039-.32-.107-.581-.152-.581s-.115-.262-.155-.581a1.857 1.857 0 0 0-.147-.631c-.163-.11-.208-.707-.053-.707.082 0 .149.037.149.082s.228.14.505.212.505.165.505.21.159.11.354.147.354.108.354.158.159.122.354.159.354.1.354.147.227.139.505.21.505.166.505.212.066.082.145.082c.331 0 .252.246-.226.706a2.861 2.861 0 0 0-.574.7c-.037.117-.1.189-.149.162s-.11.12-.144.327-.091.479-.126.6c-.053.193-.023.227.2.227.145 0 .264-.04.264-.089a1.474 1.474 0 0 1 .657-.214 1.545 1.545 0 0 0 .657-.209c0-.047.159-.115.354-.151s.353-.1.353-.148.137-.111.3-.148.3-.109.3-.16.075-.093.167-.093a3.206 3.206 0 0 0 1.247-.6c0-.05.137-.12.3-.156s.3-.1.3-.14.157-.136.349-.212a.838.838 0 0 0 .4-.272.234.234 0 0 1 .206-.134c.085 0 .155-.048.155-.106s.137-.154.3-.212.3-.147.3-.2.067-.091.148-.091a.366.366 0 0 0 .256-.2c.059-.111.156-.2.214-.2a2.751 2.751 0 0 0 .9-.883c0-.058-.114-.134-.253-.169s-.252-.108-.252-.163-.159-.1-.354-.1-.354.035-.354.078a1.5 1.5 0 0 1-.622.2 1.839 1.839 0 0 0-.685.22 1.018 1.018 0 0 1-.49.17c-.235.037-.426.108-.426.156 0 .137-1.2.1-1.373-.038a4.62 4.62 0 0 1-.519-.524c-.243-.272-.323-1.058-.308-3.06a9.654 9.654 0 0 0-.094-2.167 1.64 1.64 0 0 1-.179-.563 1.128 1.128 0 0 0-.154-.48 1.029 1.029 0 0 1-.152-.455c-.037-.222-.1-.4-.147-.4s-.136-.2-.2-.448a.952.952 0 0 0-.266-.5.24.24 0 0 1-.14-.208c0-.085-.046-.155-.1-.155s-.1-.066-.1-.147a.3.3 0 0 0-.137-.228.9.9 0 0 1-.255-.306 6.477 6.477 0 0 0-1.479-1.442.214.214 0 0 1-.18-.132c-.037-.1.03-.121.242-.09.161.024.293.082.293.128m-15.953 5.6c0 .167.04.3.089.3a1.571 1.571 0 0 1 .217.682 2.059 2.059 0 0 0 .239.754 9.369 9.369 0 0 1 .112 2.3 9.363 9.363 0 0 1-.112 2.3 2.059 2.059 0 0 0-.239.754 1.767 1.767 0 0 1-.205.682c-.044 0-.109.159-.145.354s-.106.354-.155.354-.118.137-.155.3-.1.3-.141.3-.137.159-.213.353-.176.354-.221.354-.082.067-.082.148a.366.366 0 0 1-.2.256c-.111.06-.2.166-.2.236a1.323 1.323 0 0 1-.361.477c-.2.192-.437.434-.531.538a3.441 3.441 0 0 1-.982.872.23.23 0 0 0-.183.152.249.249 0 0 1-.213.151c-.085 0-.155.039-.155.088s-.2.145-.454.215-.454.163-.454.206-.193.111-.43.15a1.683 1.683 0 0 0-.549.167 10.058 10.058 0 0 1-1.793.155 8.39 8.39 0 0 0-1.674.145 1.806 1.806 0 0 1-.768.085c-.662 0-.76-.022-.707-.161a4.14 4.14 0 0 0 .121-.4.453.453 0 0 1 .2-.29.241.241 0 0 0 .143-.209c0-.085.046-.155.1-.155s.1-.066.1-.147a.3.3 0 0 1 .126-.228 1.2 1.2 0 0 0 .278-.384 2.469 2.469 0 0 1 .2-.354 3.987 3.987 0 0 0 .505-.77c0-.081.019-.1 1.04-1.175a4.573 4.573 0 0 1 .863-.783.111.111 0 0 0 .117-.1c0-.057.125-.158.278-.225a.979.979 0 0 0 .359-.25.265.265 0 0 1 .181-.128.835.835 0 0 0 .335-.253.888.888 0 0 1 .324-.254 2.325 2.325 0 0 0 .527-.455 1.731 1.731 0 0 1 .581-.453.144.144 0 0 0 .143-.143 2.122 2.122 0 0 1 .505-.646 2.479 2.479 0 0 0 .505-.611c0-.06.091-.158.2-.217a.365.365 0 0 0 .2-.256c0-.082.041-.148.091-.148s.139-.137.2-.3.15-.3.2-.3.128-.136.165-.3.1-.3.143-.3.137-.182.21-.4.168-.4.21-.4.107-.137.144-.3.1-.3.148-.3.112-.159.148-.353.105-.354.153-.354.141-.228.208-.505.156-.505.2-.505.106-.137.139-.3.125-.3.215-.3.154.1.154.3m-34.442 2.351a1.785 1.785 0 0 0 .427.353 2.764 2.764 0 0 1 .533.458 2.809 2.809 0 0 0 .528.456 1 1 0 0 1 .311.253l.238.251h-.71a1.747 1.747 0 0 0-.743.09 2.683 2.683 0 0 1-.925.127l-.892.035.064-.3c.036-.166.091-.451.122-.631s.093-.328.136-.328.11-.182.147-.4.11-.4.16-.4.093-.068.093-.152c0-.234.129-.183.51.2m22.454 8.944c-.029.111-.087.2-.129.2s-.136.216-.208.48a2.306 2.306 0 0 1-.19.531 4.378 4.378 0 0 0-.468 1.006 1.049 1.049 0 0 1-.2.382 1.21 1.21 0 0 0-.2.507 1.209 1.209 0 0 1-.206.51.475.475 0 0 0-.136.28c0 .079-.046.144-.1.144s-.1-.066-.1-.146a.429.429 0 0 0-.187-.278.806.806 0 0 1-.259-.359c-.04-.125-.13-.228-.2-.228a.789.789 0 0 1-.355-.2 1.4 1.4 0 0 0-.521-.261c-.162-.036-.295-.107-.295-.158s-.137-.093-.3-.093c-.269 0-.3.034-.3.3 0 .166.04.3.09.3s.121.171.16.379a8.423 8.423 0 0 0 .868 2.147 1.034 1.034 0 0 1 .2.454c.07.25.162.455.2.455s.107.117.143.261a1.387 1.387 0 0 0 .415.677 2.175 2.175 0 0 1 .24.451c.074.18.174.328.223.328s.089.069.089.154a.249.249 0 0 0 .151.213.229.229 0 0 1 .151.18.74.74 0 0 0 .2.339.809.809 0 0 1 .2.3.537.537 0 0 0 .177.242 3.236 3.236 0 0 1 .378.446 3.067 3.067 0 0 0 .379.441.5.5 0 0 1 .177.284c0 .221.29.142.466-.127a1.937 1.937 0 0 0-.044-1.452.823.823 0 0 1-.165-.388c-.039-.181-.11-.328-.156-.328s-.117-.148-.156-.328a.8.8 0 0 0-.177-.4 2.684 2.684 0 0 1 0-1.574.19.19 0 0 0 .126-.163c0-.147.254-.367.658-.57a1.366 1.366 0 0 0 .374-.252 13.5 13.5 0 0 1 2.456-.106A11.393 11.393 0 0 0 48.7 80.5a1.166 1.166 0 0 1 .549-.179c.264-.039.48-.107.48-.153s.178-.111.4-.145a1.224 1.224 0 0 0 .535-.2 1.048 1.048 0 0 1 .36-.209c.123-.039.223-.11.223-.157s.159-.139.353-.2.354-.16.354-.213.074-.124.164-.159a2.314 2.314 0 0 0 .5-.376c.263-.247.923-.817 1.087-.94a.915.915 0 0 1-.012.328c-.023.192-.076.35-.12.35s-.109.159-.145.354-.1.354-.144.354-.136.227-.207.505-.167.505-.213.505-.114.136-.15.3-.11.3-.162.3-.139.113-.192.253-.138.252-.188.252-.121.113-.156.253-.108.252-.163.252a.108.108 0 0 0-.1.115 1.3 1.3 0 0 1-.354.448 1.727 1.727 0 0 0-.354.4 1.062 1.062 0 0 1-.228.316c-.583.636-.808.842-.918.842-.066 0-.232.136-.37.3a.99.99 0 0 1-.338.3c-.075 0-.282.148-.845.608a.449.449 0 0 1-.231.1c-.06 0-.134.068-.166.152a.226.226 0 0 1-.172.151 5.052 5.052 0 0 0-1.261.628.8.8 0 0 1-.379.138c-.19.036-.346.1-.346.136a1.8 1.8 0 0 1-.657.2 1.662 1.662 0 0 0-.657.209c0 .043-.25.11-.556.148s-.556.1-.556.147a4.666 4.666 0 0 1-1.162.211 4.8 4.8 0 0 0-1.162.209 3.247 3.247 0 0 1-.96.147 3.238 3.238 0 0 0-.96.148 2.89 2.89 0 0 1-.909.147 2.868 2.868 0 0 0-.91.149 3.6 3.6 0 0 1-1.01.205 3.642 3.642 0 0 0-1.01.205c0 .042-.228.107-.505.144s-.505.107-.505.155-.182.12-.4.157-.4.11-.4.159-.185.121-.411.157a1.257 1.257 0 0 0-.544.2 1.016 1.016 0 0 1-.4.2c-.145.036-.265.1-.265.149s-.139.112-.31.15a.563.563 0 0 0-.365.21.232.232 0 0 1-.2.142.242.242 0 0 0-.2.151.24.24 0 0 1-.2.152.56.56 0 0 0-.315.2.587.587 0 0 1-.263.2 8.306 8.306 0 0 0-1.481 1.517.2.2 0 0 1-.134.158.842.842 0 0 0-.272.4c-.075.192-.172.349-.214.349s-.107.159-.144.354-.106.354-.156.354-.093.125-.1.278-.031.221-.059.151a.227.227 0 0 0-.2-.126.243.243 0 0 1-.2-.151.227.227 0 0 0-.183-.144 5.993 5.993 0 0 1-1.778-1.617.22.22 0 0 0-.149-.165c-.089-.034-.176-.257-.215-.553-.036-.272-.105-.5-.154-.5s-.088-.2-.088-.454.041-.454.091-.454.123-.228.161-.505.11-.505.159-.505.118-.114.153-.253.1-.252.137-.252.137-.122.216-.272a5.606 5.606 0 0 1 1.184-1.244 1.345 1.345 0 0 0 .365-.252 1.054 1.054 0 0 1 .43-.252c.074 0 .136-.042.136-.094s.159-.145.354-.21.354-.155.354-.2.136-.115.3-.151.3-.105.3-.152.137-.115.3-.152.3-.1.3-.143.182-.137.4-.21.4-.167.4-.21.137-.107.3-.143.3-.105.3-.152.137-.115.3-.152.3-.106.3-.155.182-.143.4-.21.4-.156.4-.2.137-.107.3-.144.3-.1.3-.143.182-.137.4-.21.4-.168.4-.21.136-.107.3-.143.3-.105.3-.151.137-.115.3-.152.3-.106.3-.155.182-.143.4-.21.4-.184.4-.27a6.171 6.171 0 0 0-2.424.072 5.2 5.2 0 0 1-1.112.205 6.286 6.286 0 0 0-1.162.21 2 2 0 0 1-.581.15c-.264.039-.48.107-.48.15s-.2.109-.455.146-.454.105-.454.15-.153.106-.34.137a3.949 3.949 0 0 0-.8.266 2.8 2.8 0 0 1-.569.21.1.1 0 0 0-.106.094c0 .052-.1.127-.225.166a2.555 2.555 0 0 0-.869.573.211.211 0 0 1-.18.076.243.243 0 0 0-.2.152.233.233 0 0 1-.187.151 3.189 3.189 0 0 0-.961.9c0 .04-.115.134-.255.209a.686.686 0 0 0-.312.364c-.107.429-.475.323-.673-.193-.036-.095-.113-.172-.17-.172a.119.119 0 0 1-.1-.129.5.5 0 0 0-.177-.284 3.1 3.1 0 0 1-.378-.437 4.854 4.854 0 0 0-1.232-1.211.719.719 0 0 1-.335-.315c-.074-.138-.194-.251-.269-.251a.662.662 0 0 1-.334-.2 1.151 1.151 0 0 0-.447-.262.473.473 0 0 1-.3-.2.242.242 0 0 0-.209-.142.152.152 0 1 1 0-.3.244.244 0 0 0 .21-.145.517.517 0 0 1 .342-.208.518.518 0 0 0 .338-.2.564.564 0 0 1 .362-.2c.171-.037.31-.106.31-.153s.137-.115.3-.151.3-.1.3-.149.114-.111.253-.145.252-.1.252-.149.2-.143.455-.213.454-.164.454-.207.137-.11.3-.147.3-.1.3-.147.139-.108.309-.142a1.05 1.05 0 0 0 .448-.2 1.262 1.262 0 0 1 .55-.2c.226-.036.411-.106.411-.156s.182-.122.4-.159.4-.106.4-.153.25-.141.556-.209a1.327 1.327 0 0 0 .556-.2c0-.041.2-.1.454-.142s.454-.109.454-.157.2-.12.455-.157.454-.1.454-.144a2.183 2.183 0 0 1 .758-.21 2.165 2.165 0 0 0 .757-.212c0-.042.228-.107.505-.144s.505-.1.505-.144a1.176 1.176 0 0 1 .556-.145c.306-.039.556-.106.556-.15a3.138 3.138 0 0 1 .96-.213 3.358 3.358 0 0 0 .96-.207 1.6 1.6 0 0 1 .657-.145 1.618 1.618 0 0 0 .657-.144 4.071 4.071 0 0 1 1.061-.205 3.954 3.954 0 0 0 1.061-.208 2.021 2.021 0 0 1 .759-.149 2.635 2.635 0 0 0 .808-.15 2.478 2.478 0 0 1 .781-.151 2.75 2.75 0 0 0 .783-.145 3.348 3.348 0 0 1 .937-.187c.445-.056.815-.109.824-.117a.652.652 0 0 1-.037.186m11.692 10.609a.119.119 0 0 1-.126.1 3.129 3.129 0 0 0-.726.607 4.155 4.155 0 0 1-.679.6 1.547 1.547 0 0 0-.41.3c-.544.494-.683.608-.74.608a4.166 4.166 0 0 0-.754.513 1.852 1.852 0 0 1-.379.2c-.181.079-.328.177-.328.219s-.062.077-.138.077a.9.9 0 0 0-.387.2 1.666 1.666 0 0 1-.518.263c-.149.037-.27.1-.27.147s-.159.109-.354.145-.354.1-.354.151-.156.115-.347.15-.361.107-.378.158a1.9 1.9 0 0 1-.715.222 1.956 1.956 0 0 0-.682.2 1.7 1.7 0 0 1-.657.14 1.536 1.536 0 0 0-.657.149 3.445 3.445 0 0 1-1.01.15 3.573 3.573 0 0 0-1.01.148 4.05 4.05 0 0 1-1.061.206 4.063 4.063 0 0 0-1.06.205 1.621 1.621 0 0 1-.657.144 1.66 1.66 0 0 0-.657.143 2.259 2.259 0 0 1-.758.208 2.193 2.193 0 0 0-.757.21c0 .042-.2.107-.455.144s-.454.107-.454.154-.182.117-.4.154-.4.1-.4.147-.2.137-.455.207-.454.163-.454.207-.137.11-.3.147-.3.109-.3.16-.07.093-.155.093a.249.249 0 0 0-.213.152.229.229 0 0 1-.174.153 7.533 7.533 0 0 0-2.288 2.282.217.217 0 0 1-.142.175.608.608 0 0 0-.215.389.842.842 0 0 1-.169.4 1 1 0 0 0-.152.48c-.031.23-.1.419-.144.419s-.088.182-.088.4.045.4.1.4.1.07.1.155c0 .386.657.265 1.2-.22.178-.159.57-.527.869-.819a3.181 3.181 0 0 1 .634-.531c.079 0 .234-.112.7-.506a1.2 1.2 0 0 1 .429-.166c.168-.034.305-.1.305-.142a1.223 1.223 0 0 1 .556-.205 1.347 1.347 0 0 0 .555-.2c0-.04.228-.1.505-.139s.505-.1.505-.148a2.56 2.56 0 0 1 .859-.209 2.548 2.548 0 0 0 .859-.209c0-.045.228-.112.505-.15s.505-.111.505-.161c0-.136.389-.111.562.035a12.6 12.6 0 0 1 1.8 1.869c.04.125.107.227.151.227a4.829 4.829 0 0 1 .929.872 3.8 3.8 0 0 0 .354.351 4.091 4.091 0 0 1 .358.354 2.727 2.727 0 0 0 .756.65 1.041 1.041 0 0 1 .335.3c.136.164.3.3.363.3a.877.877 0 0 1 .359.2 3.6 3.6 0 0 0 1 .634 3.222 3.222 0 0 0 .682.278c.068 0 .125.04.125.09s.171.122.379.16a1.6 1.6 0 0 1 .48.152 4.818 4.818 0 0 0 1.571.306c.22 0 .4.045.4.1a3.722 3.722 0 0 0 1.313.1 3.722 3.722 0 0 0 1.313-.1c0-.056.171-.1.379-.1a5.443 5.443 0 0 0 1.744-.3 1.069 1.069 0 0 1 .482-.158c.235-.037.426-.1.426-.137a1.217 1.217 0 0 1 .505-.2c.278-.071.505-.166.505-.21s.113-.11.253-.144.252-.108.252-.163.061-.1.136-.1a.806.806 0 0 0 .369-.2.812.812 0 0 1 .37-.2.56.56 0 0 0 .31-.2.557.557 0 0 1 .3-.2c.071 0 .129-.113.129-.253v-.25h-1.513a6.77 6.77 0 0 0-1.516.086 4.6 4.6 0 0 1-1.237.159 4.812 4.812 0 0 0-1.271.166 9.19 9.19 0 0 1-2.543.008 1.685 1.685 0 0 0-.725-.154 3.011 3.011 0 0 1-.833-.155 2.9 2.9 0 0 0-.689-.215 1.377 1.377 0 0 1-.581-.205c0-.042-.136-.107-.3-.143s-.3-.105-.3-.152-.159-.138-.354-.2-.354-.159-.354-.21-.069-.093-.155-.093a.249.249 0 0 1-.213-.152c-.032-.083-.1-.151-.144-.151a2.827 2.827 0 0 1-.933-.664.288.288 0 0 0-.219-.144.2.2 0 0 1-.172-.08 2.4 2.4 0 0 0-.438-.378 2.857 2.857 0 0 1-.485-.425.268.268 0 0 0-.18-.127 1.162 1.162 0 0 1-.4-.3 1.269 1.269 0 0 0-.378-.3 1.022 1.022 0 0 1-.334-.287 1.488 1.488 0 0 0-.4-.342c-.083-.03.089-.089.381-.13s.531-.11.531-.152.159-.107.354-.143.354-.1.354-.147a1.225 1.225 0 0 1 .555-.2c.306-.068.556-.161.556-.207s.159-.112.354-.149.354-.11.354-.162.11-.1.245-.1a.631.631 0 0 0 .388-.143 1.714 1.714 0 0 1 .562-.269c.231-.069.42-.16.42-.2s.133-.106.295-.142a.531.531 0 0 0 .35-.21.244.244 0 0 1 .21-.145c.085 0 .155-.037.155-.082s.158-.144.35-.219a.843.843 0 0 0 .4-.272.235.235 0 0 1 .207-.134c.085 0 .155-.045.155-.1s.115-.128.255-.163a.624.624 0 0 0 .357-.255c.056-.1.149-.19.205-.19a24.631 24.631 0 0 0 2.516-2.5.6.6 0 0 1 .2-.253.561.561 0 0 0 .2-.326c0-.084.046-.153.1-.153s.147-.114.2-.253.139-.252.192-.252.125-.133.16-.295a.534.534 0 0 1 .21-.35.238.238 0 0 0 .145-.2.2.2 0 0 1 .093-.18.307.307 0 0 0-.082-.589c-.173 0-.315.046-.315.1m7.108 4.713c.036.425.066.971.066 1.212s.046.44.1.44.1.2.1.454c0 .418-.021.455-.253.455-.139 0-.252-.045-.252-.1s-.114-.128-.253-.163-.252-.1-.252-.154-.08-.089-.177-.088a2.569 2.569 0 0 1-1.133-.548 1.71 1.71 0 0 1 .4-.475 1.627 1.627 0 0 0 .4-.495.889.889 0 0 1 .278-.36c.64-.575.733-.678.733-.812 0-.494.184 0 .237.632" transform="translate(-9.72 -16.506)" style="fill:#fb5b4c;fill-rule:evenodd"/>
    </g>
</svg>
