<svg width="305" height="70" viewBox="0 0 305 70" fill="none" xmlns="http://www.w3.org/2000/svg">
<path d="M183.01 11.3133L182.034 13.2139L180.171 16.8729H165.099L166.962 13.2139L167.925 11.3133H183.01Z" fill="#C90000"/>
<path d="M177.1 22.8851L176.611 23.8419L174.247 28.4448H159.201L161.527 23.8419L162.015 22.8851H177.1Z" fill="#C90000"/>
<path d="M171.202 34.4699L171.176 34.5087L168.349 40.0296H153.277L156.091 34.5087L156.117 34.4699H171.202Z" fill="#C90000"/>
<path d="M165.278 46.0417L162.593 51.317L162.452 51.6014H153.714L153.573 51.317L150.887 46.0417H165.278Z" fill="#C90000"/>
<path d="M35.0396 0.72406V25.5874H14.7508V0.72406H0V65.6557H14.7508V39.8744H35.0396V65.6557H49.7904V0.72406H35.0396Z" fill="#001D52"/>
<path d="M103.68 41.5423L96.1116 17.7004L88.5563 41.5423H103.68ZM108.1 55.4544H84.1362L80.9496 65.6557H64.7725L86.706 0.72406H105.517L127.463 65.6557H111.325L108.1 55.4544Z" fill="#001D52"/>
<path d="M245.804 51.3687V65.6557H205.239V0.72406H245.341V15.0111H219.99V25.7684H243.041V39.8744H219.99V51.3687H245.804Z" fill="#001D52"/>
<path d="M273.391 0V20.0536H269.973L262.264 9.16698V20.0536H257.715V0H261.12L268.83 10.8866V0H273.391Z" fill="#001D52"/>
<path d="M281.396 4.40894V8.28777H288.797V12.6838H281.396V20.0536H276.835V0H288.939V4.40894H281.396Z" fill="#001D52"/>
<path d="M305 4.40894H299.86V20.0536H295.312V4.40894H290.172V0H304.974L305 4.40894Z" fill="#001D52"/>
<path d="M144.938 17.8038H142.253L141.392 15.218L140.531 17.8038H137.82L140.056 19.3942L139.208 21.9801L141.341 20.3897L143.602 21.9801L142.767 19.3942L144.938 17.8038Z" fill="#001D52"/>
<path d="M151.62 13.3044H148.934L148.086 10.7185L147.225 13.3044H144.501L146.711 14.9335L145.863 17.5194L148.061 15.9032L150.335 17.5065L149.487 14.9206L151.62 13.3044Z" fill="#001D52"/>
<path d="M144.938 8.76616H142.253L141.392 6.18027L140.531 8.76616H137.82L140.056 10.3435L139.208 12.9294L141.341 11.3391L143.602 12.9294L142.767 10.3435L144.938 8.76616Z" fill="#001D52"/>
<path d="M151.62 22.3291H148.934L148.086 19.7433L147.225 22.3291H144.553L146.763 23.9453L145.915 26.5312L148.112 24.9021L150.335 26.5312L149.487 23.9453L151.62 22.3291Z" fill="#001D52"/>
<path d="M122.851 0.917999L158.044 70L193.315 0.917999H122.851ZM149.05 40.3787L148.202 37.7928L147.38 40.0813L142.24 30.0222L143.602 31.0177L142.767 28.4319L144.938 26.8545H142.253L141.392 24.2686L140.557 26.8545L135.263 16.5109L136.856 17.6746L136.008 15.0887L138.192 13.5113H135.507L134.646 10.9254L133.785 13.5113H133.695L129.686 5.62432H132.629L133.271 6.08978L132.423 8.67566L134.62 7.05948L136.856 8.68859L136.008 6.10271L136.676 5.61139H146.043L146.763 6.14149L145.915 8.72738L148.112 7.1112L150.335 8.46879L150.116 7.75767L154.498 16.3945L154.023 17.8297H151.299L153.509 19.3942L152.661 21.9801L154.858 20.3639L157.094 21.9801L156.644 20.5837L158.083 23.4282L156.374 26.8027H155.744L154.883 24.2169L154.023 26.8027H151.299L153.509 28.4448L152.661 31.0307L154.858 29.4016L155.012 29.5179L149.538 40.3528L149.05 40.3787ZM183.01 11.3133L182.034 13.2139L180.171 16.8729L178.886 19.3554L177.074 22.8851L176.586 23.8419L174.247 28.4448L173.463 30.0092L171.215 34.4699L168.324 40.0813L168.002 40.7148L165.754 45.1626L165.304 46.0418L162.619 51.317L162.477 51.6014L160.319 55.8164L158.044 60.1607L155.834 55.8164L153.676 51.6014L153.534 51.317L150.849 46.0418L150.515 45.3824L153.277 40.0813L156.091 34.5604L158.378 30.0998L159.201 28.4448L161.526 23.8419L162.015 22.8851L163.826 19.3942L165.111 16.9117L166.975 13.2527L167.938 11.3521L169.223 8.76617L170.893 5.41745H185.978L184.295 8.71445L183.01 11.3133Z" fill="#001D52"/>
<path d="M149.5 32.9442L150.348 35.5689L148.112 33.9398L145.915 35.5689L146.763 32.9442L144.553 31.328L147.277 31.341L148.138 28.7163L148.986 31.341L151.671 31.3668L149.5 32.9442Z" fill="#001D52"/>
</svg>
