<svg xmlns="http://www.w3.org/2000/svg" width="194" height="38.801" viewBox="0 0 194 38.801">
    <path data-name="Path 279" d="m28.248 16.3 7.536-7.53 7.539 7.539 4.384-4.384L35.784 0l-11.92 11.92z" transform="translate(-16.383)" style="fill:#fff"/>
    <path data-name="Rectangle 56" transform="rotate(45 -15.932 12.8)" style="fill:#fff" d="M0 0h6.201v6.201H0z"/>
    <path data-name="Path 280" d="m28.234 73.4 7.535 7.535 7.539-7.535 4.387 4.382L35.769 89.7l-11.92-11.92-.006-.006z" transform="translate(-16.368 -50.903)" style="fill:#fff"/>
    <path data-name="Rectangle 57" transform="rotate(135 15.383 17.737)" style="fill:#fff" d="M0 0h6.201v6.201H0z"/>
    <path data-name="Path 281" d="m57.133 53.229-4.448-4.449-3.285 3.288-.378.378-.779.779-.006.006.006.006 4.445 4.445 4.449-4.449z" transform="translate(-33.285 -33.831)" style="fill:#fff"/>
    <path data-name="Path 282" d="M148.37 30.679h9.536a7.275 7.275 0 0 1 5.369 1.822 4.756 4.756 0 0 1 1.408 3.5v.059a5.05 5.05 0 0 1-.219 1.558 4.844 4.844 0 0 1-.584 1.22 4.647 4.647 0 0 1-.847.955A5.678 5.678 0 0 1 162 40.5a6.938 6.938 0 0 1 2.809 1.837 4.7 4.7 0 0 1 1.024 3.219v.059a5.341 5.341 0 0 1-.543 2.469 4.8 4.8 0 0 1-1.556 1.764A7.288 7.288 0 0 1 161.3 50.9a13.121 13.121 0 0 1-3.154.352h-9.776zM156.953 39a4.713 4.713 0 0 0 2.381-.514 1.777 1.777 0 0 0 .882-1.661v-.059a1.812 1.812 0 0 0-.764-1.572 3.775 3.775 0 0 0-2.2-.544h-4.468V39zm1.205 8.289a4.349 4.349 0 0 0 2.351-.544 1.863 1.863 0 0 0 .853-1.69v-.059a1.942 1.942 0 0 0-.794-1.632 4.277 4.277 0 0 0-2.557-.6h-5.232v4.527h5.379z" transform="translate(-102.733 -21.277)" style="fill:#fff"/>
    <path data-name="Path 283" d="M223.875 30.679h4.525v20.576h-4.527z" transform="translate(-155.099 -21.277)" style="fill:#fff"/>
    <path data-name="Path 284" d="M261.02 30.679h4.173l9.641 12.669V30.679h4.466v20.576h-3.85l-9.965-13.08v13.08h-4.465z" transform="translate(-180.861 -21.277)" style="fill:#fff"/>
    <path data-name="Path 285" d="M345.44 30.2h4.174l8.819 20.723H353.7l-1.881-4.615h-8.7l-1.881 4.615h-4.616zm4.76 12.11-2.734-6.672-2.733 6.672z" transform="translate(-233.294 -20.945)" style="fill:#fff"/>
    <path data-name="Path 286" d="M423.738 30.679h4.174l9.641 12.669V30.679h4.468v20.576h-3.85l-9.965-13.08v13.08h-4.468z" transform="translate(-293.713 -21.277)" style="fill:#fff"/>
    <path data-name="Path 287" d="M512.676 50.809a10.658 10.658 0 0 1-4.2-.823 10.144 10.144 0 0 1-5.555-5.614 10.839 10.839 0 0 1-.794-4.145v-.059a10.727 10.727 0 0 1 .794-4.13 10.607 10.607 0 0 1 2.2-3.38 10.218 10.218 0 0 1 3.38-2.293 11.006 11.006 0 0 1 4.351-.838 13.645 13.645 0 0 1 2.63.235 11.015 11.015 0 0 1 2.161.647 9.412 9.412 0 0 1 1.793 1 12.227 12.227 0 0 1 1.528 1.294l-2.88 3.321a10.919 10.919 0 0 0-2.455-1.7 6.256 6.256 0 0 0-2.807-.617 5.7 5.7 0 0 0-4.292 1.881 6.459 6.459 0 0 0-1.235 2.043 6.953 6.953 0 0 0-.44 2.484v.059a7.067 7.067 0 0 0 .44 2.5 6.536 6.536 0 0 0 1.22 2.058 5.653 5.653 0 0 0 4.306 1.911 6.3 6.3 0 0 0 2.983-.647 11.544 11.544 0 0 0 2.425-1.764l2.881 2.91a14.962 14.962 0 0 1-1.646 1.528 9.786 9.786 0 0 1-1.867 1.161 9.674 9.674 0 0 1-2.219.735 13.389 13.389 0 0 1-2.702.243z" transform="translate(-348.076 -20.479)" style="fill:#fff"/>
    <path data-name="Path 288" d="M581.467 30.679h15.49v4.027h-11.022v4.174h9.7v4.027h-9.7v4.321h11.17v4.027h-15.638z" transform="translate(-403.105 -21.277)" style="fill:#fff"/>
</svg>
