<svg xmlns="http://www.w3.org/2000/svg" width="129.414" height="54.971" viewBox="0 0 129.414 54.971">
    <g data-name="Group 157">
        <path d="M223.239 61.857c-.064.026-.08 2.37-.08 11.422v11.39l1.175-.018 1.175-.018.032-3.564.032-3.564.949 1c.522.549.949 1.02.949 1.045s.48.557 1.066 1.181 1.274 1.364 1.529 1.644.709.776 1.01 1.1.667.727.814.892l.267.3 1.5-.017c1.418-.017 1.5-.024 1.526-.14a.18.18 0 0 0-.08-.18.19.19 0 0 1-.1-.127c0-.038-.826-.917-1.835-1.952s-1.835-1.9-1.835-1.929-.387-.442-.86-.925c-2.9-2.959-2.976-3.05-2.894-3.271.024-.065.864-.961 1.866-1.992s1.823-1.9 1.823-1.928a11.393 11.393 0 0 1 .86-.926c.473-.48 1.315-1.35 1.871-1.934 1.619-1.7 1.656-1.545-.369-1.545h-1.563l-.3.308a1.79 1.79 0 0 0-.3.36c0 .049-1.226 1.4-2.061 2.279a3.271 3.271 0 0 0-.385.446 4.172 4.172 0 0 1-.435.5c-.239.253-.6.646-.8.874s-.744.824-1.207 1.325a10.348 10.348 0 0 0-.841.974.259.259 0 0 1-.1.144c-.086.071-.1-.657-.1-6.491 0-6.431 0-6.573-.125-6.638a12.154 12.154 0 0 0-2.177-.024m15.317 1.772a10.212 10.212 0 0 0-.077 2.124V67.8h-2.317v2.06h2.317v5.757c0 3.187.025 5.773.056 5.792a1.1 1.1 0 0 1 .1.42 1.116 1.116 0 0 0 .1.419.446.446 0 0 1 .1.211 1.631 1.631 0 0 0 .343.68.179.179 0 0 1 .081.131 2.577 2.577 0 0 0 .717.722c1.054.6 1.187.63 3.452.658l2.013.025-.018-.987-.02-.988-1.416-.037c-2.107-.056-2.731-.339-2.93-1.333a2.65 2.65 0 0 0-.133-.479c-.034-.065-.059-2.392-.059-5.552v-5.44h4.57V67.8h-4.57v-2.084c0-1.842-.012-2.09-.1-2.124a10.129 10.129 0 0 0-2.2.038m-28.121 3.982a4.878 4.878 0 0 0-.9.112 1.8 1.8 0 0 1-.407.109 1.252 1.252 0 0 0-.354.1 1.019 1.019 0 0 1-.29.1 1.888 1.888 0 0 0-.386.128c-.088.045-.32.15-.515.233a2.642 2.642 0 0 0-.386.189 3.989 3.989 0 0 1-.4.246 9.979 9.979 0 0 0-1.959 1.842l-.3.451a4.942 4.942 0 0 0-.495.889.919.919 0 0 1-.1.269 4.735 4.735 0 0 0-.382 1.138 1.1 1.1 0 0 1-.1.349 1.614 1.614 0 0 0-.094.483 2.353 2.353 0 0 1-.1.541 16.084 16.084 0 0 0 .2 3.991 2 2 0 0 1 .1.386 3.106 3.106 0 0 0 .325.89.93.93 0 0 1 .1.29 7.346 7.346 0 0 0 .924 1.581 13.657 13.657 0 0 0 1.384 1.391.416.416 0 0 1 .166.129.38.38 0 0 0 .2.128.181.181 0 0 1 .135.085 1.165 1.165 0 0 0 .341.228c.159.079.333.169.386.2a6.422 6.422 0 0 0 1.6.58.286.286 0 0 1 .178.064 1.372 1.372 0 0 0 .48.1 2.364 2.364 0 0 1 .546.1 13.606 13.606 0 0 0 3.467-.192 1.033 1.033 0 0 1 .33-.1 6.9 6.9 0 0 0 2.215-.988 9.472 9.472 0 0 0 1.972-2.019 7.907 7.907 0 0 0 .93-2.164c0-.25-.113-.274-1.261-.274-1.168 0-1.314.043-1.314.387a4.03 4.03 0 0 1-.308.749 3.45 3.45 0 0 1-.54.731c-.029 0-.053.04-.053.09 0 .1-.21.292-.966.865a6.372 6.372 0 0 1-1.376.634.857.857 0 0 0-.266.089 8.677 8.677 0 0 1-3.217 0 1 1 0 0 0-.29-.1 6.675 6.675 0 0 1-2.46-1.479 13.076 13.076 0 0 0-.244-.324 5.616 5.616 0 0 1-.9-1.575.774.774 0 0 0-.088-.266 1.93 1.93 0 0 1-.135-.483 1.989 1.989 0 0 0-.1-.412 2.4 2.4 0 0 1-.093-.5l-.044-.4 6.939-.016 6.939-.016-.006-1.48a7.315 7.315 0 0 0-.28-2.693.368.368 0 0 1-.068-.223.871.871 0 0 0-.087-.325 118.67 118.67 0 0 1-.357-.718 5.632 5.632 0 0 0-1.465-2 7.376 7.376 0 0 0-2.681-1.7.913.913 0 0 1-.27-.095 1.332 1.332 0 0 0-.386-.1 1.307 1.307 0 0 1-.391-.1 19.073 19.073 0 0 0-2.183-.177c-.035 0-.417.032-.848.059m44.381 0a4.642 4.642 0 0 0-.869.113 1.727 1.727 0 0 1-.389.106.726.726 0 0 0-.305.1.6.6 0 0 1-.266.1 6.74 6.74 0 0 0-2.063 1.09 1.363 1.363 0 0 1-.324.233 4.439 4.439 0 0 0-.856.875.549.549 0 0 1-.165.223 2.184 2.184 0 0 0-.3.382 1.861 1.861 0 0 1-.178.258 2.11 2.11 0 0 0-.186.322c-.08.159-.192.377-.247.483a4.327 4.327 0 0 0-.4 1c-.079.265-.172.551-.2.634a2.8 2.8 0 0 0-.1.547 1.441 1.441 0 0 1-.111.486 18.908 18.908 0 0 0 0 3.36 1.441 1.441 0 0 1 .111.486 2.794 2.794 0 0 0 .1.547c.033.084.126.369.2.634a6.441 6.441 0 0 0 .222.644 12.5 12.5 0 0 0 .577 1.126c.086.142.177.3.2.349a13.2 13.2 0 0 0 1.85 1.871 2.524 2.524 0 0 1 .491.322 6.881 6.881 0 0 0 1.92.772.294.294 0 0 1 .181.067 1.555 1.555 0 0 0 .53.106 1.449 1.449 0 0 1 .5.094 11.61 11.61 0 0 0 2.242 0 1.438 1.438 0 0 1 .5-.1 2.615 2.615 0 0 0 .564-.1 6.034 6.034 0 0 1 .587-.2 3.7 3.7 0 0 0 1.03-.449 4.41 4.41 0 0 1 .418-.256 10.07 10.07 0 0 0 2.049-2.007c.217-.465.237-.359.237 1.266v1.583l1.175-.018 1.175-.018v-16.8h-2.317l-.032 1.572-.032 1.572-.177-.232a.967.967 0 0 1-.177-.306 11.567 11.567 0 0 0-1.547-1.544.961.961 0 0 1-.311-.183 5.92 5.92 0 0 0-1.393-.691.9.9 0 0 1-.258-.094 1.594 1.594 0 0 0-.386-.117l-.611-.127a14.465 14.465 0 0 0-2.652-.071m-42.728 2.056a7.151 7.151 0 0 1 1.372.31 1.032 1.032 0 0 0 .24.076 4.859 4.859 0 0 1 1.062.545 1 1 0 0 0 .264.162 5.659 5.659 0 0 1 .988 1.007.113.113 0 0 0 .048.1 2.357 2.357 0 0 1 .463.729c.081.177.184.394.228.483a2.01 2.01 0 0 1 .127.483 1.351 1.351 0 0 0 .1.386 2.983 2.983 0 0 1 .1.66l.045.6h-11.565l.042-.37a1.676 1.676 0 0 1 .088-.435 1.272 1.272 0 0 0 .091-.351 1.184 1.184 0 0 1 .1-.354.873.873 0 0 0 .1-.26 2.3 2.3 0 0 1 .133-.386c.049-.106.124-.287.167-.4s.1-.209.133-.209a.063.063 0 0 0 .057-.067 1.448 1.448 0 0 1 .338-.5.109.109 0 0 0 .048-.095 3.458 3.458 0 0 1 .8-.818.527.527 0 0 0 .214-.157 1.257 1.257 0 0 1 .338-.24c.1-.046.19-.1.19-.128a2.83 2.83 0 0 1 .8-.376.882.882 0 0 0 .258-.1 1.659 1.659 0 0 1 .45-.133 1.87 1.87 0 0 0 .394-.094 4.861 4.861 0 0 1 1.77-.061m45.445.126a2.16 2.16 0 0 1 .483.13 1 1 0 0 0 .287.1 5.481 5.481 0 0 1 1.668.955.284.284 0 0 0 .159.107 2.634 2.634 0 0 1 .686.663 1.4 1.4 0 0 0 .225.331 1.2 1.2 0 0 1 .225.349c0 .041.022.074.05.074a5.762 5.762 0 0 1 .83 2.117 1.086 1.086 0 0 0 .109.386 11.824 11.824 0 0 1-.006 2.594 1.3 1.3 0 0 0-.115.429 1.981 1.981 0 0 1-.135.515.792.792 0 0 0-.09.258 2.459 2.459 0 0 1-.249.654 4.744 4.744 0 0 1-.236.418 4.053 4.053 0 0 0-.2.354.379.379 0 0 1-.127.148.176.176 0 0 0-.085.127 8.133 8.133 0 0 1-1.174 1.205 1.441 1.441 0 0 0-.317.193 5.357 5.357 0 0 1-1.782.773.317.317 0 0 0-.194.08 8.917 8.917 0 0 1-2.745-.038c-1.108-.34-1.706-.586-1.706-.7 0-.027-.033-.048-.073-.048a5.539 5.539 0 0 1-1.279-1.042 1.312 1.312 0 0 0-.225-.337 1.2 1.2 0 0 1-.225-.349c0-.04-.024-.074-.053-.074a5.279 5.279 0 0 1-.591-1.173.9.9 0 0 0-.1-.272 1.77 1.77 0 0 1-.137-.483 1.082 1.082 0 0 0-.1-.377 14.728 14.728 0 0 1-.055-2.845 5.675 5.675 0 0 1 .305-1.265 1.035 1.035 0 0 0 .092-.291.494.494 0 0 1 .088-.216 1.244 1.244 0 0 0 .137-.288 2.257 2.257 0 0 1 .234-.438 1.425 1.425 0 0 0 .185-.336 6 6 0 0 1 .628-.714 4.638 4.638 0 0 1 2.076-1.381 2.3 2.3 0 0 0 .423-.165 2.017 2.017 0 0 1 .506-.116 2.1 2.1 0 0 0 .476-.1 11.3 11.3 0 0 1 2.136.094" transform="translate(-135.295 -45.916)" style="fill:#fff;fill-rule:evenodd"/>
        <path d="M37.431 16.571a.754.754 0 0 1-.385.064 5.662 5.662 0 0 0-1.417.193.971.971 0 0 1-.306.1c-.133.025-.241.068-.241.1s-.131.069-.29.093-.29.066-.29.094a.8.8 0 0 1-.354.129c-.194.044-.354.106-.354.138s-.073.077-.161.1-.161.061-.161.086a1.059 1.059 0 0 1-.348.371.438.438 0 0 0-.139.239l-.047.187 1.214-.045a4.208 4.208 0 0 0 1.262-.123 17.253 17.253 0 0 1 3.277-.008 2.132 2.132 0 0 0 .557.151 1.2 1.2 0 0 1 .467.134c0 .029.087.073.193.1s.193.069.193.1.041.059.092.059a.308.308 0 0 1 .18.088.681.681 0 0 0 .233.134 1.048 1.048 0 0 1 .321.218 1.534 1.534 0 0 0 .356.253 1.59 1.59 0 0 1 .352.241 2.635 2.635 0 0 0 .633.483.63.63 0 0 1 .215.193.645.645 0 0 0 .213.193.272.272 0 0 1 .135.08 2.947 2.947 0 0 0 .258.209c.1.071.248.194.336.274l.159.145h-.2c-.108 0-.2.027-.2.059s-.115.078-.257.1a.664.664 0 0 0-.29.1.66.66 0 0 1-.29.1c-.141.024-.257.065-.257.092a.834.834 0 0 1-.354.133.832.832 0 0 0-.354.134c0 .027-.087.068-.193.092S41 22.2 41 22.233s-.1.071-.225.094-.225.066-.225.1-.128.089-.286.133a.607.607 0 0 0-.32.169.153.153 0 0 1-.133.09c-.054 0-.1.024-.1.052s-.1.092-.225.141-.225.112-.225.141-.037.052-.082.052a.355.355 0 0 0-.193.129.355.355 0 0 1-.192.129.261.261 0 0 0-.162.128c-.044.071-.112.129-.152.129a1.053 1.053 0 0 0-.321.258 1.2 1.2 0 0 1-.307.257 2.439 2.439 0 0 0-.587.593 1.129 1.129 0 0 1-.209.272c-.442.475-.554.615-.595.742-.023.072-.065.131-.094.131s-.09.094-.137.209a.671.671 0 0 1-.169.261.191.191 0 0 0-.084.145c0 .051-.029.093-.064.093s-.064.085-.064.189c0 .23.232.343.356.173.042-.058.1-.1.126-.1a2.312 2.312 0 0 0 .4-.354 2.071 2.071 0 0 1 .41-.354.752.752 0 0 0 .243-.193.738.738 0 0 1 .244-.193.357.357 0 0 0 .166-.112 1.17 1.17 0 0 1 .467-.337c.089-.034.163-.089.163-.123s.087-.08.193-.1.193-.069.193-.1.044-.059.1-.059a.155.155 0 0 0 .134-.092.667.667 0 0 1 .352-.173.71.71 0 0 0 .317-.128c0-.026.087-.066.193-.089s.193-.065.193-.093a.917.917 0 0 1 .386-.132.974.974 0 0 0 .386-.129c0-.026.151-.067.336-.092a1.276 1.276 0 0 0 .406-.1 2.254 2.254 0 0 1 .6-.1 1.368 1.368 0 0 0 .528-.1c0-.03.136-.055.3-.055a9.417 9.417 0 0 0 1.758-.2.875.875 0 0 1 .386-.093.852.852 0 0 0 .386-.095c0-.027.145-.069.322-.092s.322-.067.322-.1a.948.948 0 0 1 .4-.138 1.477 1.477 0 0 0 .487-.17.394.394 0 0 1 .241-.085c.086 0 .156-.024.156-.054s.116-.092.258-.139.258-.107.258-.134.087-.068.193-.091.193-.069.193-.1.044-.059.1-.059a.156.156 0 0 0 .134-.093.349.349 0 0 1 .228-.135.351.351 0 0 0 .227-.133.148.148 0 0 1 .126-.091.152.152 0 0 0 .128-.094.278.278 0 0 1 .162-.134 4.43 4.43 0 0 0 1.089-1.11c.05-.114.11-.207.133-.207s.062-.079.086-.176a.443.443 0 0 1 .109-.217 2.27 2.27 0 0 0 .092-1.049c-.041-.218-.424-.376-.424-.174 0 .032-.072.075-.159.1-.15.038-.26.122-.764.586-.115.106-.324.279-.464.384s-.292.228-.339.273a.3.3 0 0 1-.177.083c-.051 0-.092.028-.092.062s-.174.1-.386.142a1 1 0 0 0-.386.125c0 .025-.116.066-.257.089s-.258.066-.258.094-.145.069-.322.093-.322.066-.322.094a1.631 1.631 0 0 1-.547.137 1.589 1.589 0 0 0-.547.139c0 .086-.708.063-.807-.026-.049-.044-.178-.152-.285-.238s-.2-.188-.2-.225a2.47 2.47 0 0 0-.418-.478 3.038 3.038 0 0 1-.418-.461 8 8 0 0 0-1.083-1.092 1.183 1.183 0 0 1-.307-.223l-.363-.322a.389.389 0 0 0-.179-.1.136.136 0 0 1-.1-.093.341.341 0 0 0-.223-.134c-.1-.023-.188-.066-.188-.1s-.1-.092-.225-.137-.225-.1-.225-.13-.1-.067-.225-.091-.225-.064-.225-.091-.122-.068-.272-.092a.676.676 0 0 1-.307-.1 3.592 3.592 0 0 0-1.236-.193.822.822 0 0 1-.406-.065.425.425 0 0 0-.451 0M27.11 18.909a1.182 1.182 0 0 0 .12.577c.186.2.257.3.257.341a3.231 3.231 0 0 0 .6.606 1.287 1.287 0 0 1 .264.225.834.834 0 0 0 .313.225c.048 0 .127.072.174.161s.106.161.13.161a3.773 3.773 0 0 1 .627.6.566.566 0 0 1 .145.23.066.066 0 0 0 .06.071 2.261 2.261 0 0 1 .391.769.064.064 0 0 0 .059.068c.032 0 .079.116.1.258s.065.258.092.258a6.079 6.079 0 0 1 .2 1.864 9.97 9.97 0 0 1-.2 2.191.964.964 0 0 0-.087.386c-.024.213-.068.386-.1.386s-.075.174-.1.386a.888.888 0 0 1-.092.386 2.358 2.358 0 0 0-.133.644 2.394 2.394 0 0 1-.133.644 1.251 1.251 0 0 0-.094.466 1.312 1.312 0 0 1-.114.509 16.2 16.2 0 0 0 0 3 1.455 1.455 0 0 1 .114.543 1.365 1.365 0 0 0 .1.5 1.33 1.33 0 0 1 .128.483 1.285 1.285 0 0 0 .13.483c.029 0 .072.13.1.29s.067.29.1.29.072.1.1.225.064.225.091.225.087.145.132.322.106.322.136.322.072.087.1.193.066.193.094.193.071.072.093.161.067.161.1.161.078.089.1.2a.359.359 0 0 0 .13.231.342.342 0 0 1 .128.221c.023.1.064.188.093.188s.087.087.131.193.106.193.137.193.057.044.057.1a.158.158 0 0 0 .1.136.15.15 0 0 1 .1.124.186.186 0 0 0 .082.138.618.618 0 0 1 .16.228c.042.1.107.177.143.177a.076.076 0 0 1 .066.082.357.357 0 0 0 .128.192.355.355 0 0 1 .129.192c0 .045.1.166.225.269a.782.782 0 0 1 .225.247c0 .061 1.641 1.694 2.127 2.117.392.341.312.4-.444.351a2.425 2.425 0 0 1-.651-.1.846.846 0 0 0-.34-.1c-.168-.025-.306-.072-.306-.105s-.045-.061-.1-.061a2.228 2.228 0 0 1-.8-.384c0-.029-.072-.071-.161-.093s-.161-.065-.161-.1-.094-.094-.209-.142a1.122 1.122 0 0 1-.338-.228l-.234-.259a10.714 10.714 0 0 0-.43-.424 1.808 1.808 0 0 1-.366-.434c-.022-.071-.068-.128-.1-.128s-.089-.073-.123-.161-.088-.161-.12-.161-.078-.076-.1-.169a.732.732 0 0 0-.12-.255 1.02 1.02 0 0 1-.308-.569c-.041-.162-.1-.295-.128-.295s-.073-.1-.1-.225-.063-.225-.088-.225a1.15 1.15 0 0 1-.128-.418 1.062 1.062 0 0 0-.133-.418c-.027 0-.07-.159-.094-.353a1.006 1.006 0 0 0-.1-.386 1.436 1.436 0 0 1-.1-.484 1.157 1.157 0 0 0-.094-.451 9.47 9.47 0 0 1-.2-1.725c0-.148-.026-.27-.057-.27a3.205 3.205 0 0 1-.1-.837 3.638 3.638 0 0 0-.1-.837 3.074 3.074 0 0 1-.1-.772 3.411 3.411 0 0 0-.092-.772 5.3 5.3 0 0 1-.129-.966 4.935 4.935 0 0 0-.133-.966 1.3 1.3 0 0 1-.094-.483 1.34 1.34 0 0 0-.093-.483 2.154 2.154 0 0 1-.132-.612 1.993 1.993 0 0 0-.135-.611c-.028 0-.072-.159-.1-.354s-.068-.354-.1-.354-.073-.131-.1-.29-.065-.29-.092-.29a.948.948 0 0 1-.13-.386.853.853 0 0 0-.138-.386c-.031 0-.055-.07-.055-.156a.394.394 0 0 0-.087-.243.766.766 0 0 1-.131-.324.773.773 0 0 0-.135-.329.66.66 0 0 1-.133-.259c-.023-.093-.066-.169-.094-.169s-.072-.087-.095-.193-.063-.193-.089-.193-.083-.1-.128-.225-.108-.225-.142-.225-.06-.045-.06-.1a.159.159 0 0 0-.1-.136.15.15 0 0 1-.1-.124.186.186 0 0 0-.082-.138.614.614 0 0 1-.16-.228c-.043-.1-.107-.177-.144-.177a.07.07 0 0 1-.066-.073 7.6 7.6 0 0 0-1.193-1.214.359.359 0 0 1-.173-.114 1.029 1.029 0 0 0-.537-.338.777.777 0 0 1-.3-.154 2.815 2.815 0 0 0-1.322.009.12.12 0 0 1-.1.081 1.405 1.405 0 0 0-.5.422 1.77 1.77 0 0 1-.385.543.066.066 0 0 0-.058.071c0 .071-.127.225-.463.56a2.431 2.431 0 0 1-.53.463.833.833 0 0 0-.218.181 1.15 1.15 0 0 1-.287.223c-.061.023-.111.072-.111.109a.079.079 0 0 1-.087.066.525.525 0 0 0-.237.131.881.881 0 0 1-.3.168c-.082.021-.149.064-.149.1s-.044.057-.1.057a.156.156 0 0 0-.134.093.33.33 0 0 1-.218.133.331.331 0 0 0-.216.127.35.35 0 0 1-.225.128.348.348 0 0 0-.227.135.155.155 0 0 1-.134.092c-.054 0-.1.022-.1.049s-.094.09-.209.141a1.336 1.336 0 0 0-.282.161 2.1 2.1 0 0 1-.218.165c-.08.053-.225.161-.323.241a.768.768 0 0 1-.226.145 1.472 1.472 0 0 0-.313.281 1.5 1.5 0 0 1-.406.325.318.318 0 0 0-.184.186.91.91 0 0 1-.228.308.6.6 0 0 0-.185.238.173.173 0 0 1-.081.123.777.777 0 0 0-.177.245.88.88 0 0 1-.16.239 3.49 3.49 0 0 0 .014 1.4c.256.31.393.449.444.449a2.2 2.2 0 0 1 .545.416.363.363 0 0 0 .146.1 8.648 8.648 0 0 1 1.008 1 .577.577 0 0 0 .129.179.473.473 0 0 1 .128.215.146.146 0 0 0 .1.115.159.159 0 0 1 .1.135c0 .054.029.1.064.1s.064.044.064.1a.155.155 0 0 0 .092.134.665.665 0 0 1 .173.352.716.716 0 0 0 .128.317c.026 0 .066.087.089.193s.067.193.1.193.075.13.1.29.065.29.092.29a.948.948 0 0 1 .13.386.935.935 0 0 0 .131.386.865.865 0 0 1 .094.386.872.872 0 0 0 .093.386 2.552 2.552 0 0 1 .132.676 2.5 2.5 0 0 0 .133.676 1.3 1.3 0 0 1 .095.484 1.672 1.672 0 0 0 .1.515 1.5 1.5 0 0 1 .1.482 1.171 1.171 0 0 0 .093.451 1.619 1.619 0 0 1 .122.527 1.954 1.954 0 0 0 .13.563.827.827 0 0 1 .1.341c.025.168.07.306.1.306s.074.116.1.257.07.258.1.258.059.048.059.108c0 .15.145.536.2.536.025 0 .065.087.089.193s.064.193.091.193.083.113.124.25a.854.854 0 0 0 .171.33.266.266 0 0 1 .1.168c0 .049.03.088.066.088s.086.05.109.111a1.142 1.142 0 0 0 .223.287.694.694 0 0 1 .181.236 4.191 4.191 0 0 0 .8.814 3.923 3.923 0 0 1 .359.306.672.672 0 0 0 .25.177c.038 0 .1.058.149.129s.112.129.152.129c.062 0 .129.046.449.312a1.363 1.363 0 0 0 .306.135c.131.043.238.1.238.133s.087.073.193.1.193.065.193.093.131.087.29.132.29.1.29.131.116.07.257.094.258.067.258.1.094.074.209.1a.955.955 0 0 1 .274.095 2.552 2.552 0 0 0 .531.135 1.457 1.457 0 0 1 .466.128 1.206 1.206 0 0 0 .435.089 1.358 1.358 0 0 1 .469.1 3.364 3.364 0 0 0 .79.1 3.327 3.327 0 0 1 .791.1 40.774 40.774 0 0 0 4.285 0 9.246 9.246 0 0 1 1.6-.089c0 .043-1.3 1.307-1.342 1.307a.4.4 0 0 0-.171.128.4.4 0 0 1-.174.129.517.517 0 0 0-.2.146 1.459 1.459 0 0 1-.335.241.767.767 0 0 0-.245.176.192.192 0 0 1-.145.08c-.052 0-.093.027-.093.059s-.089.079-.2.1a.359.359 0 0 0-.231.13.343.343 0 0 1-.221.128c-.1.022-.188.066-.188.1s-.1.075-.225.1-.225.065-.225.093-.145.088-.322.134a.735.735 0 0 0-.322.129c0 .026-.116.066-.258.09s-.258.067-.258.1-.138.072-.306.1a.824.824 0 0 0-.339.1 3.046 3.046 0 0 1-.724.137 2.55 2.55 0 0 0-.691.132 9.145 9.145 0 0 1-1.352.051 9.145 9.145 0 0 1-1.352-.051 2.55 2.55 0 0 0-.691-.132 2.908 2.908 0 0 1-.726-.14.735.735 0 0 0-.323-.1.886.886 0 0 1-.373-.132.393.393 0 0 0-.242-.086c-.086 0-.156-.024-.156-.052s-.145-.09-.322-.135-.322-.108-.322-.14-.072-.075-.161-.1-.161-.064-.161-.093-.087-.071-.193-.095-.193-.067-.193-.1-.089-.074-.2-.1a.359.359 0 0 1-.232-.134c-.019-.05-.059-.091-.089-.091a3.407 3.407 0 0 1-.669-.418.5.5 0 0 0-.193-.1.6.6 0 0 1-.225-.193.624.624 0 0 0-.213-.19 16.555 16.555 0 0 1-1.657-1.675c0-.037-.042-.083-.094-.1a.283.283 0 0 1-.135-.165.78.78 0 0 0-.147-.244 1.507 1.507 0 0 1-.332-.47.306.306 0 0 0-.08-.146 1.093 1.093 0 0 1-.3-.5c-.043-.131-.1-.238-.133-.238s-.073-.087-.1-.193-.065-.193-.092-.193-.082-.112-.124-.25a.847.847 0 0 0-.171-.33.256.256 0 0 1-.1-.14c0-.051-.138-.191-.432-.438a.794.794 0 0 0-.715.043 2.388 2.388 0 0 0-.005 1.376 17.291 17.291 0 0 1 .014 3.268 1.545 1.545 0 0 0-.112.556 2.294 2.294 0 0 1-.1.579 2.485 2.485 0 0 0-.134.565 1.463 1.463 0 0 1-.128.5c-.026 0-.068.13-.092.29s-.071.29-.1.29-.06.045-.06.1a1.415 1.415 0 0 1-.124.372 3.37 3.37 0 0 0-.168.447c-.024.1-.066.175-.094.175s-.069.1-.093.225-.067.225-.1.225-.076.089-.1.2a.359.359 0 0 1-.13.231.342.342 0 0 0-.128.221c-.022.1-.068.188-.1.188s-.059.042-.059.093a.192.192 0 0 1-.081.145.773.773 0 0 0-.177.245 2.093 2.093 0 0 1-.374.547c-.23.279-.357.513-.3.565a2.116 2.116 0 0 0 .924-.176.112.112 0 0 1 .1-.067 4.286 4.286 0 0 0 1.134-1.016.355.355 0 0 1 .113-.152 10.021 10.021 0 0 0 .723-.817c.088-.112.2-.2.242-.2a.355.355 0 0 0 .192-.129.356.356 0 0 1 .185-.128.138.138 0 0 0 .11-.091.358.358 0 0 1 .232-.134c.108-.024.2-.068.2-.1s.087-.073.193-.1.193-.066.193-.1.116-.073.257-.1.258-.066.258-.094a11.672 11.672 0 0 1 4.055 0 1.437 1.437 0 0 0 .467.1 1.057 1.057 0 0 1 .435.1c0 .027.159.069.354.093s.354.067.354.1a2 2 0 0 0 .611.132 2.066 2.066 0 0 1 .612.131 1.206 1.206 0 0 0 .466.1 1.273 1.273 0 0 1 .512.118 16.923 16.923 0 0 0 3.192 0 1.151 1.151 0 0 1 .48-.118 1.167 1.167 0 0 0 .435-.091 1.236 1.236 0 0 1 .432-.126 1.535 1.535 0 0 0 .467-.136.729.729 0 0 1 .307-.1c.151-.025.274-.071.274-.1s.1-.075.225-.1.225-.064.225-.091.13-.086.29-.13.29-.106.29-.136.073-.073.161-.1.161-.064.161-.093.089-.072.2-.1a.358.358 0 0 0 .231-.13.342.342 0 0 1 .221-.128c.1-.022.187-.068.187-.1s.042-.059.093-.059a.193.193 0 0 0 .145-.08.768.768 0 0 1 .245-.177 1.466 1.466 0 0 0 .278-.177.3.3 0 0 1 .17-.08.15.15 0 0 0 .122-.1c.02-.053.067-.1.1-.1a.44.44 0 0 0 .2-.129.427.427 0 0 1 .214-.129c.047 0 .123-.07.169-.156a.431.431 0 0 1 .234-.194.388.388 0 0 0 .204-.179c.038-.071.1-.128.134-.128a.98.98 0 0 0 .3-.225 1.106 1.106 0 0 1 .285-.225 2.525 2.525 0 0 0 .432-.386 2.789 2.789 0 0 1 .426-.386 9.459 9.459 0 0 0 .792-.753l.744-.753-.043.508a1.89 1.89 0 0 1-.093.544 1.406 1.406 0 0 0-.128.418 1.175 1.175 0 0 1-.138.419.443.443 0 0 0-.1.214c-.025.1-.068.176-.1.176s-.088.107-.131.238a1.265 1.265 0 0 1-.4.6.812.812 0 0 0-.177.245A9.789 9.789 0 0 1 34.9 50.2a.29.29 0 0 0-.168.136.152.152 0 0 1-.128.094.154.154 0 0 0-.129.1.152.152 0 0 1-.126.1c-.078 0-.16.055-.473.318a.75.75 0 0 1-.241.1c-.092.023-.166.066-.166.1s-.116.089-.258.132-.258.1-.258.126-.087.068-.193.091-.193.066-.193.1-.145.087-.322.13a1.02 1.02 0 0 0-.356.132.745.745 0 0 1-.321.1c-.159.024-.288.068-.288.1s-.145.074-.322.1-.322.064-.322.089a2.654 2.654 0 0 1-.676.13 2.58 2.58 0 0 0-.676.131 2.276 2.276 0 0 1-.644.094 2.121 2.121 0 0 0-.644.1 4.1 4.1 0 0 1-.9.1 4.713 4.713 0 0 0-.9.091A12.957 12.957 0 0 1 24.7 53a12.708 12.708 0 0 0-1.529.132 2.607 2.607 0 0 1-.66.1 2.249 2.249 0 0 0-.628.092 2.649 2.649 0 0 1-.676.132 2.352 2.352 0 0 0-.676.139c0 .029-.145.072-.322.1s-.322.066-.322.095-.131.072-.29.1-.29.064-.29.09a.845.845 0 0 1-.354.126c-.195.044-.354.1-.354.136s-.1.076-.225.1-.225.066-.225.094-.087.071-.193.094-.193.065-.193.091-.116.087-.258.134-.258.107-.258.135-.063.069-.14.094a1.1 1.1 0 0 0-.444.3.529.529 0 0 1-.159.113 2.688 2.688 0 0 0-.619.467.869.869 0 0 1-.218.177 2.746 2.746 0 0 0-.607.606.662.662 0 0 1-.186.225.915.915 0 0 0-.23.311c-.025.08-.072.145-.1.145s-.06.045-.06.1a.156.156 0 0 1-.093.134.34.34 0 0 0-.134.223c-.023.1-.062.188-.088.188s-.085.109-.133.241a.783.783 0 0 1-.154.285 2.307 2.307 0 0 0 .021 1.233 3.049 3.049 0 0 0 .7.686.145.145 0 0 1 .114.1.147.147 0 0 0 .117.1 1.013 1.013 0 0 1 .331.227l.554.5a1.6 1.6 0 0 1 .306.324 1 1 0 0 0 .2.257 1.253 1.253 0 0 1 .23.319c.02.062.063.112.1.112s.06.042.06.093a.193.193 0 0 0 .081.145.773.773 0 0 1 .177.245 1.91 1.91 0 0 0 .161.271l.137.166a.823.823 0 0 1 .117.227c.025.077.068.14.1.14s.071.07.092.156a.638.638 0 0 0 .12.241 1.29 1.29 0 0 1 .164.246c.2.4.28.515.331.515.029 0 .073.075.1.166a.78.78 0 0 0 .2.313.5.5 0 0 1 .158.219c0 .04.058.109.129.153s.129.114.129.157a4.4 4.4 0 0 0 1.006.987c.048 0 .088.03.088.066s.051.086.113.109a.77.77 0 0 1 .191.111c.043.038.12.1.172.146a2.032 2.032 0 0 0 1.125.2 1.27 1.27 0 0 0 1.073-.77c.021-.066.065-.12.1-.12s.06-.042.06-.094a.233.233 0 0 1 .128-.163.233.233 0 0 0 .129-.163c0-.052.024-.094.054-.094s.091-.069.136-.154a.663.663 0 0 1 .229-.232.662.662 0 0 0 .228-.231.44.44 0 0 1 .207-.192.767.767 0 0 0 .239-.146 1.209 1.209 0 0 1 .5-.332c.046 0 .084-.023.084-.051s.1-.088.225-.133.225-.107.225-.139.1-.077.225-.1.225-.066.225-.094.087-.071.193-.094.193-.065.193-.093a.923.923 0 0 1 .386-.132.948.948 0 0 0 .386-.13c0-.027.131-.068.29-.092s.29-.067.29-.1.159-.073.354-.1.354-.067.354-.1a2.64 2.64 0 0 1 .708-.135 2.841 2.841 0 0 0 .708-.132 1.328 1.328 0 0 1 .483-.093 1.344 1.344 0 0 0 .483-.092 2.611 2.611 0 0 1 .676-.131 2.535 2.535 0 0 0 .676-.132.878.878 0 0 1 .386-.093c.212-.025.386-.07.386-.1s.145-.075.322-.1.322-.063.322-.088a.87.87 0 0 1 .354-.131.8.8 0 0 0 .354-.136c0-.028.1-.07.225-.093s.225-.066.225-.094.085-.071.188-.093a.34.34 0 0 0 .221-.128.35.35 0 0 1 .225-.128.349.349 0 0 0 .228-.135.154.154 0 0 1 .134-.093c.054 0 .1-.028.1-.063s.073-.081.163-.1a.4.4 0 0 0 .227-.162c.036-.067.095-.121.131-.121a8.3 8.3 0 0 0 1.153-1.141.621.621 0 0 1 .161-.2.5.5 0 0 0 .16-.241c0-.049.03-.09.066-.09s.086-.051.109-.113a.761.761 0 0 1 .111-.191 1.182 1.182 0 0 0 .3-.47c.036-.106.09-.192.118-.192s.069-.072.091-.161.068-.161.1-.161.079-.1.1-.225.064-.225.089-.225.082-.116.124-.258.1-.258.132-.258.074-.13.1-.29.067-.29.1-.29a1 1 0 0 0 .137-.418 1.077 1.077 0 0 1 .133-.419.859.859 0 0 0 .093-.386.874.874 0 0 1 .092-.386 1.4 1.4 0 0 0 .1-.5 1.7 1.7 0 0 1 .1-.532 33.612 33.612 0 0 0 .132-5.08c-.038-1.042-.058-1.9-.046-1.916a5.915 5.915 0 0 1 .942.95.841.841 0 0 0 .225.272.9.9 0 0 1 .225.264.492.492 0 0 0 .145.194 1.4 1.4 0 0 1 .241.329.763.763 0 0 0 .177.244.193.193 0 0 1 .08.145c0 .051.023.093.052.093s.088.1.133.225.106.225.137.225.074.087.1.193.067.193.1.193.073.087.1.193.066.193.1.193.087.145.13.322.1.322.128.322.07.1.093.225.068.225.1.225.078.138.1.306a.832.832 0 0 0 .1.341 1.92 1.92 0 0 1 .129.547 1.892 1.892 0 0 0 .13.548 4.337 4.337 0 0 1 .1.917 3.705 3.705 0 0 0 .1.881c.03 0 .054.13.054.29s-.025.29-.055.29a2.908 2.908 0 0 0-.094.778 3.906 3.906 0 0 1-.1.853 2.821 2.821 0 0 0-.142.638 1.818 1.818 0 0 1-.131.563c-.027 0-.068.116-.092.258s-.069.257-.1.257-.075.1-.1.225-.064.225-.091.225-.086.13-.13.29-.1.29-.132.29-.07.087-.093.193-.068.193-.1.193-.076.072-.1.161-.063.161-.091.161-.067.067-.088.149a.9.9 0 0 1-.168.3.522.522 0 0 0-.131.237.079.079 0 0 1-.066.087c-.036 0-.094.072-.127.161s-.091.161-.127.161-.066.043-.066.1a.717.717 0 0 1-.225.3.886.886 0 0 0-.225.263 13.178 13.178 0 0 1-1.473 1.466.621.621 0 0 0-.223.193.652.652 0 0 1-.218.193 1.517 1.517 0 0 0-.474.336.754.754 0 0 1-.278.151.3.3 0 0 0-.19.124.36.36 0 0 1-.23.128c-.109.024-.2.07-.2.1s-.044.059-.1.059a.157.157 0 0 0-.135.095.382.382 0 0 1-.256.136c-.121.022-.219.064-.219.092s-.145.088-.322.134-.322.1-.322.132-.1.068-.225.092-.225.068-.225.1-.073.057-.161.057c-.169 0-.205.081-.1.212.474.564.44.558 2.946.542a11.518 11.518 0 0 1 2.124.058 1.484 1.484 0 0 0 .559.117 1.885 1.885 0 0 1 .547.1.9.9 0 0 0 .349.093 1.266 1.266 0 0 1 .386.1 2.092 2.092 0 0 0 .473.137 1.019 1.019 0 0 1 .4.131c0 .027.13.068.29.092s.29.068.29.1.145.089.322.131.322.1.322.13.087.072.193.1.193.068.193.1.072.076.161.1.161.062.161.09.128.085.285.129a.609.609 0 0 1 .32.17.152.152 0 0 0 .133.089c.054 0 .1.029.1.065s.044.064.1.064a.159.159 0 0 1 .135.1.145.145 0 0 0 .115.1.471.471 0 0 1 .216.129.489.489 0 0 0 .2.129.171.171 0 0 1 .115.091c.14.249.405.193.405-.084 0-.146-.029-.265-.064-.265s-.065-.056-.065-.126c0-.159-.132-.453-.2-.453-.03 0-.054-.033-.054-.072a9.172 9.172 0 0 0-1.188-1.215A7.331 7.331 0 0 1 44.7 66.12a.069.069 0 0 0-.063-.073c-.035 0-.081-.07-.1-.156a.3.3 0 0 0-.124-.189.359.359 0 0 1-.128-.23c-.024-.108-.067-.2-.1-.2s-.073-.116-.1-.258-.068-.258-.1-.258-.075-.138-.1-.306a.738.738 0 0 0-.117-.352 14.382 14.382 0 0 1 0-2.934 1.271 1.271 0 0 0 .118-.512 1.151 1.151 0 0 1 .1-.466.936.936 0 0 0 .1-.418 1.044 1.044 0 0 1 .091-.418 1.8 1.8 0 0 0 .132-.547 1.806 1.806 0 0 1 .132-.547 1.124 1.124 0 0 0 .093-.434 1.452 1.452 0 0 1 .1-.467 14.382 14.382 0 0 0 0-4.506 1 1 0 0 1-.1-.37c-.025-.186-.067-.338-.093-.338a1.011 1.011 0 0 1-.121-.4 1.273 1.273 0 0 0-.132-.435.529.529 0 0 1-.1-.246c-.025-.115-.069-.209-.1-.209s-.071-.1-.094-.225-.066-.225-.1-.225-.09-.131-.134-.29-.106-.29-.137-.29-.056-.041-.056-.092a.308.308 0 0 0-.088-.18.716.716 0 0 1-.138-.246 1.2 1.2 0 0 0-.17-.311.6.6 0 0 1-.12-.212.275.275 0 0 0-.066-.136c-.262-.311-.321-.4-.321-.476a.151.151 0 0 0-.1-.126.145.145 0 0 1-.1-.112.357.357 0 0 0-.129-.186.357.357 0 0 1-.128-.2.153.153 0 0 0-.1-.127.15.15 0 0 1-.1-.122.533.533 0 0 0-.19-.244.59.59 0 0 1-.193-.228 1.012 1.012 0 0 0-.228-.3 1.283 1.283 0 0 1-.225-.273c0-.022-.536-.575-1.191-1.228s-1.191-1.2-1.191-1.218a1.975 1.975 0 0 1 .483-.03 1.1 1.1 0 0 1 .483.055c0 .031.161.072.359.092a1.283 1.283 0 0 1 .435.1.953.953 0 0 0 .317.108c.133.025.241.068.241.1s.085.071.188.093a.9.9 0 0 1 .332.166.5.5 0 0 0 .224.125.146.146 0 0 1 .117.1.159.159 0 0 0 .136.1c.054 0 .1.029.1.066s.075.1.166.141a5.89 5.89 0 0 1 1.111 1.08.85.85 0 0 0 .185.212.183.183 0 0 1 .082.135.378.378 0 0 0 .129.2.377.377 0 0 1 .129.2c0 .048.029.087.064.087s.065.042.065.093a.19.19 0 0 0 .087.145.7.7 0 0 1 .171.307 1.107 1.107 0 0 0 .17.343.3.3 0 0 1 .087.179c0 .051.028.092.061.092s.08.1.1.225.064.225.091.225a1.379 1.379 0 0 1 .134.483 1.482 1.482 0 0 0 .131.483.728.728 0 0 1 .092.338.981.981 0 0 0 .1.371 4.9 4.9 0 0 1 .134.917 4.582 4.582 0 0 0 .128.885 6.843 6.843 0 0 1 .091 1.094 6.574 6.574 0 0 0 .094 1.094 7.058 7.058 0 0 1 .094 1.142 8.15 8.15 0 0 0 .093 1.175 5.187 5.187 0 0 1 .13.9 4.837 4.837 0 0 0 .133.9 1.283 1.283 0 0 1 .1.435.925.925 0 0 0 .1.4c.027 0 .068.139.091.31a4.171 4.171 0 0 0 .169.674 2.513 2.513 0 0 1 .128.463c0 .054.026.1.057.1s.077.13.1.29.068.29.1.29.089.145.131.322.1.322.128.322.07.1.093.225.068.225.1.225.078.1.1.225.064.225.09.225.081.116.124.258.1.258.134.258.075.087.1.193.067.193.1.193.092.1.137.225.1.225.133.225.052.039.052.087a.515.515 0 0 0 .129.235.514.514 0 0 1 .129.235c0 .048.025.087.057.087s.092.087.137.193.105.193.137.193.056.042.056.093a.193.193 0 0 0 .081.145.769.769 0 0 1 .177.241 7.139 7.139 0 0 0 1.239 1.275c.062.024.113.071.113.1s.087.08.193.1.193.066.193.094c0 .259 1.574.24 1.837-.022a.348.348 0 0 1 .167-.1 1.347 1.347 0 0 0 .443-.463.9.9 0 0 1 .177-.244c.1-.108.278-.313.4-.456a6.474 6.474 0 0 1 .753-.757c.41-.358.551-.462.625-.462.039 0 .107-.058.152-.128a.264.264 0 0 1 .177-.129c.053 0 .1-.029.1-.065s.039-.064.087-.064c.076 0 .158-.055.471-.318a.758.758 0 0 1 .246-.106.325.325 0 0 0 .2-.127.331.331 0 0 1 .215-.125.331.331 0 0 0 .218-.133.156.156 0 0 1 .134-.093c.054 0 .1-.024.1-.052s.1-.092.223-.14a.534.534 0 0 0 .256-.173.15.15 0 0 1 .132-.085c.054 0 .1-.026.1-.057s.087-.092.193-.137.193-.105.193-.137.038-.057.084-.057a.536.536 0 0 0 .241-.19.592.592 0 0 1 .228-.193 1.517 1.517 0 0 0 .541-.531.6.6 0 0 1 .183-.238 1.319 1.319 0 0 0 .273-.376c.049-.115.11-.209.134-.209s.064-.094.089-.209a.506.506 0 0 1 .118-.255 1.841 1.841 0 0 0-.008-1.064.122.122 0 0 1-.081-.1.531.531 0 0 0-.184-.266.594.594 0 0 1-.16-.2c0-.028-.087-.081-.193-.119s-.193-.1-.193-.135-.045-.068-.1-.068a.159.159 0 0 1-.136-.1.153.153 0 0 0-.128-.1.792.792 0 0 1-.31-.225.942.942 0 0 0-.279-.225c-.033 0-.115-.077-.183-.172a4.083 4.083 0 0 0-.315-.373 2.045 2.045 0 0 1-.29-.391 1.94 1.94 0 0 0-.161-.268l-.142-.172a.787.787 0 0 1-.12-.26c-.023-.092-.064-.166-.091-.166s-.086-.13-.13-.29-.1-.29-.13-.29-.068-.1-.091-.225-.063-.221-.092-.221a.893.893 0 0 1-.135-.388 1.362 1.362 0 0 0-.133-.419 1.025 1.025 0 0 1-.095-.384c-.024-.194-.067-.353-.1-.353a.944.944 0 0 1-.1-.418.983.983 0 0 0-.095-.418 3.155 3.155 0 0 1-.133-.772 3.386 3.386 0 0 0-.13-.772 1.345 1.345 0 0 1-.092-.483 1.239 1.239 0 0 0-.1-.483.952.952 0 0 1-.1-.418 1.068 1.068 0 0 0-.09-.418 1.525 1.525 0 0 1-.122-.5 1.736 1.736 0 0 0-.134-.531.6.6 0 0 1-.1-.277c-.025-.133-.068-.241-.1-.241s-.067-.087-.089-.193l-.079-.386c-.022-.106-.062-.193-.09-.193s-.068-.072-.09-.161-.067-.161-.1-.161-.077-.087-.1-.193-.066-.193-.094-.193-.087-.087-.132-.193-.105-.193-.137-.193-.057-.045-.057-.1a.159.159 0 0 0-.1-.136.145.145 0 0 1-.1-.112.343.343 0 0 0-.113-.18 2.174 2.174 0 0 1-.4-.463 2.059 2.059 0 0 0-.589-.546.687.687 0 0 1-.25-.237.422.422 0 0 0-.232-.187c-.084-.021-.153-.067-.153-.1s-.072-.092-.161-.126-.161-.088-.161-.12-.072-.077-.161-.1-.161-.066-.161-.1-.1-.092-.225-.133-.225-.1-.225-.127-.072-.071-.161-.093-.161-.067-.161-.1-.087-.077-.193-.1-.193-.066-.193-.1-.145-.088-.322-.13-.322-.1-.322-.131-.131-.073-.29-.1-.29-.065-.29-.092a.96.96 0 0 0-.386-.13.93.93 0 0 1-.386-.131.935.935 0 0 0-.4-.1 1.221 1.221 0 0 1-.437-.1 1.842 1.842 0 0 0-.563-.1 1.631 1.631 0 0 1-.529-.09 43.025 43.025 0 0 0-5.912-.089l-.988.044.569-.572a8.646 8.646 0 0 1 .795-.725 1.2 1.2 0 0 0 .277-.242.189.189 0 0 1 .145-.088c.051 0 .093-.03.093-.066s.072-.094.161-.127.161-.091.161-.127.041-.066.092-.066a.308.308 0 0 0 .18-.088.672.672 0 0 1 .23-.133c.078-.025.142-.07.142-.1s.108-.091.239-.134a1.053 1.053 0 0 0 .327-.166.3.3 0 0 1 .179-.087c.051 0 .092-.026.092-.059s.145-.1.322-.141.322-.1.322-.132.1-.068.225-.091.225-.066.225-.1.13-.073.29-.1.29-.066.29-.093a1.617 1.617 0 0 1 .552-.113 2.063 2.063 0 0 0 .566-.135 2.684 2.684 0 0 1 .692-.1 2.079 2.079 0 0 0 .657-.1 5.474 5.474 0 0 1 1.545 0 1.893 1.893 0 0 0 .623.1 2.486 2.486 0 0 1 .66.094 1.983 1.983 0 0 0 .549.131 1.76 1.76 0 0 1 .549.138.668.668 0 0 0 .309.1c.15.024.272.066.272.093s.1.068.225.091.225.067.225.1.145.09.322.132.322.1.322.135.041.058.092.058a.3.3 0 0 1 .177.082 2.885 2.885 0 0 0 .455.268 1.153 1.153 0 0 1 .37.239c0 .03.042.054.093.054a.192.192 0 0 1 .145.08.757.757 0 0 0 .245.176 1.5 1.5 0 0 1 .36.273.709.709 0 0 0 .215.178 2.411 2.411 0 0 1 .405.354 2.177 2.177 0 0 0 .413.354.663.663 0 0 1 .313.311.843.843 0 0 0 .209.249c.267.25.435.454.435.532 0 .034.058.092.128.13a.4.4 0 0 1 .167.223.3.3 0 0 0 .13.189.149.149 0 0 1 .091.127.154.154 0 0 0 .1.129.159.159 0 0 1 .1.135c0 .054.027.1.06.1s.1.1.142.225.1.225.133.225.051.044.051.1a.154.154 0 0 0 .091.133.323.323 0 0 1 .133.2 3.382 3.382 0 0 0 .167.442 1.6 1.6 0 0 1 .124.34.067.067 0 0 0 .065.068.075.075 0 0 1 .064.082.331.331 0 0 0 .113.184 2.535 2.535 0 0 1 .225.24c.208.257.821.14.821-.157 0-.051.029-.092.065-.092.1 0 .081-.692-.016-.724a24.86 24.86 0 0 1-.013-3.961 2.556 2.556 0 0 0 .15-.721 2.991 2.991 0 0 1 .135-.708.83.83 0 0 0 .1-.339c.025-.168.069-.306.1-.306s.071-.116.1-.258.067-.257.095-.257.067-.08.087-.177c.084-.415.133-.566.215-.647a.3.3 0 0 0 .086-.178c0-.051.029-.092.065-.092s.064-.07.064-.156a.394.394 0 0 1 .087-.243 1.046 1.046 0 0 0 .166-.326c.044-.132.105-.24.137-.24s.077-.072.1-.161.059-.161.082-.161.083-.094.134-.209a1.224 1.224 0 0 1 .177-.294.3.3 0 0 0 .084-.17.15.15 0 0 1 .1-.122c.053-.02.1-.067.1-.1a.44.44 0 0 1 .129-.2c.225-.224.171-.386-.129-.386-.141 0-.257.026-.257.057s-.1.075-.213.1a1 1 0 0 0-.36.152 6.494 6.494 0 0 0-.908.9.624.624 0 0 1-.19.213.6.6 0 0 0-.193.228A4.543 4.543 0 0 1 59 36.709c-.033 0-.076.041-.095.091a.359.359 0 0 1-.232.134c-.108.024-.2.067-.2.1s-.1.071-.225.094-.248.072-.248.095a3.74 3.74 0 0 1-1.156.2.477.477 0 0 0-.292.064 3.908 3.908 0 0 1-1.368.006 5.439 5.439 0 0 0-.884-.135 3.913 3.913 0 0 1-.8-.126 1.138 1.138 0 0 0-.4-.095 1.114 1.114 0 0 1-.4-.1 2.441 2.441 0 0 0-.612-.133 1.979 1.979 0 0 1-.582-.131 1.1 1.1 0 0 0-.435-.094 1.338 1.338 0 0 1-.469-.1 3.018 3.018 0 0 0-.756-.1 2.5 2.5 0 0 1-.722-.1 5.475 5.475 0 0 0-1.545 0 2.079 2.079 0 0 1-.657.1 2.6 2.6 0 0 0-.692.1 1.2 1.2 0 0 1-.438.1.883.883 0 0 0-.4.1 1.136 1.136 0 0 1-.451.128 1.152 1.152 0 0 0-.451.127c0 .028-.1.07-.225.093s-.225.07-.225.1-.051.062-.113.062a2.816 2.816 0 0 0-.982.394c0 .025-.087.064-.193.088s-.193.067-.193.1-.089.074-.2.1a.357.357 0 0 0-.231.13.343.343 0 0 1-.221.128c-.1.022-.188.068-.188.1s-.042.059-.093.059a.192.192 0 0 0-.145.08.772.772 0 0 1-.245.177 1.816 1.816 0 0 0-.477.323.548.548 0 0 1-.239.127c-.047 0-.115.058-.153.129s-.1.129-.136.129a.749.749 0 0 0-.26.193.811.811 0 0 1-.249.193 1.782 1.782 0 0 0-.373.322 2.069 2.069 0 0 1-.362.322 7.889 7.889 0 0 0-1 1 2.033 2.033 0 0 1-.322.363 1.882 1.882 0 0 0-.322.369 1.186 1.186 0 0 1-.351.392 3.607 3.607 0 0 1-.035-.708 2.2 2.2 0 0 1 .059-.708c.032 0 .078-.145.1-.322a.677.677 0 0 1 .089-.322c.025 0 .081-.133.124-.3a1.279 1.279 0 0 1 .158-.384.987.987 0 0 0 .274-.419.535.535 0 0 1 .169-.24c.066-.046.119-.112.119-.145a10.067 10.067 0 0 1 1.2-1.219.557.557 0 0 0 .183-.15 1.256 1.256 0 0 1 .345-.241c.114-.05.207-.113.207-.14s.039-.049.087-.049a.5.5 0 0 0 .231-.125.89.89 0 0 1 .332-.166c.1-.023.188-.065.188-.093s.1-.071.225-.094.225-.068.225-.1.131-.077.29-.1.29-.067.29-.1a1.278 1.278 0 0 1 .483-.134 1.43 1.43 0 0 0 .483-.128 1.034 1.034 0 0 1 .418-.092.983.983 0 0 0 .418-.095 2.2 2.2 0 0 1 .644-.1 2.28 2.28 0 0 0 .644-.094 10.566 10.566 0 0 1 1.416-.131 11.208 11.208 0 0 0 1.416-.128 3.244 3.244 0 0 1 .756-.091 2.776 2.776 0 0 0 .77-.089c.012-.033.128-.061.258-.061a5.054 5.054 0 0 0 .622-.063c.212-.034.48-.069.6-.078s.209-.037.209-.063a.893.893 0 0 1 .386-.091.852.852 0 0 0 .386-.093.855.855 0 0 1 .386-.094.823.823 0 0 0 .386-.1 1.137 1.137 0 0 1 .451-.128 1.131 1.131 0 0 0 .45-.129c0-.029.116-.073.258-.1s.258-.065.258-.091a1.119 1.119 0 0 1 .418-.13 1.065 1.065 0 0 0 .418-.133c0-.028.1-.069.225-.093s.225-.07.225-.1.07-.061.156-.061a.4.4 0 0 0 .241-.084 1.432 1.432 0 0 1 .455-.171.887.887 0 0 0 .37-.137c0-.027.087-.068.193-.091s.193-.068.193-.1.072-.076.161-.1.161-.062.161-.089.13-.086.29-.13.29-.106.29-.137.039-.056.087-.056a.514.514 0 0 0 .235-.129.515.515 0 0 1 .237-.129.152.152 0 0 0 .126-.1.154.154 0 0 1 .129-.1.154.154 0 0 0 .129-.1.148.148 0 0 1 .119-.1A5.731 5.731 0 0 0 59.96 30.8c.023-.071.066-.129.1-.129s.093-.1.138-.225.1-.225.126-.225.063-.1.086-.221.071-.231.108-.243a2.032 2.032 0 0 0 0-1.067.124.124 0 0 1-.074-.113.187.187 0 0 0-.08-.139.729.729 0 0 1-.172-.228c-.05-.1-.126-.177-.169-.177a1.435 1.435 0 0 1-.391-.32 1.939 1.939 0 0 0-.365-.322 4.538 4.538 0 0 1-.818-.817.374.374 0 0 0-.129-.168.355.355 0 0 1-.129-.192.26.26 0 0 0-.129-.162.265.265 0 0 1-.129-.176c0-.053-.027-.1-.06-.1s-.08-.064-.1-.142a.74.74 0 0 0-.117-.223 1.392 1.392 0 0 1-.3-.456c-.051-.115-.114-.209-.141-.209s-.048-.04-.048-.088a.574.574 0 0 0-.125-.246 1.056 1.056 0 0 1-.167-.326.317.317 0 0 0-.133-.2.154.154 0 0 1-.091-.133c0-.054-.029-.1-.064-.1s-.064-.045-.064-.1a.153.153 0 0 0-.091-.133.273.273 0 0 1-.126-.175 1.821 1.821 0 0 0-.475-.675.951.951 0 0 1-.209-.289 5.23 5.23 0 0 0-1.067-1.011.776.776 0 0 1-.239-.177.193.193 0 0 0-.145-.081c-.051 0-.093-.024-.093-.054s-.123-.091-.273-.136a.831.831 0 0 1-.314-.146 1.762 1.762 0 0 0-1.1.039.205.205 0 0 1-.153.1.168.168 0 0 0-.137.113.973.973 0 0 1-.215.274.89.89 0 0 0-.217.3.3.3 0 0 1-.137.175c-.052.02-.094.065-.094.1a7.2 7.2 0 0 1-1 1.036 1.057 1.057 0 0 0-.247.193 1.247 1.247 0 0 1-.318.23c-.062.02-.113.063-.113.1s-.042.06-.093.06a.189.189 0 0 0-.145.087.712.712 0 0 1-.307.171 1.107 1.107 0 0 0-.343.17.305.305 0 0 1-.179.087c-.051 0-.092.027-.092.059s-.087.078-.193.1-.193.066-.193.095a1.024 1.024 0 0 1-.418.135 1.123 1.123 0 0 0-.418.13c0 .026-.145.066-.322.091s-.322.066-.322.093a2.543 2.543 0 0 1-.676.132 2.457 2.457 0 0 0-.676.133 1.8 1.8 0 0 1-.579.1 1.838 1.838 0 0 0-.579.094 1.662 1.662 0 0 1-.547.094 1.758 1.758 0 0 0-.547.091 2.315 2.315 0 0 1-.625.125 2.638 2.638 0 0 0-.66.133.832.832 0 0 1-.341.1c-.168.025-.306.069-.306.1s-.13.073-.29.1-.29.068-.29.1-.093.075-.206.1a1.6 1.6 0 0 0-.695.347c0 .026-.113.081-.25.122a.854.854 0 0 0-.33.171.257.257 0 0 1-.134.1 14.276 14.276 0 0 0-1.733 1.64.511.511 0 0 1-.145.188 1.4 1.4 0 0 0-.236.313c-.05.1-.115.177-.145.177s-.053.044-.053.1a.156.156 0 0 1-.093.134.33.33 0 0 0-.133.218.331.331 0 0 1-.127.216.36.36 0 0 0-.13.231c-.024.108-.067.2-.1.2s-.071.076-.094.169a.665.665 0 0 1-.136.262.4.4 0 0 0-.093.245.411.411 0 0 1-.1.252.706.706 0 0 0-.137.326c-.02.124-.059.226-.085.226s-.068.1-.091.223a1.726 1.726 0 0 1-.131.393 2.073 2.073 0 0 0-.133.55.817.817 0 0 1-.094.379 1.035 1.035 0 0 0-.1.435 1.379 1.379 0 0 1-.1.468 3.251 3.251 0 0 0-.1.772 3.661 3.661 0 0 1-.106.816 51.111 51.111 0 0 0 .011 5.129 1.284 1.284 0 0 1 .034.684 11.137 11.137 0 0 1-1.251-1.31c-.05-.094-.115-.171-.145-.171s-.053-.042-.053-.094a.234.234 0 0 0-.129-.163.234.234 0 0 1-.129-.163c0-.052-.026-.094-.058-.094s-.088-.087-.125-.193-.1-.193-.13-.193-.082-.087-.105-.193-.067-.193-.1-.193-.092-.1-.137-.225-.1-.225-.126-.225-.063-.072-.085-.161-.067-.161-.1-.161-.08-.108-.105-.24a.773.773 0 0 0-.132-.326.388.388 0 0 1-.087-.238.392.392 0 0 0-.091-.243.909.909 0 0 1-.136-.391c-.025-.165-.066-.3-.093-.3a1.474 1.474 0 0 1-.132-.5 1.952 1.952 0 0 0-.135-.533 2.553 2.553 0 0 1-.1-.66 1.9 1.9 0 0 0-.1-.625 5.207 5.207 0 0 1-.055-1.062 5.209 5.209 0 0 1 .055-1.062 1.544 1.544 0 0 0 .1-.56 2.079 2.079 0 0 1 .1-.6 1.94 1.94 0 0 0 .136-.534 1.447 1.447 0 0 1 .134-.5c.027 0 .069-.116.093-.258s.064-.257.09-.257a.742.742 0 0 0 .129-.322c.045-.177.107-.322.138-.322s.074-.1.1-.225.068-.225.1-.225.057-.039.057-.087a.5.5 0 0 1 .125-.231.881.881 0 0 0 .165-.326.331.331 0 0 1 .133-.218.156.156 0 0 0 .093-.134c0-.054.029-.1.064-.1s.065-.044.065-.1a.393.393 0 0 1 .118-.214.816.816 0 0 0 .159-.225c.022-.059.071-.108.108-.108a.078.078 0 0 0 .066-.085.5.5 0 0 1 .161-.237.577.577 0 0 0 .161-.206 17.363 17.363 0 0 1 1.593-1.6.644.644 0 0 0 .211-.178 1.212 1.212 0 0 1 .336-.256c.1-.043.177-.108.177-.144s.045-.066.1-.066a.159.159 0 0 0 .135-.1.155.155 0 0 1 .129-.1.15.15 0 0 0 .127-.092.329.329 0 0 1 .218-.133.88.88 0 0 0 .326-.165.5.5 0 0 1 .231-.125c.047 0 .087-.025.087-.056s.13-.093.29-.137.29-.1.29-.13.1-.068.225-.091.225-.067.225-.1.116-.075.258-.1.257-.07.257-.1.044-.059.1-.059.1-.025.1-.055a1.113 1.113 0 0 0-.354-.4 2.558 2.558 0 0 1-.34-.138c-.288-.131-.4-.138-2.541-.145a13.659 13.659 0 0 1-2.286-.078 1.223 1.223 0 0 0-.495-.116 1.443 1.443 0 0 1-.483-.1 1.7 1.7 0 0 0-.5-.131 1.163 1.163 0 0 1-.466-.133c0-.03-.131-.074-.29-.1s-.29-.066-.29-.093-.1-.069-.225-.092-.225-.064-.225-.092-.143-.086-.318-.131a1.041 1.041 0 0 1-.338-.125 8.044 8.044 0 0 0-1-.552c-.079-.039-.145-.092-.145-.119s-.04-.048-.087-.048a.522.522 0 0 1-.237-.131.883.883 0 0 0-.295-.167.279.279 0 0 1-.179-.127.148.148 0 0 0-.118-.093.562.562 0 0 1-.24-.193c-.268-.324-.342-.258-.315.281M53.441 22a.657.657 0 0 0 .224.131.3.3 0 0 1 .172.137.139.139 0 0 0 .1.094 3.213 3.213 0 0 1 .773.773c0 .038.044.085.1.1a.15.15 0 0 1 .1.122.314.314 0 0 0 .092.177 2 2 0 0 1 .041 1.67c-.037.045-.183.211-.325.369a1.849 1.849 0 0 0-.258.327c0 .022-.08.081-.177.131a1.474 1.474 0 0 0-.319.236.54.54 0 0 1-.193.146 2.366 2.366 0 0 0-.539.416.34.34 0 0 1-.177.1c-.041 0-.075.026-.075.057s-.087.093-.193.137-.193.105-.193.137-.044.057-.1.057a.155.155 0 0 0-.134.093.331.331 0 0 1-.218.133.331.331 0 0 0-.215.126.359.359 0 0 1-.231.13c-.109.024-.2.068-.2.1s-.087.073-.193.1-.193.068-.193.1-.116.091-.258.134-.257.1-.257.126-.087.068-.193.091-.193.066-.193.095-.072.071-.161.093-.161.069-.161.1-.048.063-.108.063c-.147 0-.536.144-.536.2 0 .024-.13.064-.29.088s-.29.067-.29.1-.108.074-.24.1c-.294.055-.468.144-.468.239a11.092 11.092 0 0 0 2.438-.059 2.277 2.277 0 0 1 .636-.145 1.992 1.992 0 0 0 .6-.133c0-.027.116-.069.258-.093s.257-.067.257-.1.145-.09.322-.135a.732.732 0 0 0 .322-.13c0-.026.087-.066.193-.089s.193-.069.193-.1.044-.059.1-.059a.156.156 0 0 0 .134-.093.347.347 0 0 1 .227-.135.347.347 0 0 0 .227-.133.149.149 0 0 1 .127-.091.154.154 0 0 0 .128-.1.154.154 0 0 1 .127-.1.355.355 0 0 0 .2-.129.36.36 0 0 1 .178-.129.569.569 0 0 0 .227-.177 3.333 3.333 0 0 1 .4-.357 1.371 1.371 0 0 0 .339-.37c.105-.2.224-.252.224-.091a.159.159 0 0 0 .1.136.145.145 0 0 1 .1.114 1.278 1.278 0 0 0 .338.5.463.463 0 0 1 .113.163 1.077 1.077 0 0 0 .209.25 9.7 9.7 0 0 1 .316.328 1.95 1.95 0 0 0 .469.41.589.589 0 0 1 .184.146 1.467 1.467 0 0 0 .335.241.763.763 0 0 1 .245.176.17.17 0 0 0 .115.081.285.285 0 0 1 .147.078c.082.077-.247.373-.413.373a.063.063 0 0 0-.061.064c0 .035-.044.065-.1.065a.153.153 0 0 0-.133.089.592.592 0 0 1-.316.168.6.6 0 0 0-.316.168.152.152 0 0 1-.133.089c-.054 0-.1.027-.1.059s-.087.078-.193.1-.193.065-.193.092-.116.087-.258.134-.258.11-.258.139-.07.054-.156.054a.409.409 0 0 0-.252.1 1.13 1.13 0 0 1-.391.174c-.162.044-.3.1-.3.127s-.1.067-.225.09-.225.067-.225.1-.1.073-.225.1-.225.063-.225.088a1.147 1.147 0 0 1-.418.128 1.062 1.062 0 0 0-.418.133c0 .027-.131.069-.29.093s-.29.068-.29.1-.116.074-.257.1-.258.065-.258.091a1.487 1.487 0 0 1-.5.124 1.775 1.775 0 0 0-.531.132.936.936 0 0 1-.373.1c-.186.025-.338.068-.338.1a2.059 2.059 0 0 1-.611.131 2.066 2.066 0 0 0-.612.131 1.136 1.136 0 0 1-.45.095 1.1 1.1 0 0 0-.451.1 1.1 1.1 0 0 1-.451.1 1.106 1.106 0 0 0-.451.1 3.1 3.1 0 0 1-.772.132 3.4 3.4 0 0 0-.772.127 1.624 1.624 0 0 1-.531.093 1.987 1.987 0 0 0-.563.1 1.835 1.835 0 0 1-.54.1l-.508.047.042-.212a.52.52 0 0 1 .1-.248.442.442 0 0 0 .1-.212c.025-.1.067-.176.095-.176s.069-.1.092-.225.064-.225.091-.225c.058 0 .2-.383.2-.536 0-.06.026-.108.057-.108s.075-.073.1-.161.069-.161.1-.161.063-.044.063-.1c0-.134.188-.121.237.016a1.692 1.692 0 0 0 .637.6c.05 0 .091.024.091.054 0 .064.436.2.635.2.075 0 .138-.029.138-.065a.061.061 0 0 0-.056-.064c-.031 0-.075-.145-.1-.322s-.067-.322-.1-.322-.088-.138-.13-.306a1.887 1.887 0 0 0-.333-.789c-.026 0-.066-.087-.089-.193s-.065-.193-.093-.193-.087-.13-.132-.29-.1-.29-.13-.29-.067-.073-.089-.161-.069-.161-.1-.161-.063-.039-.063-.087a.525.525 0 0 0-.131-.237.884.884 0 0 1-.167-.295.281.281 0 0 0-.127-.179.153.153 0 0 1-.091-.133c0-.054-.029-.1-.066-.1s-.1-.077-.144-.171a1.652 1.652 0 0 0-.24-.348c-.089-.1-.257-.283-.373-.413-.337-.375-.432-.3-.432.34a1.232 1.232 0 0 0 .072.578.5.5 0 0 1 .118.255c.025.115.069.209.1.209a2.559 2.559 0 0 1 .178 1.136 1 1 0 0 1-.918.83.973.973 0 0 0-.389.1c-.049.079-.478.072-.478-.007a3.1 3.1 0 0 0-.966-.064 4.273 4.273 0 0 0-.966.055c0 .03-.15.073-.333.095a.828.828 0 0 0-.372.1.67.67 0 0 1-.315.107.855.855 0 0 0-.355.123.682.682 0 0 1-.232.128.828.828 0 0 0-.223.106c-.315.263-.387.313-.444.313a.346.346 0 0 0-.167.094c-.641.593-.842.8-.842.859 0 .04-.062.1-.138.146-.144.077-.142-.3 0-.388a.541.541 0 0 0 .1-.245c.025-.115.067-.209.094-.209s.087-.116.134-.258.107-.258.134-.258.067-.084.09-.187a.341.341 0 0 1 .125-.22.324.324 0 0 0 .127-.2.789.789 0 0 1 .2-.318.556.556 0 0 0 .159-.2.582.582 0 0 1 .161-.208.576.576 0 0 0 .16-.207 7.206 7.206 0 0 1 1.12-1.092.592.592 0 0 0 .228-.193.536.536 0 0 1 .241-.19.077.077 0 0 0 .084-.066c0-.036.08-.1.177-.144a.62.62 0 0 0 .228-.159.186.186 0 0 1 .138-.082.15.15 0 0 0 .124-.1.158.158 0 0 1 .135-.1c.054 0 .1-.024.1-.053s.1-.092.225-.141.225-.11.225-.135.087-.066.193-.09.193-.066.193-.1.145-.087.322-.13.322-.1.322-.132.1-.074.225-.1.225-.066.225-.094.123-.072.274-.1a.711.711 0 0 0 .31-.1 1.925 1.925 0 0 1 .563-.131 1.57 1.57 0 0 0 .528-.124 1.8 1.8 0 0 1 .579-.095 1.912 1.912 0 0 0 .579-.092 6.483 6.483 0 0 1 1.078-.127 7.2 7.2 0 0 0 1.11-.13 1.814 1.814 0 0 1 .531-.1 1.358 1.358 0 0 0 .5-.1c0-.028.152-.068.338-.09a.681.681 0 0 0 .359-.105c.012-.036.077-.066.144-.066a1.737 1.737 0 0 0 .7-.2c0-.025.087-.065.193-.088s.193-.068.193-.1.073-.077.161-.1.161-.059.161-.082.094-.082.209-.133a1.267 1.267 0 0 0 .351-.241.516.516 0 0 1 .2-.15 4.5 4.5 0 0 0 .945-.963c.023-.072.064-.131.091-.131s.088-.116.134-.257.108-.258.135-.258.07-.13.094-.29.069-.29.1-.29.057-.058.057-.129c0-.148.143-.17.272-.041m-21.506.6c.1.021.186.061.186.091s.1.073.225.1.225.066.225.094.087.071.193.094c.264.058.257.076-.209.549a1.08 1.08 0 0 0-.241.31 1.8 1.8 0 0 1-.472.508.589.589 0 0 0-.153.21c-.063.138-.075.085-.079-.365a1.52 1.52 0 0 0-.059-.547 1.815 1.815 0 0 1-.09-.59l-.034-.568.161.04c.089.022.245.057.347.078m-9.336.338a.862.862 0 0 1 .188.234.55.55 0 0 0 .15.184 1.248 1.248 0 0 1 .241.345c.051.114.114.207.14.207s.049.041.049.092a.3.3 0 0 0 .085.177 3.639 3.639 0 0 1 .43.886.067.067 0 0 0 .064.068c.035 0 .065.041.065.092a.3.3 0 0 0 .083.177 1.427 1.427 0 0 1 .171.455.867.867 0 0 0 .139.37c.028 0 .07.1.093.225s.066.225.094.225.071.116.1.257.065.258.092.258a1.248 1.248 0 0 1 .134.453 1.67 1.67 0 0 0 .137.485.877.877 0 0 1 .094.351c.024.175.066.319.094.319a1.3 1.3 0 0 1 .133.483 1.523 1.523 0 0 0 .125.483.7.7 0 0 1 .086.322c.024.177.067.322.1.322s.075.159.1.354.071.354.1.354.06.065.06.145a5.044 5.044 0 0 0 .2 1.143 1.127 1.127 0 0 1 .087.418.907.907 0 0 0 .1.418 1.318 1.318 0 0 1 .1.515 1.646 1.646 0 0 0 .088.515 6.994 6.994 0 0 1 .127 1.078 7.2 7.2 0 0 0 .133 1.11 1.559 1.559 0 0 1 .1.483 1.205 1.205 0 0 0 .119.5c.159.1-.031.126-.228.033a2.572 2.572 0 0 0-.389-.144c-.1-.024-.177-.067-.177-.094s-.1-.069-.225-.092-.225-.067-.225-.1-.145-.093-.322-.138a.731.731 0 0 1-.322-.13c0-.026-.087-.066-.193-.09s-.193-.069-.193-.1-.057-.059-.127-.059c-.086 0-.115-.031-.09-.1a.152.152 0 0 1 .125-.1c.2 0 .8-.724.8-.965 0-.071.029-.13.065-.13s.064-.076.064-.169c0-.167-.593-.194-.707-.032a1.414 1.414 0 0 1-.4.135.856.856 0 0 0-.37.138c0 .028-.1.07-.225.093s-.225.064-.225.089-.116.082-.257.124-.258.1-.258.134-.087.076-.193.1-.193.069-.193.1-.045.059-.1.059a.155.155 0 0 0-.134.093.349.349 0 0 1-.228.135.35.35 0 0 0-.225.127.3.3 0 0 1-.189.124c-.086.022-.156.068-.156.1s-.042.063-.094.063a.234.234 0 0 0-.163.129.233.233 0 0 1-.164.129.357.357 0 0 0-.205.128.385.385 0 0 1-.162.129 1.713 1.713 0 0 0-.614.695c.027.135 1.085.162 1.129.029.014-.041.125-.094.246-.117s.22-.066.22-.1.1-.073.225-.1.225-.068.225-.1.145-.057.322-.057.322.026.322.057.073.076.163.1c.581.146.7.542.707 2.31a7.207 7.207 0 0 0 .073 1.577.748.748 0 0 1 .115.351c.025.168.067.306.093.306s.085.145.131.322.106.322.134.322.07.075.093.166a.9.9 0 0 0 .278.443.306.306 0 0 1 .08.147.51.51 0 0 0 .161.2.485.485 0 0 1 .161.208.961.961 0 0 0 .386.384 1.355 1.355 0 0 1 .3.235l.25.236-.257-.048a.532.532 0 0 1-.277-.1.434.434 0 0 0-.241-.1c-.121-.023-.221-.063-.221-.09s-.13-.085-.29-.13-.29-.106-.29-.137-.045-.056-.1-.056a.155.155 0 0 1-.134-.093.331.331 0 0 0-.218-.133.331.331 0 0 1-.218-.133.146.146 0 0 0-.121-.093.53.53 0 0 1-.243-.191.592.592 0 0 0-.23-.193 11.848 11.848 0 0 1-1.6-1.612c-.022-.071-.069-.129-.1-.129s-.089-.073-.123-.161-.091-.161-.127-.161a.079.079 0 0 1-.066-.087.546.546 0 0 0-.127-.241l-.179-.219a1.57 1.57 0 0 1-.137-.282c-.047-.115-.108-.209-.135-.209s-.068-.076-.092-.168a.664.664 0 0 0-.135-.262.381.381 0 0 1-.094-.234.773.773 0 0 0-.128-.333.76.76 0 0 1-.128-.31.356.356 0 0 0-.1-.214.41.41 0 0 1-.1-.253c0-.086-.025-.157-.055-.157a1.24 1.24 0 0 1-.138-.483 1.328 1.328 0 0 0-.134-.483 1.419 1.419 0 0 1-.1-.515 1.445 1.445 0 0 0-.095-.515 2.388 2.388 0 0 1-.1-.676 2.755 2.755 0 0 0-.089-.676 5.467 5.467 0 0 1-.125-.948 5.378 5.378 0 0 0-.134-.982 1.23 1.23 0 0 1-.1-.436 1.041 1.041 0 0 0-.09-.4 1.277 1.277 0 0 1-.125-.435 1.212 1.212 0 0 0-.141-.455c-.033-.012-.078-.12-.1-.241s-.065-.221-.093-.221-.071-.084-.093-.187a.34.34 0 0 0-.128-.221.359.359 0 0 1-.13-.231c-.024-.109-.071-.2-.1-.2s-.08-.051-.1-.113a6.915 6.915 0 0 0-1.174-1.175.138.138 0 0 1-.108-.093.341.341 0 0 0-.223-.134c-.1-.023-.188-.062-.188-.088 0-.056-.386-.2-.536-.2-.06 0-.108-.029-.108-.064s-.071-.065-.158-.065c-.2 0-.117-.317.136-.551a.547.547 0 0 0 .15-.187 3.63 3.63 0 0 1 .929-.844.3.3 0 0 0 .191-.13.15.15 0 0 1 .128-.091.124.124 0 0 0 .115-.065.953.953 0 0 1 .407-.143 1.315 1.315 0 0 0 .426-.135c.022-.032.06-.025.084.014a.219.219 0 0 0 .17.071c.207 0 .832.468.832.623a2.186 2.186 0 0 0 .322.355 1.634 1.634 0 0 1 .322.376.492.492 0 0 0 .161.2.5.5 0 0 1 .161.2.54.54 0 0 0 .161.211.52.52 0 0 1 .161.219.137.137 0 0 0 .092.1.41.41 0 0 1 .158.223c.036.1.1.188.133.188s.068.045.068.1a.155.155 0 0 0 .093.134.349.349 0 0 1 .135.228.35.35 0 0 0 .127.225.3.3 0 0 1 .125.194.888.888 0 0 0 .271.432 1.26 1.26 0 0 1 .155.352c.044.147.1.268.127.268s.066.076.09.169a.669.669 0 0 0 .135.262.4.4 0 0 1 .093.25c0 .086.023.156.052.156.06 0 .206.379.206.536 0 .059.026.108.057.108s.076.1.1.225.067.225.1.225.075.116.1.258c.1.62.225.293.225-.611a2.544 2.544 0 0 0-.065-.869c-.035 0-.064-.1-.064-.223a4.288 4.288 0 0 0-.194-1.193c-.027 0-.069-.131-.093-.29s-.066-.29-.094-.29a.8.8 0 0 1-.129-.354c-.044-.194-.1-.354-.134-.354s-.074-.087-.1-.193-.067-.193-.1-.193-.073-.087-.1-.193-.063-.193-.088-.193-.083-.1-.128-.225-.108-.225-.141-.225-.06-.044-.06-.1a.159.159 0 0 0-.1-.135.154.154 0 0 1-.1-.129.154.154 0 0 0-.1-.129.153.153 0 0 1-.1-.128.792.792 0 0 0-.225-.31 1.069 1.069 0 0 1-.225-.267 2.391 2.391 0 0 0-.363-.4c-.338-.33-.353-.358-.225-.405.076-.028.138-.081.138-.117a.077.077 0 0 1 .084-.067c.1 0 .3-.148.626-.466a1.552 1.552 0 0 1 .283-.241.692.692 0 0 0 .3-.271 1.075 1.075 0 0 1 .209-.271c.3-.319.435-.5.435-.6a.077.077 0 0 1 .067-.084c.036 0 .087-.051.113-.113.175-.427.279-.469.534-.214m-10.545 7.157c0 .033-.086.078-.19.1-.265.058-.317.612-.057.612.029 0 .054.034.054.075a.585.585 0 0 0 .178.241 1.511 1.511 0 0 1 .265.337.67.67 0 0 0 .235.25.423.423 0 0 1 .187.233c.021.084.067.153.1.153s.092.072.126.161.089.161.122.161.08.087.1.193.066.193.1.193.087.145.13.322a1.059 1.059 0 0 0 .128.353.786.786 0 0 1 .094.321c.024.16.067.291.1.291s.073.159.1.354.068.354.1.354a3.724 3.724 0 0 1 .14 1.543 3.061 3.061 0 0 1-.921 1.032 20.631 20.631 0 0 0-1.915 1.952c-.05.1-.115.173-.145.173s-.054.044-.054.1a.158.158 0 0 1-.1.135.148.148 0 0 0-.1.119.262.262 0 0 1-.1.161.851.851 0 0 0-.171.33c-.041.137-.1.25-.129.25s-.054.041-.054.092a.3.3 0 0 1-.085.177 1.478 1.478 0 0 0-.17.488.976.976 0 0 1-.137.4 1.407 1.407 0 0 0-.1.515 1.3 1.3 0 0 1-.1.515 6.752 6.752 0 0 0 0 1.738 1.013 1.013 0 0 1 .1.451 1.216 1.216 0 0 0 .09.451 1.021 1.021 0 0 1 .121.4 1.235 1.235 0 0 0 .135.435.528.528 0 0 1 .105.248c.025.115.067.209.094.209s.084.116.126.257.1.258.132.258.073.072.1.161.069.161.1.161.063.042.063.094a.222.222 0 0 0 .121.159.4.4 0 0 1 .162.228c.046.183.133.206.268.071a3.926 3.926 0 0 0 .035-1.545 4.4 4.4 0 0 1-.1-.937 3.718 3.718 0 0 0-.1-.9 3.362 3.362 0 0 1-.057-.869 3.473 3.473 0 0 1 .055-.869c.031 0 .072-.178.091-.4a1 1 0 0 1 .1-.436.659.659 0 0 0 .111-.317.863.863 0 0 1 .124-.355.688.688 0 0 0 .128-.232.821.821 0 0 1 .11-.23c.266-.319.313-.39.313-.467a.152.152 0 0 1 .1-.126.154.154 0 0 0 .1-.129.153.153 0 0 1 .1-.129.145.145 0 0 0 .1-.114 1.262 1.262 0 0 1 .332-.49.8.8 0 0 0 .149-.25c.024-.074.068-.135.1-.135s.092-.1.135-.22a.62.62 0 0 1 .225-.3.417.417 0 0 0 .183-.23c.021-.084.067-.153.1-.153s.063-.042.063-.093a.274.274 0 0 1 .119-.177.5.5 0 0 0 .156-.181c.03-.077.038-.074.042.016 0 .062.034.113.068.113s.081.072.1.161.062.161.089.161.085.13.13.29.1.29.13.29.068.1.091.225.065.225.094.225.086.116.128.257.1.258.131.258.072.116.095.257.069.258.1.258.08.072.1.161.062.161.089.161.085.128.129.286a.607.607 0 0 0 .169.32.153.153 0 0 1 .089.133c0 .054.027.1.059.1s.079.089.1.2a.359.359 0 0 0 .134.232.149.149 0 0 1 .091.127.154.154 0 0 0 .1.128.149.149 0 0 1 .1.122.3.3 0 0 0 .088.173 1.394 1.394 0 0 1 .187.278 1.551 1.551 0 0 0 .266.346.629.629 0 0 1 .167.206 6.847 6.847 0 0 0 1.014 1.022c.053 0 .125.051.439.313a.828.828 0 0 0 .223.106.684.684 0 0 1 .233.129.9.9 0 0 0 .373.124c.161.024.293.071.293.1s.058.06.129.06c.223 0 .146-.226-.193-.573a2.051 2.051 0 0 1-.334-.371.663.663 0 0 0-.183-.21 1.393 1.393 0 0 1-.267-.32.629.629 0 0 0-.171-.211.191.191 0 0 1-.087-.145c0-.051-.027-.093-.061-.093-.058 0-.178-.186-.32-.5-.037-.08-.094-.145-.127-.145s-.08-.087-.1-.193-.067-.193-.1-.193-.092-.1-.137-.225-.1-.225-.126-.225-.064-.1-.087-.225-.068-.225-.1-.225-.093-.159-.136-.354a.793.793 0 0 0-.13-.354c-.027 0-.071-.138-.1-.306a.848.848 0 0 0-.1-.34 1.884 1.884 0 0 1-.1-.563 1.648 1.648 0 0 0-.089-.529 5.376 5.376 0 0 1-.129-.966 5.414 5.414 0 0 0-.129-.966 1.116 1.116 0 0 1-.086-.43 1.256 1.256 0 0 0-.1-.467 1.159 1.159 0 0 1-.1-.439.906.906 0 0 0-.1-.4 1.044 1.044 0 0 1-.13-.418.982.982 0 0 0-.133-.418c-.03 0-.073-.1-.1-.225s-.065-.225-.093-.225-.07-.079-.094-.175a3.341 3.341 0 0 0-.168-.447 1.6 1.6 0 0 1-.124-.34.066.066 0 0 0-.063-.068c-.035 0-.081-.072-.1-.161s-.063-.161-.09-.161-.086-.087-.13-.193-.105-.193-.137-.193-.057-.044-.057-.1a.159.159 0 0 0-.1-.135.148.148 0 0 1-.1-.119 4.229 4.229 0 0 0-1-1c-.05 0-.091-.029-.091-.066s-.072-.094-.161-.127-.161-.09-.161-.124-.1-.082-.225-.105-.225-.065-.225-.092-.13-.069-.29-.093-.29-.071-.29-.1-.058-.06-.128-.06-.129.027-.129.059m30.7 2.348a.153.153 0 0 1-.1.127c-.053.02-.1.068-.1.106a1.436 1.436 0 0 1-.338.5.127.127 0 0 0-.048.11.187.187 0 0 1-.081.139.773.773 0 0 0-.177.245 1.788 1.788 0 0 1-.311.463 7.173 7.173 0 0 0-.24.312 10.62 10.62 0 0 1-1.431 1.41.286.286 0 0 0-.166.135.151.151 0 0 1-.128.094.154.154 0 0 0-.129.1.152.152 0 0 1-.126.1.378.378 0 0 0-.2.128.42.42 0 0 1-.166.129 7.932 7.932 0 0 0-1.09 1.095.778.778 0 0 1-.177.251 1.265 1.265 0 0 0-.4.6c-.043.131-.1.238-.137.238s-.076.072-.1.161-.061.161-.086.161a.754.754 0 0 0-.128.322c-.046.177-.106.322-.134.322s-.071.1-.094.225-.067.225-.1.225-.073.1-.1.225-.065.225-.093.225a.8.8 0 0 0-.136.354c-.083.345-.258.5-.258.225 0-.071-.026-.129-.058-.129s-.094-.152-.138-.338a1.141 1.141 0 0 0-.133-.373 1.513 1.513 0 0 1-.1-.5 1.089 1.089 0 0 0-.1-.464 3.481 3.481 0 0 1-.055-.869 3.47 3.47 0 0 1 .055-.869c.031 0 .075-.165.1-.366a1.536 1.536 0 0 1 .095-.435 1.976 1.976 0 0 0 .131-.438 1.145 1.145 0 0 1 .139-.406.206.206 0 0 0 .06-.158.349.349 0 0 1 .091-.211 1.091 1.091 0 0 0 .171-.359c.044-.147.1-.267.134-.267s.054-.045.054-.1a.159.159 0 0 1 .1-.136.153.153 0 0 0 .1-.128.154.154 0 0 1 .1-.129.149.149 0 0 0 .1-.122 4.115 4.115 0 0 1 .884-.931c.054 0 .142-.062.446-.318a.75.75 0 0 1 .241-.1c.092-.023.166-.063.166-.089a.852.852 0 0 1 .354-.132.825.825 0 0 0 .354-.134 1 1 0 0 1 .418-.094.932.932 0 0 0 .418-.1c0-.074.377-.1 1.593-.114.857-.009 1.046 0 1.046.079m15.956 6.005a.515.515 0 0 1-.088.21 2.417 2.417 0 0 0-.131.563 1.519 1.519 0 0 1-.138.531c-.029 0-.053.045-.053.1 0 .078-.032.069-.145-.039a2.621 2.621 0 0 0-.306-.244 2.27 2.27 0 0 1-.35-.315.8.8 0 0 0-.244-.21c-.077 0-.588-.513-.55-.552a5.645 5.645 0 0 1 .781-.072 2.674 2.674 0 0 0 .749-.095c0-.03.117-.054.259-.054.25 0 .257.006.215.177m-33.045.075c0 .033.1.093.225.134s.225.1.225.132.071.076.157.1a.3.3 0 0 1 .188.124.36.36 0 0 0 .23.128c.108.024.2.071.2.1s.05.081.111.1a.883.883 0 0 1 .249.191.506.506 0 0 0 .194.149 6.649 6.649 0 0 1 1.436 1.371c.05.1.115.173.145.173s.053.044.053.1a.159.159 0 0 0 .1.136.154.154 0 0 1 .1.129.152.152 0 0 0 .094.128.286.286 0 0 1 .135.166 8.208 8.208 0 0 0 1.409 1.4.15.15 0 0 1 .122.1.154.154 0 0 0 .129.1.153.153 0 0 1 .129.1.152.152 0 0 0 .126.1.515.515 0 0 1 .237.129.517.517 0 0 0 .235.128c.048 0 .087.028.087.063s.072.081.161.1.161.064.161.093.109.086.241.127a2.822 2.822 0 0 1 .724.33.693.693 0 0 0 .241.086c.115.025.209.072.209.1s.057.059.126.059a1.127 1.127 0 0 1 .518.2.373.373 0 0 0 .129.077c.077.029.074.038-.016.042-.062 0-.113.031-.113.063a.981.981 0 0 1-.433.133 1.41 1.41 0 0 0-.47.134 1.9 1.9 0 0 1-.6.1 1.535 1.535 0 0 0-.56.1 3.443 3.443 0 0 1-1.223 0 1.371 1.371 0 0 0-.526-.1 1.775 1.775 0 0 1-.563-.1.567.567 0 0 0-.262-.1c-.5-.1-.579-.12-.579-.175 0-.031-.041-.057-.092-.057a.305.305 0 0 1-.179-.087 1.107 1.107 0 0 0-.343-.17.7.7 0 0 1-.307-.171.19.19 0 0 0-.145-.087c-.051 0-.093-.027-.093-.06s-.051-.076-.113-.1a1.253 1.253 0 0 1-.318-.23.99.99 0 0 0-.258-.2 1.784 1.784 0 0 1-.341-.325l-.467-.517a.826.826 0 0 1-.177-.25.286.286 0 0 0-.081-.14 1.121 1.121 0 0 1-.24-.571c0-.069-.027-.126-.059-.126s-.079-.123-.1-.274a1.071 1.071 0 0 0-.107-.351 3.506 3.506 0 0 1-.1-.821 2.64 2.64 0 0 0-.098-.728 2.776 2.776 0 0 1-.055-.772c0-.644.016-.772.1-.772.053 0 .1.027.1.059M62.8 39.979a11.757 11.757 0 0 0 .117 2.351 19.66 19.66 0 0 1 0 3.45.558.558 0 0 0-.12.287c-.025.133-.067.241-.094.241s-.085.128-.129.286a.609.609 0 0 1-.17.32.147.147 0 0 0-.089.126.154.154 0 0 1-.1.129.158.158 0 0 0-.1.135c0 .054-.026.1-.058.1s-.088.087-.125.193-.1.193-.135.193-.068.044-.068.1a.155.155 0 0 1-.092.134.414.414 0 0 0-.158.223c-.036.1-.1.188-.133.188a.072.072 0 0 0-.068.075.344.344 0 0 1-.1.177 2.64 2.64 0 0 0-.419.555.533.533 0 0 1-.148.185.883.883 0 0 0-.191.249c-.024.061-.071.111-.1.111s-.082.065-.107.145c-.047.148-.343.463-.39.415a2.483 2.483 0 0 1-.1-.422.952.952 0 0 0-.119-.4c-.027 0-.065-.12-.085-.267a.61.61 0 0 0-.1-.306.583.583 0 0 1-.108-.28c-.025-.133-.068-.241-.1-.241s-.085-.145-.128-.322-.1-.322-.13-.322-.072-.087-.1-.193-.066-.193-.095-.193-.071-.072-.093-.161-.066-.161-.1-.161-.078-.089-.1-.2a.361.361 0 0 0-.13-.231.34.34 0 0 1-.128-.221c-.022-.1-.064-.188-.093-.188s-.087-.087-.131-.193-.106-.193-.139-.193-.078-.05-.1-.111a.869.869 0 0 0-.191-.249.478.478 0 0 1-.148-.2.787.787 0 0 0-.225-.264.787.787 0 0 1-.225-.264 5.612 5.612 0 0 0-1.03-1.03 1.336 1.336 0 0 1-.277-.24.191.191 0 0 0-.145-.084c-.051 0-.093-.024-.093-.052s-.1-.092-.225-.141-.225-.11-.225-.135-.085-.066-.188-.088a.341.341 0 0 1-.223-.134.156.156 0 0 0-.134-.093c-.054 0-.1-.029-.1-.064 0-.1-.176-.074-.218.038a.3.3 0 0 0 .09.4.383.383 0 0 1 .129.162 2.558 2.558 0 0 0 .386.43 2.306 2.306 0 0 1 .386.437.5.5 0 0 0 .161.2.454.454 0 0 1 .161.237c0 .053.029.1.066.1s.093.073.127.161.091.161.127.161a.079.079 0 0 1 .066.087.548.548 0 0 0 .128.241l.184.223a1.348 1.348 0 0 1 .135.306c.043.131.1.238.133.238s.073.087.1.193.066.193.094.193.071.1.094.225.065.225.093.225a.858.858 0 0 1 .137.37 2.058 2.058 0 0 0 .136.438 1.239 1.239 0 0 1 .1.354.821.821 0 0 0 .093.319 9.851 9.851 0 0 1 .19 1.781c0 .188.025.343.055.343a1.373 1.373 0 0 1 .1.529 1.882 1.882 0 0 0 .1.563 1.094 1.094 0 0 1 .1.4.81.81 0 0 0 .094.37 1.122 1.122 0 0 1 .127.429 2.019 2.019 0 0 0 .172.561.578.578 0 0 1 .093.28c0 .08.026.146.057.146s.076.08.1.177a2.453 2.453 0 0 0 .369.788c.024 0 .063.087.087.193s.065.193.091.193.083.112.124.25a.847.847 0 0 0 .171.33.262.262 0 0 1 .1.162.148.148 0 0 0 .1.119.159.159 0 0 1 .1.136c0 .054.022.1.05.1s.1.083.159.184a3.023 3.023 0 0 0 .7.717.876.876 0 0 1 .238.187.987.987 0 0 0 .389.23c.108.024.2.068.2.1s.094.074.209.1a.523.523 0 0 1 .247.105c.086.135.727.137.879 0 .219-.192.188-.325-.161-.694a.3.3 0 0 1-.08-.126 2.194 2.194 0 0 0-.322-.354 1.519 1.519 0 0 1-.322-.384.139.139 0 0 0-.093-.106.475.475 0 0 1-.166-.256c-.04-.121-.1-.22-.127-.22s-.073-.087-.1-.193-.067-.193-.1-.193-.075-.13-.1-.29-.065-.29-.092-.29a1.017 1.017 0 0 1-.131-.4 2.112 2.112 0 0 0-.137-.473 1.191 1.191 0 0 1-.1-.37c-.022-.165-.063-.3-.091-.3s-.07-.152-.1-.338a.956.956 0 0 0-.1-.372 1.3 1.3 0 0 1-.1-.452l-.043-.418.4-.4a2.835 2.835 0 0 1 .454-.4 3.479 3.479 0 0 0 .506-.451 4.107 4.107 0 0 1 .5-.451 2.735 2.735 0 0 0 .537-.557 1.677 1.677 0 0 1 .258-.294 1.289 1.289 0 0 0 .258-.312.806.806 0 0 1 .177-.246c.292-.317.331-.373.376-.553a.325.325 0 0 1 .127-.2.342.342 0 0 0 .126-.22c.022-.1.065-.188.093-.188s.071-.1.094-.225.066-.225.1-.225a.956.956 0 0 0 .137-.4 1.233 1.233 0 0 1 .154-.448 17.289 17.289 0 0 0 0-3.126 1.734 1.734 0 0 1-.152-.561 2.142 2.142 0 0 0-.133-.547.729.729 0 0 1-.1-.29.824.824 0 0 0-.09-.29 2.2 2.2 0 0 1-.2-.354c-.421-.841-.906-1.307-.995-.955m-18.574 2.435a1.393 1.393 0 0 0 .476.145 1.049 1.049 0 0 1 .434.135c0 .03.1.073.225.1s.225.066.225.094.085.071.188.093a.338.338 0 0 1 .22.126.309.309 0 0 0 .195.125c.159.04.3.147.808.636a1.09 1.09 0 0 0 .323.241.065.065 0 0 1 .069.06 1.742 1.742 0 0 0 .306.384c.405.429.425.456.525.7.047.115.108.209.134.209s.068.122.092.272a.668.668 0 0 0 .1.309 1.481 1.481 0 0 1 .1.517 1.764 1.764 0 0 0 .091.512c.042.028.2 2.453.162 2.495a.745.745 0 0 1-.422-.184c0-.032-.044-.058-.1-.058a.155.155 0 0 1-.134-.093.34.34 0 0 0-.223-.134c-.1-.023-.188-.069-.188-.1s-.072-.088-.161-.122-.161-.091-.161-.127a.077.077 0 0 0-.083-.066 1.2 1.2 0 0 1-.5-.332.777.777 0 0 0-.239-.146.457.457 0 0 1-.211-.2.427.427 0 0 0-.224-.2.732.732 0 0 1-.294-.235c-.086-.11-.251-.3-.366-.424a.826.826 0 0 1-.209-.313.152.152 0 0 0-.1-.126.154.154 0 0 1-.1-.129.155.155 0 0 0-.1-.129.152.152 0 0 1-.1-.127.457.457 0 0 0-.161-.23.51.51 0 0 1-.161-.2 5.573 5.573 0 0 0-.943-.949.619.619 0 0 1-.22-.177 1.8 1.8 0 0 0-.639-.451 1.769 1.769 0 0 1-.477-.318.718.718 0 0 0-.253-.119.537.537 0 0 1-.241-.132.326.326 0 0 0-.223-.09.4.4 0 0 1-.246-.1.725.725 0 0 0-.31-.14.711.711 0 0 1-.3-.128.384.384 0 0 0-.237-.085.392.392 0 0 1-.243-.091.5.5 0 0 0-.245-.113c-.2-.028-.254-.247-.064-.247.073 0 .134-.024.134-.054a1.577 1.577 0 0 1 .547-.139 1.685 1.685 0 0 0 .547-.135 11.6 11.6 0 0 1 2.952-.012m4.386.924c0 .03.1.073.225.1s.225.064.225.091.138.086.306.133a.822.822 0 0 1 .357.169.19.19 0 0 0 .145.085c.051 0 .093.027.093.059s.087.079.193.1.193.07.193.1.072.088.161.122.161.091.161.127.044.066.1.066a.357.357 0 0 1 .207.129.38.38 0 0 0 .165.129 1.787 1.787 0 0 1 .367.322 1.545 1.545 0 0 0 .382.322.066.066 0 0 1 .068.064 2.23 2.23 0 0 0 .386.446 2.991 2.991 0 0 1 .386.426 2.489 2.489 0 0 0 .387.526.289.289 0 0 1 .064.147.137.137 0 0 0 .093.1.349.349 0 0 1 .135.228.347.347 0 0 0 .129.225.343.343 0 0 1 .128.221c.022.1.063.188.09.188s.084.116.126.257.105.258.139.258.062.07.062.156a.394.394 0 0 0 .087.243.826.826 0 0 1 .135.342.662.662 0 0 0 .1.29 1.7 1.7 0 0 1 .134.515 1.739 1.739 0 0 0 .133.518 1.326 1.326 0 0 1 .095.467 1.043 1.043 0 0 0 .089.43 2.453 2.453 0 0 1 .1.676 2.666 2.666 0 0 0 .091.676 4.52 4.52 0 0 1 .127.885 5.939 5.939 0 0 0 .132.949 1.565 1.565 0 0 1 .1.435.848.848 0 0 0 .091.37 1.321 1.321 0 0 1 .13.454 3.105 3.105 0 0 0 .174.628.8.8 0 0 1 .091.286c0 .062.027.113.06.113s.079.087.1.193.063.193.089.193.085.108.133.239a1.134 1.134 0 0 0 .174.326.3.3 0 0 1 .087.168c0 .045.072.12.161.167s.161.124.161.17a4.07 4.07 0 0 0 .988.989.154.154 0 0 1 .129.1.154.154 0 0 0 .129.1.149.149 0 0 1 .126.091.358.358 0 0 0 .232.134c.109.024.2.068.2.1s.116.073.258.1.257.07.257.1.042.059.094.059c.129 0 .055.177-.164.391a.964.964 0 0 0-.214.3.479.479 0 0 1-.217.219 1.435 1.435 0 0 0-.335.268.539.539 0 0 1-.244.177.145.145 0 0 0-.12.093.341.341 0 0 1-.223.134c-.1.022-.188.065-.188.1s-.094.075-.209.1a.505.505 0 0 0-.255.118.954.954 0 0 1-.483.072h-.437l-.5-.506a4.254 4.254 0 0 1-.5-.558.841.841 0 0 0-.193-.245.744.744 0 0 1-.193-.26c0-.037-.058-.1-.128-.135a.4.4 0 0 1-.167-.223.3.3 0 0 0-.13-.189.148.148 0 0 1-.091-.126.154.154 0 0 0-.1-.129.159.159 0 0 1-.1-.135c0-.054-.025-.1-.057-.1s-.092-.087-.137-.193-.105-.193-.137-.193-.057-.044-.057-.1a.156.156 0 0 0-.093-.134.347.347 0 0 1-.135-.227.348.348 0 0 0-.129-.225.342.342 0 0 1-.128-.221c-.023-.1-.066-.187-.1-.187s-.073-.087-.1-.193-.068-.193-.1-.193-.091-.116-.134-.257-.1-.258-.126-.258-.068-.087-.092-.193-.064-.193-.091-.193a.827.827 0 0 1-.134-.354.8.8 0 0 0-.136-.354c-.028 0-.07-.1-.093-.225s-.065-.225-.092-.225-.069-.13-.093-.29c-.034-.229-.07-.29-.168-.29a6.357 6.357 0 0 0 .065 2.639 1.062 1.062 0 0 1 .089.382.91.91 0 0 0 .1.386.593.593 0 0 1 .105.278c.025.133.071.241.1.241s.057.049.057.108c0 .15.145.536.2.536.025 0 .065.087.088.193s.067.193.1.193.073.084.1.188a.9.9 0 0 0 .166.332.5.5 0 0 1 .125.231c0 .048.029.087.064.087s.065.042.065.094a.233.233 0 0 0 .129.163.234.234 0 0 1 .128.164.356.356 0 0 0 .129.205.383.383 0 0 1 .129.162 4.308 4.308 0 0 0 .515.563c.592.587.576.556.318.612a.359.359 0 0 0-.232.134c-.019.049-.059.091-.089.091a2.288 2.288 0 0 0-.677.482.554.554 0 0 1-.208.161c-.032 0-.113.075-.18.167a4.759 4.759 0 0 1-.331.387.943.943 0 0 0-.209.28.169.169 0 0 1-.084.112.67.67 0 0 0-.169.26c-.046.115-.107.209-.136.209s-.071.087-.094.193c-.047.215-.142.252-.208.08a.914.914 0 0 0-.159-.238.424.424 0 0 1-.116-.2.146.146 0 0 0-.1-.115.154.154 0 0 1-.1-.128.154.154 0 0 0-.1-.129.158.158 0 0 1-.1-.136c0-.054-.027-.1-.06-.1s-.093-.1-.134-.225-.1-.225-.132-.225-.077-.073-.1-.161-.061-.161-.087-.161-.085-.116-.132-.258-.107-.257-.134-.257-.068-.087-.091-.193-.068-.193-.1-.193-.075-.1-.1-.225-.065-.225-.093-.225-.085-.145-.128-.322-.1-.322-.13-.322-.072-.116-.1-.257-.066-.258-.094-.258-.07-.122-.094-.272a.675.675 0 0 0-.1-.308 1.44 1.44 0 0 1-.14-.469 1.156 1.156 0 0 0-.13-.432c-.026 0-.067-.145-.09-.322s-.063-.322-.088-.322a1.821 1.821 0 0 1-.131-.547 1.777 1.777 0 0 0-.133-.547 1.182 1.182 0 0 1-.093-.451 1.078 1.078 0 0 0-.1-.451.934.934 0 0 1-.1-.418 1.023 1.023 0 0 0-.092-.418 2.6 2.6 0 0 1-.131-.676 2.589 2.589 0 0 0-.131-.676 1.345 1.345 0 0 1-.092-.483 1.34 1.34 0 0 0-.093-.483 2.032 2.032 0 0 1-.126-.592 3.193 3.193 0 0 0-.132-.66 1.526 1.526 0 0 1-.1-.438c-.025-.2-.068-.37-.1-.37s-.073-.167-.1-.37a1.183 1.183 0 0 0-.094-.4c-.1-.07-.133-.451-.034-.451.052 0 .095.024.095.052s.145.089.322.135.322.105.322.134.1.07.225.093.225.069.225.1.1.078.225.1.225.065.225.093.145.088.322.134.322.106.322.135.042.052.093.052c.211 0 .16.157-.144.45a1.823 1.823 0 0 0-.366.446c-.024.074-.066.121-.095.1s-.07.076-.092.208-.058.305-.08.385c-.034.123-.015.145.129.145.092 0 .168-.026.168-.057a.939.939 0 0 1 .485-.147.984.984 0 0 0 .418-.133c0-.03.1-.073.225-.1s.225-.066.225-.094.087-.071.193-.094.193-.069.193-.1.048-.059.106-.059a2.042 2.042 0 0 0 .795-.383c0-.032.087-.076.193-.1s.193-.064.193-.09.1-.087.223-.135a.534.534 0 0 0 .256-.173.149.149 0 0 1 .131-.085c.054 0 .1-.031.1-.068s.087-.1.193-.135.193-.093.193-.125.042-.058.094-.058a.233.233 0 0 0 .163-.129c.038-.071.1-.128.136-.128a1.753 1.753 0 0 0 .572-.563c0-.037-.073-.086-.161-.108s-.161-.069-.161-.1-.1-.063-.225-.063-.225.022-.225.05a.955.955 0 0 1-.4.125 1.172 1.172 0 0 0-.436.14.649.649 0 0 1-.312.108c-.15.024-.272.069-.272.1 0 .087-.766.066-.875-.024a2.944 2.944 0 0 1-.331-.334c-.155-.173-.206-.674-.2-1.949a6.15 6.15 0 0 0-.06-1.381 1.045 1.045 0 0 1-.114-.359.719.719 0 0 0-.1-.306.656.656 0 0 1-.1-.29c-.024-.141-.066-.257-.094-.257s-.086-.128-.13-.286a.607.607 0 0 0-.169-.32.153.153 0 0 1-.089-.133c0-.054-.029-.1-.064-.1s-.065-.042-.065-.093a.19.19 0 0 0-.087-.145.575.575 0 0 1-.163-.2 4.126 4.126 0 0 0-.942-.918.136.136 0 0 1-.114-.084c-.024-.061.019-.077.154-.057.1.015.186.052.186.081m-10.17 3.6c0 .106.026.193.057.193a1 1 0 0 1 .138.435 1.312 1.312 0 0 0 .152.48 5.969 5.969 0 0 1 .071 1.467 5.965 5.965 0 0 1-.071 1.467 1.312 1.312 0 0 0-.152.48 1.126 1.126 0 0 1-.131.435c-.028 0-.069.1-.092.225s-.068.225-.1.225-.075.087-.1.193-.064.193-.09.193-.087.1-.135.225-.112.225-.141.225-.052.042-.052.094a.233.233 0 0 1-.129.163c-.071.038-.129.106-.129.15a.843.843 0 0 1-.23.3 8.326 8.326 0 0 0-.338.343 2.192 2.192 0 0 1-.625.555.147.147 0 0 0-.117.1.159.159 0 0 1-.136.1c-.054 0-.1.025-.1.056s-.13.093-.29.137-.29.1-.29.131-.123.071-.274.1a1.072 1.072 0 0 0-.35.107 6.408 6.408 0 0 1-1.142.1 5.345 5.345 0 0 0-1.067.092 1.151 1.151 0 0 1-.49.054c-.422 0-.484-.014-.45-.1.022-.056.056-.17.077-.253a.289.289 0 0 1 .128-.185.154.154 0 0 0 .091-.133c0-.054.029-.1.064-.1s.065-.042.065-.093a.193.193 0 0 1 .08-.145.768.768 0 0 0 .177-.245 1.573 1.573 0 0 1 .129-.225 2.54 2.54 0 0 0 .322-.491c0-.052.012-.065.663-.748a2.914 2.914 0 0 1 .55-.5.071.071 0 0 0 .075-.066c0-.036.08-.1.177-.144a.624.624 0 0 0 .228-.159.169.169 0 0 1 .115-.082.532.532 0 0 0 .213-.161.566.566 0 0 1 .206-.162 1.481 1.481 0 0 0 .336-.29 1.1 1.1 0 0 1 .37-.288.092.092 0 0 0 .091-.091 1.352 1.352 0 0 1 .322-.411 1.579 1.579 0 0 0 .322-.389c0-.038.058-.1.129-.138a.233.233 0 0 0 .129-.163c0-.052.026-.094.058-.094s.088-.087.126-.193.1-.193.13-.193.081-.087.1-.193.065-.193.091-.193.087-.116.134-.258.107-.257.134-.257.068-.087.092-.193.066-.193.094-.193.071-.1.094-.225.067-.225.1-.225.09-.145.132-.322.1-.322.127-.322.067-.087.088-.193.079-.193.137-.193.1.063.1.193m-21.926 1.509a1.137 1.137 0 0 0 .272.225 1.761 1.761 0 0 1 .34.292 1.79 1.79 0 0 0 .336.291.638.638 0 0 1 .2.161l.152.16h-.452a1.113 1.113 0 0 0-.473.058 1.709 1.709 0 0 1-.589.081l-.568.022.041-.193c.023-.106.058-.287.078-.4s.059-.209.087-.209.07-.116.094-.258.07-.257.1-.257.059-.044.059-.1c0-.149.082-.117.325.127m14.306 5.7c-.019.071-.055.129-.082.129s-.086.138-.133.306a1.469 1.469 0 0 1-.121.338 2.789 2.789 0 0 0-.3.641.669.669 0 0 1-.131.243.771.771 0 0 0-.13.323.77.77 0 0 1-.131.325.3.3 0 0 0-.087.179c0 .051-.029.092-.064.092s-.065-.042-.065-.093a.274.274 0 0 0-.119-.177.514.514 0 0 1-.165-.229c-.025-.08-.083-.145-.128-.145a.5.5 0 0 1-.226-.125.892.892 0 0 0-.332-.166c-.1-.023-.188-.068-.188-.1s-.087-.059-.193-.059c-.172 0-.193.021-.193.193 0 .106.026.193.057.193s.077.109.1.241a5.366 5.366 0 0 0 .553 1.368.659.659 0 0 1 .125.29c.045.159.1.29.13.29s.068.075.091.166a.884.884 0 0 0 .265.431 1.386 1.386 0 0 1 .153.287c.047.115.111.209.142.209s.057.044.057.1a.159.159 0 0 0 .1.136.146.146 0 0 1 .1.114.472.472 0 0 0 .129.216.516.516 0 0 1 .129.191.342.342 0 0 0 .113.154 2.062 2.062 0 0 1 .241.284 1.954 1.954 0 0 0 .241.281.319.319 0 0 1 .113.181c0 .141.185.09.3-.081a1.234 1.234 0 0 0-.028-.925.524.524 0 0 1-.113-.25c-.025-.115-.07-.209-.1-.209s-.075-.094-.1-.209a.512.512 0 0 0-.113-.252 1.71 1.71 0 0 1 0-1 .121.121 0 0 0 .08-.1c0-.094.162-.234.419-.363a.871.871 0 0 0 .238-.161 8.6 8.6 0 0 1 1.565-.067 7.259 7.259 0 0 0 1.563-.071.743.743 0 0 1 .35-.114c.168-.025.306-.068.306-.1s.114-.071.253-.093a.78.78 0 0 0 .341-.128.668.668 0 0 1 .23-.133c.078-.025.142-.07.142-.1s.1-.089.225-.13.225-.1.225-.136.047-.079.1-.1a1.474 1.474 0 0 0 .323-.248c.167-.157.588-.52.693-.6a.583.583 0 0 1-.008.209c-.014.122-.048.223-.076.223s-.069.1-.092.225-.065.225-.092.225-.086.145-.132.322-.107.322-.136.322-.073.087-.1.193-.07.193-.1.193-.088.072-.122.161-.088.161-.12.161-.077.072-.1.161-.069.161-.1.161a.069.069 0 0 0-.063.073.828.828 0 0 1-.225.285 1.1 1.1 0 0 0-.225.256.676.676 0 0 1-.145.2c-.371.405-.515.536-.585.536-.042 0-.148.087-.236.193a.631.631 0 0 1-.215.193c-.048 0-.179.094-.538.387a.286.286 0 0 1-.147.064c-.038 0-.086.044-.106.1a.144.144 0 0 1-.11.1 3.219 3.219 0 0 0-.8.4.506.506 0 0 1-.241.088c-.121.023-.22.062-.22.087a1.147 1.147 0 0 1-.418.129 1.059 1.059 0 0 0-.418.133c0 .027-.159.07-.354.094s-.354.067-.354.094a2.973 2.973 0 0 1-.74.134 3.06 3.06 0 0 0-.74.133 2.069 2.069 0 0 1-.611.094 2.063 2.063 0 0 0-.612.094 1.841 1.841 0 0 1-.579.094 1.827 1.827 0 0 0-.579.095 2.291 2.291 0 0 1-.644.131 2.32 2.32 0 0 0-.644.131c0 .027-.145.068-.322.092s-.322.068-.322.1-.116.076-.258.1-.257.07-.257.1-.118.077-.262.1a.8.8 0 0 0-.346.126.648.648 0 0 1-.253.127c-.093.023-.169.066-.169.095s-.089.072-.2.1a.359.359 0 0 0-.232.134.148.148 0 0 1-.126.09.154.154 0 0 0-.129.1.153.153 0 0 1-.127.1.357.357 0 0 0-.2.128.374.374 0 0 1-.168.129 5.292 5.292 0 0 0-.944.966.129.129 0 0 1-.086.1.536.536 0 0 0-.173.256c-.048.122-.11.223-.137.223s-.068.1-.092.225-.068.225-.1.225-.059.08-.062.177-.02.141-.038.1a.145.145 0 0 0-.126-.08.155.155 0 0 1-.131-.1.144.144 0 0 0-.113-.1 3.818 3.818 0 0 1-1.133-1.03.14.14 0 0 0-.1-.1c-.057-.022-.112-.164-.137-.352-.023-.173-.067-.316-.1-.316s-.056-.13-.056-.29.026-.29.058-.29.078-.145.1-.322.07-.322.1-.322.075-.073.1-.161.061-.161.087-.161.087-.078.138-.173a3.572 3.572 0 0 1 .754-.793.857.857 0 0 0 .232-.161.672.672 0 0 1 .274-.161c.047 0 .086-.027.086-.06s.1-.093.225-.134.225-.1.225-.128.087-.073.193-.1.193-.067.193-.1.087-.073.193-.1.193-.064.193-.091.116-.087.257-.134.258-.107.258-.134.087-.068.193-.091.193-.067.193-.1.087-.073.193-.1.193-.068.193-.1.116-.091.257-.134.258-.1.258-.126.087-.068.193-.092.193-.064.193-.091.116-.087.258-.134.258-.107.258-.134.087-.068.193-.091.193-.067.193-.1.087-.073.193-.1.193-.068.193-.1.116-.091.258-.134.258-.117.258-.172a3.931 3.931 0 0 0-1.545.046 3.316 3.316 0 0 1-.708.131 4.005 4.005 0 0 0-.741.134 1.272 1.272 0 0 1-.37.1c-.168.025-.306.068-.306.1s-.131.069-.29.093-.29.067-.29.1-.1.068-.217.087a2.516 2.516 0 0 0-.511.169 1.781 1.781 0 0 1-.363.134.064.064 0 0 0-.068.06c0 .033-.065.081-.144.106a1.628 1.628 0 0 0-.554.365.134.134 0 0 1-.115.048.155.155 0 0 0-.13.1.148.148 0 0 1-.119.1 2.032 2.032 0 0 0-.612.576c0 .025-.073.085-.163.133a.437.437 0 0 0-.2.232c-.068.273-.3.206-.429-.123-.023-.06-.072-.11-.108-.11a.076.076 0 0 1-.067-.082.319.319 0 0 0-.113-.181 1.976 1.976 0 0 1-.241-.278 3.092 3.092 0 0 0-.785-.772.458.458 0 0 1-.214-.2c-.047-.088-.124-.16-.171-.16a.422.422 0 0 1-.213-.127.733.733 0 0 0-.285-.167.3.3 0 0 1-.185-.138.154.154 0 0 0-.133-.091.1.1 0 1 1 0-.193.156.156 0 0 0 .133-.092.33.33 0 0 1 .218-.133.33.33 0 0 0 .215-.127.359.359 0 0 1 .231-.13c.109-.024.2-.068.2-.1s.087-.073.193-.1.193-.066.193-.095.073-.071.161-.093.161-.065.161-.1.131-.091.29-.136.29-.1.29-.132.087-.07.193-.093.193-.066.193-.094.089-.069.2-.091a.669.669 0 0 0 .285-.128.8.8 0 0 1 .35-.131c.144-.023.262-.068.262-.1s.116-.078.258-.1.257-.068.257-.1.159-.09.354-.133a.845.845 0 0 0 .354-.126c0-.026.13-.066.29-.09s.29-.069.29-.1.131-.076.29-.1.29-.065.29-.092a1.391 1.391 0 0 1 .483-.134 1.379 1.379 0 0 0 .483-.135c0-.027.145-.068.322-.092s.322-.065.322-.092a.749.749 0 0 1 .354-.093c.195-.025.354-.067.354-.1a2 2 0 0 1 .611-.136 2.139 2.139 0 0 0 .611-.132 1.02 1.02 0 0 1 .418-.093 1.031 1.031 0 0 0 .418-.092 2.594 2.594 0 0 1 .676-.131 2.519 2.519 0 0 0 .676-.133 1.288 1.288 0 0 1 .484-.095 1.678 1.678 0 0 0 .515-.1 1.579 1.579 0 0 1 .5-.1 1.752 1.752 0 0 0 .5-.093 2.133 2.133 0 0 1 .547-.111c.283-.035.519-.069.525-.075a.415.415 0 0 1-.024.119m7.448 6.759a.076.076 0 0 1-.08.066 1.994 1.994 0 0 0-.463.386 2.647 2.647 0 0 1-.432.384.986.986 0 0 0-.261.192c-.346.315-.435.387-.471.387a2.654 2.654 0 0 0-.48.327 1.18 1.18 0 0 1-.241.128c-.115.05-.209.113-.209.14s-.04.049-.088.049a.571.571 0 0 0-.247.125 1.062 1.062 0 0 1-.33.168c-.095.024-.172.066-.172.093s-.1.069-.225.093-.225.067-.225.1-.1.073-.221.1-.23.068-.241.1a1.21 1.21 0 0 1-.456.141 1.246 1.246 0 0 0-.435.127 1.082 1.082 0 0 1-.418.09.979.979 0 0 0-.418.095 2.194 2.194 0 0 1-.644.1 2.276 2.276 0 0 0-.644.094 2.58 2.58 0 0 1-.676.131 2.588 2.588 0 0 0-.676.131 1.033 1.033 0 0 1-.418.092 1.058 1.058 0 0 0-.418.091 1.439 1.439 0 0 1-.483.132 1.4 1.4 0 0 0-.483.134c0 .027-.131.068-.29.092s-.29.068-.29.1-.116.074-.258.1-.257.066-.257.094-.131.087-.29.132-.29.1-.29.132-.087.07-.193.093-.193.069-.193.1-.045.059-.1.059a.159.159 0 0 0-.136.1.146.146 0 0 1-.111.1 4.8 4.8 0 0 0-1.458 1.454.138.138 0 0 1-.09.111.387.387 0 0 0-.137.248.536.536 0 0 1-.108.253.636.636 0 0 0-.1.306c-.02.147-.061.267-.092.267s-.056.116-.056.258.029.257.064.257.065.045.065.1c0 .246.419.169.767-.14.114-.1.363-.336.554-.522a2.027 2.027 0 0 1 .4-.338c.051 0 .149-.071.446-.322a.763.763 0 0 1 .273-.106c.107-.021.194-.062.194-.091a.779.779 0 0 1 .354-.131.858.858 0 0 0 .354-.125c0-.025.145-.065.322-.088s.322-.066.322-.094a1.631 1.631 0 0 1 .547-.133 1.624 1.624 0 0 0 .547-.133c0-.028.145-.072.322-.1s.322-.071.322-.1c0-.086.248-.071.358.022a8.026 8.026 0 0 1 1.15 1.191c.025.08.068.145.1.145a3.076 3.076 0 0 1 .592.556 2.422 2.422 0 0 0 .225.224 2.6 2.6 0 0 1 .228.225 1.737 1.737 0 0 0 .482.414.663.663 0 0 1 .213.193c.087.1.191.191.231.191a.559.559 0 0 1 .228.127 2.3 2.3 0 0 0 .638.4 2.052 2.052 0 0 0 .435.177c.044 0 .079.026.079.057s.109.078.241.1a1.019 1.019 0 0 1 .306.1 3.07 3.07 0 0 0 1 .195c.14 0 .254.029.254.064a2.372 2.372 0 0 0 .837.065 2.372 2.372 0 0 0 .837-.065c0-.035.109-.065.241-.065a3.468 3.468 0 0 0 1.111-.193.681.681 0 0 1 .307-.1c.15-.024.272-.063.272-.087a.776.776 0 0 1 .322-.127c.177-.045.322-.106.322-.134s.072-.07.161-.092.161-.069.161-.1.039-.063.087-.063a.514.514 0 0 0 .235-.129.517.517 0 0 1 .236-.128.357.357 0 0 0 .2-.129.355.355 0 0 1 .192-.129c.045 0 .082-.072.082-.161v-.155h-.966a4.313 4.313 0 0 0-.966.055 2.932 2.932 0 0 1-.788.1 3.065 3.065 0 0 0-.81.106 5.855 5.855 0 0 1-1.62 0 1.074 1.074 0 0 0-.462-.1 1.919 1.919 0 0 1-.531-.1 1.846 1.846 0 0 0-.439-.137.877.877 0 0 1-.37-.131c0-.027-.087-.068-.193-.091s-.193-.067-.193-.1-.1-.088-.225-.128-.225-.1-.225-.134-.044-.059-.1-.059a.159.159 0 0 1-.135-.1c-.02-.053-.062-.1-.092-.1a1.8 1.8 0 0 1-.595-.423.184.184 0 0 0-.139-.092.125.125 0 0 1-.11-.051 1.532 1.532 0 0 0-.279-.241 1.82 1.82 0 0 1-.309-.271.171.171 0 0 0-.115-.081.74.74 0 0 1-.252-.193.808.808 0 0 0-.241-.193.651.651 0 0 1-.213-.183.948.948 0 0 0-.256-.218c-.053-.019.057-.057.243-.083s.338-.07.338-.1.1-.068.225-.091.225-.065.225-.093a.781.781 0 0 1 .354-.131c.195-.044.354-.1.354-.132s.1-.072.225-.095.225-.07.225-.1.07-.061.156-.061a.4.4 0 0 0 .247-.091 1.092 1.092 0 0 1 .358-.171c.147-.044.268-.1.268-.129s.085-.068.188-.091a.339.339 0 0 0 .223-.134.156.156 0 0 1 .134-.093c.054 0 .1-.024.1-.052s.1-.092.223-.14a.537.537 0 0 0 .255-.173.15.15 0 0 1 .132-.086c.054 0 .1-.028.1-.063s.073-.081.163-.1a.4.4 0 0 0 .227-.162c.036-.067.095-.121.131-.121a15.692 15.692 0 0 0 1.6-1.594.385.385 0 0 1 .129-.161.357.357 0 0 0 .129-.207c0-.054.029-.1.066-.1s.093-.073.127-.161.088-.161.122-.161.079-.085.1-.188a.34.34 0 0 1 .134-.223.152.152 0 0 0 .093-.129.126.126 0 0 1 .059-.115.2.2 0 0 0-.052-.376c-.11 0-.2.029-.2.065m4.529 3c.023.271.042.618.042.772s.029.28.064.28.065.13.065.29c0 .266-.013.29-.161.29-.088 0-.161-.028-.161-.063s-.073-.081-.161-.1-.161-.066-.161-.1-.051-.057-.113-.056a1.636 1.636 0 0 1-.722-.349 1.089 1.089 0 0 1 .255-.3 1.036 1.036 0 0 0 .258-.315.567.567 0 0 1 .177-.229c.407-.366.467-.432.467-.517 0-.314.117 0 .151.4" transform="translate(-9.72 -16.506)" style="fill:#fff;fill-rule:evenodd"/>
    </g>
</svg>
