<svg id="b1c614e7-52dd-4a04-93fd-7e9a354190a9" data-name="Layer 1" xmlns="http://www.w3.org/2000/svg" viewBox="0 0 694 283.20001"><defs><style>.bdbead60-781f-4ea8-9edd-a6ab71c24804{fill:#fff;}</style></defs><path class="bdbead60-781f-4ea8-9edd-a6ab71c24804" d="M214.4,194.9c-6.7-4.7-9.6-13.2-11.2-21.3s-2.4-16.5-6.5-23.6c-5.2-8.8-15-14.2-25-16.4s-20.4-1.5-30.6-.8a42.11655,42.11655,0,0,1,59.2-5.3,43.00372,43.00372,0,0,1,11.8,15.9c.7,1.7,2.2,3.8,3.9,3,1.2-.6,1.2-2.4.9-3.8a51.14811,51.14811,0,0,1,9.9-38.5c-4.8-.4-7.5,5.1-10.9,8.5-4.7,4.6-11.9,5.5-18.4,4.7s-12.8-3.1-19.3-3.8c-18.1-2-35.8,8.6-46.9,23-1.9-9.6,6-18.7,15-22.5s19.1-3.6,28.8-4.8a102.8994,102.8994,0,0,0,30.7-8.8c4.4-2.1,9.2-5.1,11.7-9.5,3.5-6.3.4-7.6-4-11.4-7.8-6.9-9.9-19.3-19.8-24a5.488,5.488,0,0,0-4.5-.5,8.0615,8.0615,0,0,0-2.9,2.9,29.645,29.645,0,0,1-11.8,9.5c-10.1,4.5-22.2,3.2-32.1,8.2-9.5,4.8-15.5,14.8-18,25.2s-1.9,21.2-1.3,31.9a42.8737,42.8737,0,0,1,15.3-73.1c-2.2-3-6.6-2.6-10.3-2.4A48.67781,48.67781,0,0,1,94.9,46.6c-.8,4.8,4.9,7.7,8.3,11.1,4.8,4.7,5.6,12.1,4.8,18.8-.9,6.6-3.2,13-3.9,19.7-1.8,17.9,9.1,35.1,23.2,46.3-8.3,1.4-16.6-4.2-20.8-11.6s-5.2-16-6.2-24.4c-1.2-11.3-2.4-22.8-6.5-33.4-2.5-6.5-6.2-12.7-12-16.6-2.1-1.5-5.1-2.6-7.4-1.3a11.3733,11.3733,0,0,0-3,3.5c-6.2,8.7-18.9,11.1-24.7,20.1-1,1.6-1.8,3.5-1.2,5.2.6,2,2.6,3.2,4.3,4.4,6.7,5,9.5,13.6,11.2,21.8s2.6,16.8,7,23.9c5.3,8.6,15,13.7,24.9,15.8s20.1,1.4,30.2.7a41.88566,41.88566,0,0,1-70.5-10.3c-.9-2.1-3.5-4.8-5-3a3.66618,3.66618,0,0,0-.3,2.9,49.91945,49.91945,0,0,1-10.1,39.1c5,.4,7.9-5.3,11.5-8.7,5.2-4.9,13.1-5.5,20.1-4.4s13.9,3.6,21,3.9c17.3.8,32.3-11.2,44.3-23.7-.1,12.1-11.3,21.5-22.8,25.1s-24,3-35.9,5-24.5,7.6-29.3,18.8a6.30242,6.30242,0,0,0-.7,3c.2,2.5,2.8,4,4.9,5.6,8.5,6.4,10.7,19.6,20.3,24.2a5.26038,5.26038,0,0,0,3.7.6c2-.5,3.1-2.5,4.3-4.2,4.8-6.9,13.4-9.8,21.6-11.5s16.8-2.5,24-6.8c8.7-5.2,14-15,16.1-24.9s1.5-20.2.8-30.4a42.26428,42.26428,0,0,1-15.3,72.7c1.1,2.9,5.2,2.9,8.3,2.6a51.0452,51.0452,0,0,1,35.6,10.4c.2-5-5.5-7.9-8.9-11.6-4.7-5.1-5.3-12.8-4.2-19.7s3.5-13.5,3.9-20.4c1.1-17.2-10.2-32.8-23.2-44,10.7-1.6,20.2,8,23.6,18.3s2.6,21.5,4.2,32.2a71.66831,71.66831,0,0,0,12,30.2c3,4.3,8.1,8.6,12.7,6.3,2.1-1.1,3.3-3.2,4.8-5,6.6-8,19.2-10.2,23.6-19.6a5.623,5.623,0,0,0,.6-3.8C218.3,197.3,216.2,196.1,214.4,194.9Zm-2.3-74.8c-.6,2.4-1.2,4.4-1.8,6.8l-6.9-5.9ZM116.8,63.7l-5.5,6.5-.8-9Zm-50.6,52c-1.4-6.6-1.4-13.4-3.4-19.8S56,83.3,49.4,82.4a15.9981,15.9981,0,0,1,8-7.6,5.078,5.078,0,0,1,3.2-.5,5.80455,5.80455,0,0,1,2.7,1.9A63.51058,63.51058,0,0,1,78,101.4,34.73006,34.73006,0,0,0,66.6,72.7,25.091,25.091,0,0,0,76.8,62c6.7,6.7,9.6,17.7,12,26.6,1.4,5.2,2.6,10.5,3.6,15.8.3,1.7,1.3,13.4,2.5,14l-10.7-4.7a8.42046,8.42046,0,0,0,4.8-5.9,47.26755,47.26755,0,0,0-19.8,11c2.7,2.2,6.5-2.1,9.9-1.5,2,.4,3.4,2.4,3.7,4.5a32.245,32.245,0,0,1-.1,6.2,19.84369,19.84369,0,0,0,9.8,17.3C78.8,142.2,69,129.3,66.2,115.7Zm49.6,32.2c-9,1.2-16.7-1.2-22.9-7.9-2.9-3.1-3.9-6.8-4.2-10.8-.2-2.8-.2-5.6-.3-8.7,5.1,3.2,10.4,6,13.8,11.2a31.433,31.433,0,0,0,15,11.9c1.7.7,3.3,1.4,5,2.1l.1.7c-2.3.6-4.4,1.1-6.5,1.5ZM51.7,163.2l2.3-6.4,6.5,5.6Zm76.7-61C131.3,88.9,143.6,78.9,157,76c6.7-1.4,13.8-1.4,20.3-3.3s13.1-6.8,14-13.6c3.8,1.5,9.4,6.9,7.7,11.5-.8,2.2-2.6,3.8-4.4,5.2a70.01086,70.01086,0,0,1-22.8,11.9,34.69715,34.69715,0,0,0,29.3-11.5A25.90739,25.90739,0,0,0,212,86.8c-16.6,11-36.9,14.4-56.6,17.6L160,94a7.96875,7.96875,0,0,0,6,4.5,49.40747,49.40747,0,0,0-11-19.9c-2.2,2.9,2.4,7,1.5,10.5a5.17509,5.17509,0,0,1-4.3,3.3,27.19985,27.19985,0,0,1-5.7-.2,20.18642,20.18642,0,0,0-18,10.1Zm-.5,30.1a25.12488,25.12488,0,0,1-1-20.1c4-11,11.3-14.8,26.3-14.2-3.6,5.6-6.7,10.9-12.3,14.5a26.86081,26.86081,0,0,0-10.5,13.6c-.8,1.9-1.6,3.8-2.5,6.2Zm19.4,87.1,5.4-6.2c.3,3,.6,5.7.8,8.8Zm-29.6-15.8c-7.9,3.7-17,3.8-25.6,5.6s-17.6,6.5-20,14.9c-2.8-1.7-5.8-3.7-6.8-6.8s.3-6.6,2.6-9c2.2-2.4,5.2-3.9,8.2-5.4l16-8c-10.8,1.1-23,3.1-29,12.2a26.8663,26.8663,0,0,0-11.2-10.7l-.1-.1C68.7,185.6,89,182,108.7,178.5q-2.4,5.4-4.8,10.8a7.96876,7.96876,0,0,0-6-4.5,50.24353,50.24353,0,0,0,11,19.8c2.3-2.7-2.2-6.6-1.6-10.1.3-2,2.4-3.4,4.4-3.7a32.244,32.244,0,0,1,6.2.1c6.8.2,12.1-3.3,16.5-8.1C133.2,191.8,125.6,199.9,117.7,203.6Zm20.6-45.4c1,9-1.4,16.9-8.4,23a15.78769,15.78769,0,0,1-9.7,3.7c-3,.2-6,.3-9.4.5,3-5,5.7-10.1,10.6-13.4a32.24889,32.24889,0,0,0,12.5-15.5c.7-1.6,1.3-3.2,2-4.8l.7-.1A45.54389,45.54389,0,0,1,138.3,158.2Zm23.7-6.3A30.68635,30.68635,0,0,0,147.3,140l-5.3-2.2-.1-.9c2.7-.6,5.5-1.6,8.2-1.8,8.6-.6,16,2.2,21.6,8.8a13.49587,13.49587,0,0,1,2.9,6.3c.7,4,.8,8.1,1.2,12.8C170.6,159.6,165.3,157,162,151.9Zm44.1,56.7a5.52516,5.52516,0,0,1-3.1.3,5.72252,5.72252,0,0,1-2.6-2A66.04817,66.04817,0,0,1,186,181.7a33.89842,33.89842,0,0,0,11.5,29,23.91573,23.91573,0,0,0-10.4,10.7c-12.6-15.5-13-37.3-18.4-56.5l10.9,4.7a8.67247,8.67247,0,0,0-4.2,6,52.56444,52.56444,0,0,0,19.7-10.7c-2.7-2.9-7.5,2.4-11.2.9-2.9-1.2-2.5-5.3-2.3-8.5a21.3059,21.3059,0,0,0-9.8-19.1c14.6,3.8,23.7,16.1,26,30.5,1,6.5,1.4,13.2,3.6,19.3s7,12,13.4,13.2a16.537,16.537,0,0,1-8.7,7.4Z"/><path class="bdbead60-781f-4ea8-9edd-a6ab71c24804" d="M137.2,204.4c-6.2,12.2-16.7,17.8-29.4,21.6,3.3,2.6,6.1,5,9.1,7.2,6.1,4.5,12.9,5.5,20.2,4.3a75.38866,75.38866,0,0,1,8.3-.6,11.52934,11.52934,0,0,1,2.6.3,28.50061,28.50061,0,0,1-17.2,6.2,25.41044,25.41044,0,0,1-18.6-7.4c-2.8-2.6-5.2-5.5-7.8-8.2a3.10225,3.10225,0,0,0-2.2-.9,94.13232,94.13232,0,0,0-12.8,3.8c-2.5,1-4.4,3.3-6.5,5-.5.4-1.4,1-1.5.9-.5-.4-1.2-1.3-1.1-1.8a18.67712,18.67712,0,0,1,2-5.1c3.1-4.9,8-7.6,13.3-9.2a108.492,108.492,0,0,1,16.7-3.7c9-1.2,16.4-5.5,22.9-11.5l.9-.9Z"/><path class="bdbead60-781f-4ea8-9edd-a6ab71c24804" d="M69,145.7c-6.6-1.3-10.5-6.2-13.8-11.3-3.3-5-5.4-10.7-8.3-16.6-2.8,4-6,8.2-8.7,12.5-2.7,4.4-2.9,9.6-2.3,14.8l.9,9.6a4.18062,4.18062,0,0,1-.5,2.4,26.31918,26.31918,0,0,1-5.9-19.8,25.40555,25.40555,0,0,1,6.8-14.7c2.7-2.9,5.8-5.4,8.5-8.2a4.36931,4.36931,0,0,0,.9-3.1,64.31843,64.31843,0,0,0-3.1-11.2c-1.2-2.7-3.5-4.8-5.3-7.3-.4-.6-.7-1.2-1.1-1.8.7-.3,1.5-1.1,2.1-1a15.43416,15.43416,0,0,1,4.6,1.9c4.8,3.1,7.2,7.9,9.3,12.9,2.5,6,3.1,12.3,4,18.7,1.1,8,5.1,14.7,10.6,20.5C68.1,144.6,68.6,145.2,69,145.7Z"/><path class="bdbead60-781f-4ea8-9edd-a6ab71c24804" d="M226.9,192.1c-.4,1.6-1.8,1.5-3.2,1a16.30564,16.30564,0,0,1-9.3-7.8,48.31331,48.31331,0,0,1-7-22.2c-.7-9.3-4.6-17.1-11-23.8l-.7-.7c-.2-.2-.6-.8-.9-1.2l.4-.7c2.1,1.2,4.4,2.2,6.1,3.8a46.42756,46.42756,0,0,1,14.3,23.4,5.63779,5.63779,0,0,0,.4,1.2c.4,0,.7,0,.8-.1,3.1-4.2,6.4-8.3,9.1-12.7,3-4.9,2.5-10.4,1.9-15.8-.3-2.9-.4-5.7-.6-8.6a5.84735,5.84735,0,0,1,.4-1.9c3.5,3.1,4.4,7,5.4,10.9,2.2,8.9,0,17-6,23.8-2.8,3.1-6.1,5.8-9.1,8.7a1.90881,1.90881,0,0,0-.6,1.6c1.2,4.6,2.2,9.4,4.1,13.8C222.3,187.4,224.8,189.5,226.9,192.1Z"/><path class="bdbead60-781f-4ea8-9edd-a6ab71c24804" d="M127.1,78.1c6.1-11.3,16.3-17.2,29.1-20.7-3.5-2.8-6.7-5.4-10-7.7C140,45.2,133,44.9,125.6,46a90.035,90.035,0,0,1-9.4.7c1.9-3.7,5.3-4.2,8.1-5.2,10.5-3.7,19.8-1.2,27.8,6.3,2.6,2.5,4.8,5.4,7.4,7.9a3.08567,3.08567,0,0,0,2.6.7,97.26894,97.26894,0,0,0,12-3.5c2.4-1,4.2-3.2,6.3-4.8a15.4523,15.4523,0,0,1,2.2-1.2c.2.9.9,1.9.7,2.7-1,4.6-4.3,7.6-8.1,9.9a46.88758,46.88758,0,0,1-21.5,6.8,38.86755,38.86755,0,0,0-25,11.7l-1.2.9Z"/><path class="bdbead60-781f-4ea8-9edd-a6ab71c24804" d="M358.3,159.1H292.4a31.18765,31.18765,0,0,0,4.4,15.4,25.98576,25.98576,0,0,0,10.3,9.7,30.68758,30.68758,0,0,0,14,3.3,28.42108,28.42108,0,0,0,16.7-4.9,22.63636,22.63636,0,0,0,9-13h10.8a33.54927,33.54927,0,0,1-12.4,19c-6.4,4.9-14.3,7.4-23.9,7.4a40.24961,40.24961,0,0,1-20.1-5,35.43721,35.43721,0,0,1-13.9-14.3,43.99854,43.99854,0,0,1-5-21.6,45.42457,45.42457,0,0,1,4.9-21.7A34.57325,34.57325,0,0,1,301,119.1a39.75043,39.75043,0,0,1,20.2-4.9,38.66544,38.66544,0,0,1,19.9,4.9,33.52069,33.52069,0,0,1,13.1,13.3,38.8251,38.8251,0,0,1,4.6,18.6C358.6,154.5,358.5,157.2,358.3,159.1Zm-13.6-23.5a24.32735,24.32735,0,0,0-10.1-9.5,30.68752,30.68752,0,0,0-14-3.3,28.23749,28.23749,0,0,0-19.4,7.3c-5.3,4.9-8.3,11.7-8.9,20.5h55.9a27.268,27.268,0,0,0-3.5-15Z"/><path class="bdbead60-781f-4ea8-9edd-a6ab71c24804" d="M420.2,194.9l-32.8-35.7v35.7H377.2V87.1h10.2v63.8l32-35.5h14.3L396,155l38,39.9Z"/><path class="bdbead60-781f-4ea8-9edd-a6ab71c24804" d="M460.4,124v49.4c0,4.9.9,8.2,2.8,10,1.8,1.9,5.1,2.8,9.7,2.8h9.3v8.7H471.3c-7.2,0-12.5-1.7-16-5-3.5-3.4-5.2-8.9-5.2-16.5V124H439v-8.6h11v-20h10.3v20h21.8V124Z"/><path class="bdbead60-781f-4ea8-9edd-a6ab71c24804" d="M499.2,133.4a34.45574,34.45574,0,0,1,13.5-14.3,38.78012,38.78012,0,0,1,19.7-5,35.61915,35.61915,0,0,1,19.6,5.2,30.92483,30.92483,0,0,1,11.9,13.4V115.3H574v79.5H563.8V177.2a31.00378,31.00378,0,0,1-12.1,13.5A34.99744,34.99744,0,0,1,532,196a37.79163,37.79163,0,0,1-19.4-5.1,34.7054,34.7054,0,0,1-13.5-14.4,45.03322,45.03322,0,0,1-4.9-21.6A43.87307,43.87307,0,0,1,499.2,133.4Zm60.6,4.8A27.49314,27.49314,0,0,0,549.1,127a28.8723,28.8723,0,0,0-14.9-3.9,29.49771,29.49771,0,0,0-15.1,3.8,26.49051,26.49051,0,0,0-10.5,11,39.43851,39.43851,0,0,0,0,34.2,27.02332,27.02332,0,0,0,10.5,11.2,29.49772,29.49772,0,0,0,15.1,3.8,28.8724,28.8724,0,0,0,14.9-3.9A26.86685,26.86685,0,0,0,559.8,172a38.56648,38.56648,0,0,0,0-33.8Z"/></svg>