<svg data-name="Layer 2" xmlns="http://www.w3.org/2000/svg" width="171.619" height="43" viewBox="0 0 171.619 43">
    <g data-name="Layer 1">
        <path data-name="Path 291" d="M241.6 121.131a.566.566 0 0 1-.572.556H230.5a5.278 5.278 0 0 0 4.99 4.99 4.91 4.91 0 0 0 4.338-2.225.569.569 0 0 1 .461-.27.51.51 0 0 1 .524.524.493.493 0 0 1-.079.27 5.965 5.965 0 0 1-5.244 2.749c-3.544 0-6.086-3.178-6.086-6.563s2.527-6.563 6.086-6.563a6.366 6.366 0 0 1 6.11 6.532zm-1.128-.493a4.99 4.99 0 0 0-9.979 0z" transform="translate(-192.947 -96.389)" style="fill:#fff"/>
        <path data-name="Path 292" d="M349.118 91.784a.54.54 0 0 1 .524.524.51.51 0 0 1-.524.524h-2.829v11.108a.529.529 0 0 1-.524.524.54.54 0 0 1-.524-.524V92.833h-2.717a.51.51 0 0 1-.524-.524.529.529 0 0 1 .524-.524h2.717v-4.053a.564.564 0 0 1 .477-.556.52.52 0 0 1 .588.524v4.084z" transform="translate(-287.653 -73.319)" style="fill:#fff"/>
        <path data-name="Path 293" d="M440.544 65.891v6.722a.54.54 0 0 1-.524.524.51.51 0 0 1-.524-.524v-6.722c0-2.272-1.287-4.529-3.814-4.529-3.242 0-4.64 2.829-4.449 5.737 0 .079.032.413.032.461v5.04a.564.564 0 0 1-.477.556.52.52 0 0 1-.588-.524v-22.1a.529.529 0 0 1 .524-.524.54.54 0 0 1 .524.524v12.49a5.083 5.083 0 0 1 4.418-2.717c3.115-.005 4.878 2.709 4.878 5.586z" transform="translate(-361.838 -42.055)" style="fill:#fff"/>
        <path data-name="Path 294" d="M549.8 121.131a.566.566 0 0 1-.572.556H538.7a5.278 5.278 0 0 0 4.99 4.99 4.91 4.91 0 0 0 4.338-2.225.569.569 0 0 1 .461-.27.51.51 0 0 1 .524.524.493.493 0 0 1-.079.27 5.965 5.965 0 0 1-5.244 2.749c-3.544 0-6.086-3.178-6.086-6.563s2.527-6.563 6.086-6.563a6.388 6.388 0 0 1 6.11 6.532zm-1.144-.493a4.99 4.99 0 1 0-9.979 0z" transform="translate(-452.172 -96.389)" style="fill:#fff"/>
        <path data-name="Path 295" d="M663.854 116.693a.535.535 0 0 1-.493.572c-3.1.461-4.5 2.987-4.5 5.927v5.037a.564.564 0 0 1-.477.556.52.52 0 0 1-.588-.524v-11.489a.564.564 0 0 1 .477-.556.52.52 0 0 1 .588.524v2.336a5.621 5.621 0 0 1 4.418-2.876.545.545 0 0 1 .575.493z" transform="translate(-553.271 -97.735)" style="fill:#fff"/>
        <path data-name="Path 296" d="M740.3 121.131a.566.566 0 0 1-.572.556H729.2a5.278 5.278 0 0 0 4.99 4.99 4.91 4.91 0 0 0 4.338-2.225.569.569 0 0 1 .461-.27.51.51 0 0 1 .524.524.492.492 0 0 1-.079.27 5.965 5.965 0 0 1-5.244 2.749c-3.544 0-6.086-3.178-6.086-6.563s2.527-6.563 6.086-6.563a6.366 6.366 0 0 1 6.11 6.532zm-1.128-.493a4.99 4.99 0 1 0-9.979 0z" transform="translate(-612.4 -96.389)" style="fill:#fff"/>
        <path data-name="Path 297" d="M857.6 117.153v11.537a.54.54 0 0 1-.524.524.51.51 0 0 1-.524-.524v-2.19a4.965 4.965 0 0 1-4.386 2.987c-3.13 0-4.863-2.717-4.863-5.593v-6.754a.529.529 0 0 1 .524-.524.54.54 0 0 1 .524.524v6.754c0 2.272 1.287 4.529 3.814 4.529 3.544 0 4.386-3.321 4.386-6.992v-4.306a.532.532 0 0 1 .715-.493.577.577 0 0 1 .334.521z" transform="translate(-712.659 -98.068)" style="fill:#fff"/>
        <path data-name="Path 298" d="M976.293 120.346v6.754a.54.54 0 0 1-.524.524.51.51 0 0 1-.524-.524v-6.754c0-2.272-1.287-4.5-3.814-4.5-3.178 0-4.386 3.4-4.386 6.038v5.216a.54.54 0 0 1-.524.524.51.51 0 0 1-.521-.524v-6.754c0-2.272-1.287-4.5-3.814-4.5-3.21 0-4.529 2.527-4.418 5.9 0 .079.032.222 0 .27v5.069a.564.564 0 0 1-.477.556.52.52 0 0 1-.588-.524v-11.522a.564.564 0 0 1 .477-.556.52.52 0 0 1 .588.524v1.923a5.053 5.053 0 0 1 4.418-2.686 4.715 4.715 0 0 1 4.5 3.353 5.216 5.216 0 0 1 4.751-3.353c3.1 0 4.863 2.686 4.863 5.546z" transform="translate(-804.674 -96.558)" style="fill:#fff"/>
        <path data-name="Path 299" d="M13.189 100.1 0 106.091l13.189 7.8 13.205-7.8z" transform="translate(0 -84.193)" style="opacity:.6"/>
        <path data-name="Path 300" d="m0 21.9 13.189 7.8V0z" style="opacity:.45"/>
        <path data-name="Path 301" d="M83 0v29.7l13.205-7.8z" transform="translate(-69.811)" style="opacity:.8"/>
        <path data-name="Path 302" d="m0 153.6 13.189 18.592v-10.806z" transform="translate(0 -129.192)" style="opacity:.45"/>
        <path data-name="Path 303" d="M83 161.386v10.806L96.205 153.6z" transform="translate(-69.811 -129.192)" style="opacity:.8"/>
    </g>
</svg>
